<?xml version="1.0" standalone="no"?>
<!DOCTYPE svg PUBLIC "-//W3C//DTD SVG 1.1//EN" "http://www.w3.org/Graphics/SVG/1.1/DTD/svg11.dtd" >
<svg>
<metadata>
Created by FontForge 20110222 at Wed May  1 09:20:07 2013
 By www-data
La chata: Copyright (c) 2011 by deFharo.com. All rights reserved.
</metadata>
<defs>
<font id="Lachata" horiz-adv-x="710" >
  <font-face 
    font-family="La chata"
    font-weight="400"
    font-stretch="normal"
    units-per-em="1000"
    panose-1="2 0 5 5 2 0 0 2 0 3"
    ascent="800"
    descent="-200"
    x-height="533.5"
    cap-height="797"
    bbox="-141 -272 1120 1059"
    underline-thickness="50"
    underline-position="-50"
    unicode-range="U+0020-2265"
  />
<missing-glyph horiz-adv-x="282" 
 />
    <glyph glyph-name=".notdef" horiz-adv-x="282" 
 />
    <glyph glyph-name=".null" horiz-adv-x="0" 
 />
    <glyph glyph-name="nonmarkingreturn" horiz-adv-x="333" 
 />
    <glyph glyph-name="space" unicode=" " horiz-adv-x="364" 
 />
    <glyph glyph-name="exclam" unicode="!" horiz-adv-x="262" 
d="M90 39q0 17 12 28t29 11t29 -11t12 -28t-12 -28t-29 -11t-29 11t-12 28zM166 777v-509q0 -14 -10 -21.5t-25 -7.5t-25 7.5t-10 21.5v509q0 14 10 22t25 8t25 -8t10 -22z" />
    <glyph glyph-name="quotedbl" unicode="&#x22;" horiz-adv-x="272" 
d="M47 633q-15 135 -15 146q0 28 36 28q34 0 34 -29l-15 -145q-1 -20 -20 -20t-20 20zM171 633q-15 135 -15 146q0 28 36 28q34 0 34 -29l-15 -145q-1 -20 -20 -20t-20 20z" />
    <glyph glyph-name="numbersign" unicode="#" horiz-adv-x="679" 
d="M505 422h70q16 0 25.5 -12t9.5 -29t-9.5 -29t-25.5 -12h-70q-13 0 -13 -12v-116q0 -13 13 -13h70q16 0 25.5 -12t9.5 -29t-9.5 -29t-25.5 -12h-70q-13 0 -13 -12v-71q0 -16 -12 -25.5t-29 -9.5t-29 9.5t-12 25.5v71q0 12 -12 12h-116q-13 0 -13 -12v-71q0 -16 -12 -25.5
t-29 -9.5t-29 9.5t-12 25.5v71q0 12 -12 12h-71q-16 0 -25.5 12t-9.5 29t9.5 29t25.5 12h71q12 0 12 13v116q0 12 -12 12h-71q-16 0 -25.5 12t-9.5 29t9.5 29t25.5 12h71q12 0 12 13v70q0 16 12 25.5t29 9.5t29 -9.5t12 -25.5v-70q0 -13 13 -13h116q12 0 12 13v70
q0 16 12 25.5t29 9.5t29 -9.5t12 -25.5v-70q0 -13 13 -13zM398 340h-116q-13 0 -13 -12v-116q0 -13 13 -13h116q12 0 12 13v116q0 12 -12 12z" />
    <glyph glyph-name="dollar" unicode="$" horiz-adv-x="563" 
d="M247 561v25q0 14 10 21.5t25 7.5t25 -7.5t10 -21.5v-20q0 -10 10 -10q76 -7 142 -58q13 -12 13 -26q0 -18 -14.5 -30.5t-31.5 -12.5q-6 0 -24 10q-54 36 -113 36q-45 0 -86 -17.5t-41 -51.5q0 -55 132 -65q209 -15 209 -166q0 -82 -54 -132.5t-133 -59.5q-9 0 -9 -10v-21
q0 -14 -10 -21.5t-25 -7.5t-25 7.5t-10 21.5v25q0 8 -8 10q-60 13 -111 46.5t-76 83.5q-4 7 -4 16q0 17 12.5 30.5t29.5 13.5q11 0 19.5 -5.5t19 -20.5t12.5 -17q56 -71 153 -71q52 0 94 27.5t42 76.5q0 38 -23 58.5t-60.5 27.5t-77.5 11t-81.5 17.5t-65.5 39.5
q-33 34 -33 84q0 57 41.5 95t107.5 51q9 1 9 10z" />
    <glyph glyph-name="percent" unicode="%" horiz-adv-x="570" 
d="M49 443v-60q0 -32 20 -52.5t48 -20.5q30 0 49.5 20.5t19.5 52.5v60q0 32 -19.5 52.5t-49.5 20.5q-28 0 -48 -20.5t-20 -52.5zM117 268q-46 0 -77.5 33.5t-31.5 81.5v60q0 48 31.5 81t77.5 33t78 -33t32 -81v-60q0 -48 -32 -81.5t-78 -33.5zM329 157v-60q0 -32 20 -52.5
t48 -20.5q30 0 49.5 20.5t19.5 52.5v60q0 32 -19.5 52.5t-49.5 20.5q-28 0 -48 -20.5t-20 -52.5zM397 -18q-46 0 -77.5 33.5t-31.5 81.5v60q0 48 31.5 81t77.5 33t78 -33t32 -81v-60q0 -48 -32 -81.5t-78 -33.5zM156 87l160 375q7 15 24 7q18 -7 12 -23l-160 -374
q-5 -14 -24 -8q-18 8 -12 23z" />
    <glyph glyph-name="ampersand" unicode="&#x26;" horiz-adv-x="826" 
d="M172 519v-47q0 -15 10.5 -25.5t25.5 -10.5h98q16 0 25.5 -12t9.5 -29t-9.5 -29t-25.5 -12h-98q-15 0 -25.5 -10.5t-10.5 -25.5v-50q0 -91 53 -148.5t143 -57.5q17 0 80 15q116 47 116 190v58q0 15 -10.5 25t-24.5 10h-33q-14 0 -21.5 10t-7.5 25t7.5 25t21.5 10h33
q14 0 24.5 10.5t10.5 24.5v37q0 16 12 25.5t29 9.5t29 -9.5t12 -25.5v-37q0 -14 10.5 -24.5t24.5 -10.5h60q14 0 22 -10t8 -25t-8 -25t-22 -10h-60q-14 0 -24.5 -10t-10.5 -25v-57q0 -96 -42.5 -162.5t-111.5 -98.5l-1 -1h-2q-30 -19 -85 -24q-22 -2 -33 -2h-1h-2
q-124 0 -201 81.5t-77 206.5v251q0 125 77 206.5t201 81.5q76 0 121 -26q25 -14 15 -43t-33 -31q-10 0 -44 9t-59 9q-90 0 -143 -57.5t-53 -148.5z" />
    <glyph glyph-name="quotesingle" unicode="'" horiz-adv-x="134" 
d="M47 633q-15 135 -15 146q0 28 36 28q34 0 34 -29l-15 -145q-1 -20 -20 -20t-20 20z" />
    <glyph glyph-name="parenleft" unicode="(" horiz-adv-x="472" 
d="M63 84v371q0 129 82 211q38 36 79 56q7 4 19 4q35 0 35 -40q0 -26 -18 -37q-27 -14 -60 -47q-51 -56 -51 -147v-371q0 -91 51 -146q32 -34 60 -48q18 -12 18 -37q0 -40 -35 -40q-11 0 -19 4q-42 20 -79 57q-82 82 -82 210z" />
    <glyph glyph-name="parenright" unicode=")" horiz-adv-x="472" 
d="M409 454v-371q0 -128 -82 -210q-37 -37 -79 -57q-8 -4 -19 -4q-35 0 -35 40q0 25 18 37q28 13 63 48q48 57 48 146v371q0 91 -51 147q-33 33 -60 47q-18 10 -18 37q0 40 35 40q12 0 19 -4q41 -20 79 -56q82 -82 82 -211z" />
    <glyph glyph-name="asterisk" unicode="*" horiz-adv-x="452" 
d="M315 570l90 -52q13 -7 13 -24q0 -16 -11 -27.5t-21.5 -12.5t-15.5 4l-90 52q-6 2 -7 2q-12 0 -12 -13v-104q0 -14 -10 -21.5t-25 -7.5t-25 7.5t-10 21.5v104q0 13 -12 13q-1 0 -7 -2l-90 -52q-8 -11 -27.5 -0.5t-20.5 36.5q0 17 13 24l90 52q6 3 6 11q0 7 -6 11l-90 52
q-13 7 -13 25q0 16 11 27.5t25 11.5q6 0 12 -3l90 -52q6 -2 7 -2q12 0 12 13v103q0 14 10 22t25 8t25 -8t10 -22v-103q0 -13 12 -13q1 0 7 2l90 52q6 3 12 3q14 0 25 -12t11 -28q0 -17 -13 -24l-90 -52q-7 -4 -7 -11q0 -8 7 -11z" />
    <glyph glyph-name="plus" unicode="+" horiz-adv-x="658" 
d="M328 27q-15 0 -25 7.5t-10 21.5v134q0 17 -12 29t-29 12h-134q-14 0 -21.5 10t-7.5 25q0 14 8 24.5t21 10.5h134q17 0 29 12t12 29v134q0 14 10 21.5t25 7.5q14 0 24.5 -8t10.5 -21v-134q0 -17 12 -29t29 -12h133q13 0 21 -10.5t8 -24.5q0 -15 -7.5 -25t-21.5 -10h-133
q-17 0 -29 -12t-12 -29v-134q0 -13 -10.5 -21t-24.5 -8z" />
    <glyph glyph-name="comma" unicode="," horiz-adv-x="219" 
d="M90 32v18q0 19 12 28.5t29 9.5t29 -10.5t12 -29.5q0 -61 -24 -120t-68 -100q-10 -10 -25 -10t-25 10t-10 25q0 14 10 24q60 60 60 155z" />
    <glyph glyph-name="hyphen" unicode="-" horiz-adv-x="436" 
d="M336 226h-237q-16 0 -26 12t-10 29q0 18 9.5 29.5t26.5 11.5h237q17 0 26 -11.5t9 -29.5q0 -17 -9.5 -29t-25.5 -12z" />
    <glyph glyph-name="period" unicode="." horiz-adv-x="201" 
d="M90 39q0 16 10.5 27.5t30.5 11.5t30.5 -11.5t10.5 -27.5t-10.5 -27.5t-30.5 -11.5t-30.5 11.5t-10.5 27.5z" />
    <glyph glyph-name="slash" unicode="/" horiz-adv-x="418" 
d="M32 -131l285 671q5 12 18 15.5t25 -2.5q14 -6 20.5 -17t0.5 -24l-284 -670q-11 -27 -44 -13q-31 13 -21 40z" />
    <glyph glyph-name="zero" unicode="0" horiz-adv-x="564" 
d="M145 328v-121q0 -62 40 -104t97 -42t97 42t40 104v121q0 62 -40 104t-97 42t-97 -42t-40 -104zM282 -21q-92 0 -155.5 66.5t-63.5 161.5v121q0 95 63.5 161.5t155.5 66.5t155.5 -66.5t63.5 -161.5v-121q0 -95 -63.5 -161.5t-155.5 -66.5z" />
    <glyph glyph-name="one" unicode="1" horiz-adv-x="326" 
d="M263 514v-499q0 -16 -12 -25.5t-29 -9.5t-29 9.5t-12 25.5v415q0 5 -4.5 8.5t-9.5 1.5q-45 -15 -93 -15q-16 0 -26 12t-10 29t9.5 29t25.5 12q72 0 123 39q10 9 26 9q17 0 29 -12t12 -29z" />
    <glyph glyph-name="two" unicode="2" horiz-adv-x="558" 
d="M177 209h95q66 0 103.5 37t37.5 87q0 68 -42 104t-99 36q-45 0 -74.5 -21t-55.5 -63q-23 -36 -61 -14q-25 18 -15 46q20 57 79.5 95.5t126.5 38.5q95 0 159 -62.5t64 -159.5q0 -88 -63 -147t-160 -59h-98q-12 0 -20 -9.5t-8 -21.5t9.5 -22t21.5 -10h276q37 0 37 -41
t-37 -41h-276q-46 0 -79.5 33.5t-33.5 80.5q0 46 33.5 79.5t79.5 33.5z" />
    <glyph glyph-name="three" unicode="3" horiz-adv-x="444" 
d="M326 334q0 -3 1 -4q54 -60 54 -139q0 -84 -59.5 -147.5t-150.5 -63.5q-74 0 -122 39q-17 14 -17 33q0 12 12 26.5t29 14.5q7 0 37.5 -15.5t60.5 -15.5q52 0 90 36.5t38 89.5q0 101 -108 124q-10 1 -10 12q0 12 10 12q29 0 49.5 20.5t20.5 49.5t-21 49t-50 20
q-12 0 -28.5 -6.5t-25.5 -6.5q-17 0 -27 11.5t-10 29.5q0 25 18 36q31 18 73 18q65 0 109 -46t44 -108q0 -33 -17 -69z" />
    <glyph glyph-name="four" unicode="4" horiz-adv-x="530" 
d="M167 146h153q17 0 17 17v112q0 16 12 25.5t29 9.5t29 -9.5t12 -25.5v-112q0 -17 17 -17h21q16 0 25.5 -12t9.5 -29t-9.5 -29t-25.5 -12h-21q-7 0 -12 -5t-5 -12v-32q0 -16 -12 -25.5t-29 -9.5t-29 9.5t-12 25.5v32q0 17 -17 17h-247q-21 0 -35 19.5t1 43.5l267 413
q20 29 54 7q14 -9 18.5 -23t-3.5 -29l-216 -333q-4 -5 -1 -10.5t9 -5.5z" />
    <glyph glyph-name="five" unicode="5" horiz-adv-x="558" 
d="M92 556h360q35 0 35 -41q2 -41 -35 -41h-302q-6 0 -6 -6v-52q0 -6 6 -6h121q97 2 160 -57.5t63 -147.5q0 -97 -64 -159.5t-159 -62.5q-69 0 -127.5 38t-78.5 96q-13 34 24 49q32 15 52 -17q26 -42 55.5 -63t74.5 -21q57 0 99 36t42 104q0 50 -37.5 87t-103.5 37h-179
q-12 0 -21 8.5t-9 21.5v167q0 12 9 21t21 9z" />
    <glyph glyph-name="six" unicode="6" horiz-adv-x="634" 
d="M343 62q79 0 121 37.5t42 77.5q0 44 -43.5 79.5t-119.5 35.5q-68 0 -120.5 -36t-52.5 -79q0 -47 54 -81t119 -34zM63 267q0 137 83 212.5t195 75.5q66 0 120 -25q27 -12 21 -42q-3 -15 -14 -26t-23 -11q-9 0 -18 4q-41 18 -86 18q-66 0 -118.5 -36t-69.5 -105
q-6 -21 1 -25q2 0 5 2q72 65 175 65q114 0 184 -56.5t70 -140.5q0 -82 -70 -139.5t-174 -57.5q-143 0 -223 102q-58 76 -58 185z" />
    <glyph glyph-name="seven" unicode="7" horiz-adv-x="477" 
d="M261 215v53q0 102 -61 156q-53 49 -135 49q-15 0 -29 12q-12 13 -12 29q0 20 13 30q11 11 29 11q110 0 189 -70q88 -80 88 -217v-40q0 -7 3 -10t7 -2l68 7q10 0 18 -8q5 -6 5 -18q0 -9 -6 -17q-7 -7 -14 -7l-70 -9q-4 0 -8 -4q-3 -3 -3 -8v-131q0 -14 -11 -28
q-10 -13 -30 -13q-16 0 -29 12q-12 13 -12 29v118q0 6 -2 8q-3 3 -8 4q-3 0 -21 -2t-19 -2h-4q-10 0 -18 8q-6 7 -6 19q0 8 5 15q7 7 16 8l46 6q4 0 8 4q3 3 3 8z" />
    <glyph glyph-name="eight" unicode="8" horiz-adv-x="566" 
d="M145 191q0 -53 40 -91.5t98 -38.5q57 0 97.5 39t40.5 91q0 47 -31 82.5t-80 45.5q-7 1 -7 8t6 8q24 8 37.5 27t13.5 42q0 32 -21 53t-56 21t-56 -21t-21 -53q0 -23 13 -42t37 -27q6 -1 6 -8t-6 -8q-49 -9 -80 -44.5t-31 -83.5zM135 348q-10 19 -10 55q0 65 43.5 109
t114.5 44q69 0 113.5 -44t44.5 -109q0 -34 -10 -55q72 -64 72 -157q0 -89 -64.5 -150.5t-155.5 -61.5t-155.5 61.5t-64.5 150.5q0 93 72 157z" />
    <glyph glyph-name="nine" unicode="9" horiz-adv-x="634" 
d="M290 473q-79 0 -121 -37.5t-42 -77.5q0 -44 43.5 -79.5t119.5 -35.5q68 0 120.5 36t52.5 79q0 47 -54 81t-119 34zM570 268q0 -137 -83 -212.5t-195 -75.5q-66 0 -120 25q-27 12 -21 42q3 15 14 26t23 11q9 0 18 -4q40 -18 86 -18q66 0 118.5 36t69.5 105q6 21 -1 25
q-2 0 -5 -2q-72 -65 -175 -65q-114 0 -184 56.5t-70 140.5q0 82 70 139.5t174 57.5q143 0 223 -102q58 -76 58 -185z" />
    <glyph glyph-name="colon" unicode=":" horiz-adv-x="250" 
d="M154 43q0 18 11.5 30.5t33.5 12.5t33.5 -12.5t11.5 -30.5q0 -17 -11.5 -30t-33.5 -13t-33.5 12.5t-11.5 30.5zM154 396q0 18 11.5 30.5t33.5 12.5t33.5 -12.5t11.5 -30.5q0 -17 -11.5 -30t-33.5 -13t-33.5 12.5t-11.5 30.5z" />
    <glyph glyph-name="semicolon" unicode=";" horiz-adv-x="212" 
d="M90 32v18q0 19 12 28.5t29 9.5t29 -10.5t12 -29.5q0 -61 -24 -120t-68 -100q-10 -10 -25 -10t-25 10t-10 25q0 14 10 24q60 60 60 155zM86 396q0 18 11.5 30.5t33.5 12.5t33.5 -12.5t11.5 -30.5q0 -17 -11.5 -30t-33.5 -13t-33.5 12.5t-11.5 30.5z" />
    <glyph glyph-name="less" unicode="&#x3c;" horiz-adv-x="579" 
d="M148 267l306 -131q12 -5 16 -18t-2 -24q-14 -31 -40 -20l-378 163q-18 8 -18 30.5t18 30.5l380 161q12 5 22.5 -1t16.5 -19q6 -11 2.5 -23.5t-15.5 -18.5z" />
    <glyph glyph-name="equal" unicode="=" horiz-adv-x="540" 
d="M414 321h-288q-23 0 -32 20.5t0 41t32 20.5h288q23 0 32 -20.5t0 -41t-32 -20.5zM414 135h-288q-23 0 -32 20.5t0 41t32 20.5h288q23 0 32 -20.5t0 -41t-32 -20.5z" />
    <glyph glyph-name="greater" unicode="&#x3e;" horiz-adv-x="579" 
d="M125 136l306 131l-308 130q-12 6 -15.5 18.5t2.5 23.5q6 13 16.5 19t22.5 1l380 -161q18 -8 18 -30.5t-18 -30.5l-378 -163q-26 -11 -40 20q-6 11 -2 24t16 18z" />
    <glyph glyph-name="question" unicode="?" horiz-adv-x="530" 
d="M262 -231q0 -16 -10.5 -27.5t-30.5 -11.5t-30.5 11.5t-10.5 27.5t10.5 27.5t30.5 11.5t30.5 -11.5t10.5 -27.5zM221 475q-16 0 -25.5 12t-9.5 29t9.5 29t25.5 12q92 0 155.5 -66.5t63.5 -161.5v-103q0 -79 -45 -139t-116 -81q-17 -5 -17 -21v-80q0 -16 -12 -25.5
t-29 -9.5t-29 9.5t-12 25.5v134q0 17 12 29t29 12q57 0 97 42t40 104v103q0 62 -40.5 104t-96.5 42z" />
    <glyph glyph-name="at" unicode="@" horiz-adv-x="1088" 
d="M800 68q61 0 96.5 45.5t35.5 130.5v26q0 168 -132 283q-108 95 -254 95q-206 0 -328 -180q-63 -94 -63 -210q0 -192 152 -309q103 -80 239 -80q109 0 218 67q7 4 14 4q14 0 24.5 -13.5t10.5 -28.5q0 -49 -164 -93q-47 -12 -90 -12h-25q-178 0 -313 129q-144 137 -144 340
q0 200 162 345q130 118 297 118h18q209 0 353 -174q104 -127 104 -291q0 -199 -135 -253q-38 -15 -84 -15q-30 0 -57 18t-43 18q-2 0 -55 -23.5t-101 -23.5q-99 0 -173.5 72.5t-74.5 185.5q0 110 71 185t177 75q42 0 79 -11q22 -7 47 -20.5t33 -13.5h4q7 0 21 14t30 12
q36 0 36 -35v-365q0 -12 14 -12zM708 239q0 89 -50.5 138.5t-119.5 49.5t-120.5 -50t-51.5 -138q0 -89 50.5 -138t120.5 -49q69 0 120 49.5t51 137.5z" />
    <glyph glyph-name="A" unicode="A" horiz-adv-x="712" 
d="M160 331v-296q0 -16 -12 -25.5t-29 -9.5t-29 9.5t-12 25.5v486q0 137 83 212t195 75q113 0 195.5 -75t82.5 -212v-486q0 -16 -12 -25.5t-29 -9.5t-29 9.5t-12 25.5v296q0 25 -25 25h-343q-10 0 -17 -7t-7 -18zM552 462v57q0 103 -57 155t-139 52t-139 -52.5t-57 -152.5
v-59q0 -10 7 -17t17 -7h343q11 0 18 7t7 17z" />
    <glyph glyph-name="B" unicode="B" horiz-adv-x="661" 
d="M196 90h177q71 0 107.5 39.5t36.5 97.5q-8 136 -154 136h-167q-10 0 -17 -7t-7 -17v-225q0 -10 7 -17t17 -7zM90 49v707q0 17 12 29t29 12h167q122 0 189 -74t67 -174q0 -73 -36 -134q-2 -2 -2 -7q0 -6 5 -11q78 -75 78 -170q0 -88 -59.5 -153.5t-166.5 -65.5h-242
q-17 0 -29 12t-12 29zM196 445h177q30 0 57 -6q4 0 6 2q36 47 36 108q0 69 -44.5 117.5t-129.5 48.5h-102q-10 0 -17 -7t-7 -18v-220q0 -11 7 -18t17 -7z" />
    <glyph glyph-name="C" unicode="C" horiz-adv-x="539" 
d="M72 279v241q0 125 77 206t202 81q69 0 121 -25q16 -9 19 -27t-8 -32.5t-29 -14.5q-9 0 -43 8.5t-60 8.5q-90 0 -143 -57t-53 -148v-241q0 -91 53 -148t143 -57q26 0 60 8.5t43 8.5q29 0 36 -30.5t-18 -43.5q-44 -26 -121 -26q-124 0 -201.5 81.5t-77.5 206.5z" />
    <glyph glyph-name="D" unicode="D" horiz-adv-x="643" 
d="M90 39v723q0 16 12 25.5t29 9.5h162q53 0 102 -18t89 -52t63.5 -90.5t23.5 -126.5v-219q0 -70 -23.5 -126.5t-63.5 -90.5t-89 -52t-102 -18h-162q-17 0 -29 9.5t-12 25.5zM172 699v-597q0 -16 16 -16h105q82 0 139 52.5t57 152.5v219q0 100 -57 152.5t-139 52.5h-105
q-16 0 -16 -16z" />
    <glyph glyph-name="E" unicode="E" horiz-adv-x="536" 
d="M154 516v-44q0 -15 10.5 -25.5t25.5 -10.5h66q16 0 25.5 -12t9.5 -29t-9.5 -29t-25.5 -12h-66q-15 0 -25.5 -11t-10.5 -29v-37q0 -91 53 -148.5t143 -57.5q25 0 59 9t44 9q23 -2 33 -31t-15 -43q-45 -26 -121 -26q-124 0 -201 81.5t-77 206.5v239q0 125 77 206.5
t201 81.5q76 0 121 -26q25 -14 15 -43t-33 -31q-10 0 -44 9t-59 9q-90 0 -143 -57.5t-53 -148.5z" />
    <glyph glyph-name="F" unicode="F" horiz-adv-x="545" 
d="M207 445h162q16 0 25.5 -12t9.5 -29t-9.5 -29t-25.5 -12h-162q-14 0 -24.5 -10t-10.5 -25v-293q0 -16 -12 -25.5t-29 -9.5t-29 9.5t-12 25.5v721q0 17 12 29t29 12h347q16 0 25.5 -12t9.5 -29q0 -18 -9 -29.5t-26 -11.5h-271q-14 0 -24.5 -10.5t-10.5 -24.5v-200
q0 -14 10.5 -24.5t24.5 -10.5z" />
    <glyph glyph-name="G" unicode="G" 
d="M552 277v127q0 16 12 26t29 10t29 -10t12 -26v-360q0 -44 -41 -44t-41 44q0 7 -6 9.5t-11 -2.5q-76 -61 -179 -61q-112 0 -195 75t-83 212v244q0 125 77 206t201 81q71 0 121 -25q26 -16 19 -45.5t-37 -29.5q-9 0 -43 9t-60 9q-90 0 -143 -57.5t-53 -148.5v-243
q0 -100 57 -152.5t139 -52.5t139 52.5t57 152.5z" />
    <glyph glyph-name="H" unicode="H" horiz-adv-x="736" 
d="M564 459v303q0 16 12 25.5t29 9.5t29 -9.5t12 -25.5v-727q0 -16 -12 -25.5t-29 -9.5t-29 9.5t-12 25.5v301q0 8 -6 14t-15 6h-351q-8 0 -14 -6t-6 -14v-301q0 -16 -12 -25.5t-29 -9.5t-29 9.5t-12 25.5v727q0 16 12 25.5t29 9.5t29 -9.5t12 -25.5v-303q0 -8 6 -14.5
t14 -6.5h351q9 0 15 6.5t6 14.5z" />
    <glyph glyph-name="I" unicode="I" horiz-adv-x="262" 
d="M90 35v727q0 16 12 25.5t29 9.5t29 -9.5t12 -25.5v-727q0 -16 -12 -25.5t-29 -9.5t-29 9.5t-12 25.5z" />
    <glyph glyph-name="J" unicode="J" horiz-adv-x="508" 
d="M430 762v-485q0 -137 -83 -212t-195 -75q-68 0 -121 26q-23 12 -21 37q1 18 11 29.5t27 11.5q10 0 17 -4q41 -18 87 -18q82 0 139 52.5t57 152.5v485q0 16 12 25.5t29 9.5t29 -9.5t12 -25.5z" />
    <glyph glyph-name="K" unicode="K" horiz-adv-x="709" 
d="M446 433q88 -24 144 -94.5t56 -182.5v-121q0 -16 -12 -25.5t-29 -9.5t-29 9.5t-12 25.5v121q0 100 -57 152.5t-139 52.5t-139 -52.5t-57 -152.5v-121q0 -16 -12 -25.5t-29 -9.5t-29 9.5t-12 25.5v726q0 16 12 26t29 10t29 -10t12 -26v-342q0 -25 25 -25q9 0 13 4
q38 26 84 36q16 5 24 17l191 267q9 14 25.5 14.5t28.5 -9.5q15 -9 18.5 -23.5t-5.5 -28.5l-143 -200q-5 -8 -5 -14q0 -19 18 -24z" />
    <glyph glyph-name="L" unicode="L" horiz-adv-x="509" 
d="M78 276v486q0 16 12 25.5t29 9.5t29 -9.5t12 -25.5v-486q0 -100 57 -152.5t139 -52.5q46 0 87 18q7 4 17 4q17 0 27 -11.5t11 -29.5q2 -25 -21 -37q-53 -26 -121 -26q-112 0 -195 75t-83 212z" />
    <glyph glyph-name="M" unicode="M" horiz-adv-x="945" 
d="M431 35v547q0 70 -39.5 107t-96.5 37t-96.5 -37t-39.5 -107v-547q0 -16 -12 -25.5t-29 -9.5t-29 9.5t-12 25.5v547q0 107 65 166.5t153 59.5q97 0 158 -64q19 -20 39 0q64 64 158 64q88 0 153 -59.5t65 -166.5v-547q0 -16 -12 -25.5t-29 -9.5t-29 9.5t-12 25.5v547
q0 70 -39.5 107t-96.5 37t-97 -36.5t-40 -107.5v-547q0 -16 -12 -25.5t-29 -9.5t-29 9.5t-12 25.5z" />
    <glyph glyph-name="N" unicode="N" 
d="M159 521v-486q0 -16 -12 -25.5t-29 -9.5t-29 9.5t-12 25.5v485q0 71 24 127.5t64 90.5t89 52t101 18q113 0 195.5 -75t82.5 -212v-486q0 -16 -12 -25.5t-29 -9.5t-29 9.5t-12 25.5v484q0 102 -57 154.5t-139 52.5t-139 -52.5t-57 -152.5z" />
    <glyph glyph-name="O" unicode="O" horiz-adv-x="700" 
d="M546 277v244q0 100 -57 152.5t-139 52.5t-139 -52.5t-57 -152.5v-244q0 -100 57 -152.5t139 -52.5t139 52.5t57 152.5zM72 277v244q0 137 83 212t195 75q113 0 195.5 -75t82.5 -212v-244q0 -137 -82.5 -212t-195.5 -75q-112 0 -195 75t-83 212z" />
    <glyph glyph-name="P" unicode="P" horiz-adv-x="692" 
d="M200 323h158q100 0 152.5 57.5t52.5 138.5t-52.5 139t-152.5 58h-157q-12 0 -20.5 -7t-8.5 -18v-343q0 -11 8 -18t20 -7zM128 797h230q137 0 212 -82.5t75 -195.5q0 -112 -75 -195t-212 -83h-158q-12 0 -20 -6.5t-8 -17.5v-182q0 -16 -12 -25.5t-29 -9.5t-29 9.5
t-12 25.5v727q0 33 38 35z" />
    <glyph glyph-name="Q" unicode="Q" horiz-adv-x="701" 
d="M545 277v244q0 100 -57 152.5t-139 52.5t-139 -52.5t-57 -152.5v-244q0 -100 57 -152.5t139 -52.5q80 0 133 47q6 5 6 14t-6 14q-10 9 -26 19q-20 13 -15.5 36t23 33t38.5 -1q14 -10 21 -17q4 -3 9.5 -2t6.5 6q6 25 6 56zM71 277v244q0 137 83 212t195 75
q113 0 195.5 -75t82.5 -212v-244q0 -78 -29 -138q-4 -7 1 -18q19 -37 28 -91q2 -19 -19 -32t-37 -1q-10 7 -13 21q-4 18 -10 33q-6 13 -16 3q-76 -64 -183 -64q-112 0 -195 75t-83 212z" />
    <glyph glyph-name="R" unicode="R" horiz-adv-x="708" 
d="M200 324h158q100 0 152.5 57.5t52.5 138.5t-52.5 139t-152.5 58h-157q-12 0 -20.5 -7t-8.5 -18v-343q0 -11 8 -18t20 -7zM128 798h230q137 0 212 -82.5t75 -195.5q0 -67 -28.5 -128.5t-83.5 -98.5q-6 -4 -7 -9.5t4 -8.5q115 -79 115 -238q0 -18 -12 -27.5t-29 -9.5
t-29 9.5t-12 25.5q0 103 -56.5 155t-138.5 52h-168q-12 0 -20 -6.5t-8 -17.5v-183q0 -16 -12 -25.5t-29 -9.5t-29 9.5t-12 25.5v728q0 33 38 35z" />
    <glyph glyph-name="S" unicode="S" horiz-adv-x="777" 
d="M144 219q0 -57 37 -97t108 -40h199q71 0 108 40t37 98q0 57 -37 97t-108 40h-179q-107 0 -166.5 65t-59.5 153t59.5 153.5t166.5 65.5h159q107 0 166.5 -65.5t59.5 -153.5q0 -17 -11.5 -26.5t-29.5 -9.5t-29 9.5t-11 26.5q0 57 -37 97t-108 40h-159q-71 0 -108 -40
t-37 -97t37 -97t108 -40h179q109 0 167.5 -65t58.5 -153q0 -89 -58.5 -154t-167.5 -65h-199q-107 0 -166.5 65t-59.5 153q0 17 11.5 27t29.5 10t29 -10t11 -27z" />
    <glyph glyph-name="T" unicode="T" horiz-adv-x="505" 
d="M293 680v-646q0 -16 -12 -25.5t-29 -9.5t-29 9.5t-12 25.5v646q0 15 -10 25t-25 10h-109q-16 0 -25.5 12t-9.5 29q0 18 9 29.5t26 11.5h370q17 0 26.5 -11.5t9.5 -29.5q0 -17 -10 -29t-26 -12h-109q-14 0 -24.5 -10t-10.5 -25z" />
    <glyph glyph-name="U" unicode="U" horiz-adv-x="712" 
d="M552 278v484q0 16 12 25.5t29 9.5t29 -9.5t12 -25.5v-484q0 -137 -83 -212t-195 -75q-113 0 -195.5 75t-82.5 212v484q0 16 12 25.5t29 9.5t29 -9.5t12 -25.5v-482q0 -103 57 -155t139 -52t139 52.5t57 152.5z" />
    <glyph glyph-name="V" unicode="V" horiz-adv-x="587" 
d="M90 35v727q0 16 12 25.5t29 9.5t29 -9.5t12 -25.5v-660q0 -8 6 -14t14 -6h40q82 0 139 52.5t57 152.5v475q0 16 12 25.5t29 9.5t29 -9.5t12 -25.5v-475q0 -137 -83 -212t-195 -75h-101q-17 0 -29 9.5t-12 25.5z" />
    <glyph glyph-name="W" unicode="W" horiz-adv-x="945" 
d="M513 434v-218q0 -71 40 -107.5t97 -36.5t96.5 37t39.5 107v546q0 16 12 25.5t29 9.5t29 -9.5t12 -25.5v-546q0 -107 -65 -166.5t-153 -59.5q-95 0 -159 64q-19 19 -38 0q-64 -64 -158 -64q-88 0 -153 59.5t-65 166.5v546q0 16 12 25.5t29 9.5t29 -9.5t12 -25.5v-546
q0 -70 39.5 -107t96.5 -37t96.5 37t39.5 107v218q0 16 12 25.5t29 9.5q18 0 29.5 -9t11.5 -26z" />
    <glyph glyph-name="X" unicode="X" horiz-adv-x="609" 
d="M541 0q-136 0 -216 98q-21 26 -41 0q-40 -49 -97 -73.5t-120 -24.5q-17 0 -26 11.5t-9 29.5t9 29.5t26 11.5q82 0 139 52.5t57 152.5v224q0 100 -57 152.5t-139 52.5q-16 0 -25.5 12t-9.5 29t9.5 29t25.5 12q63 0 120 -24.5t97 -73.5q20 -26 41 0q80 98 216 98
q16 0 26 -12t10 -29t-10 -29t-26 -12q-82 0 -139 -52.5t-57 -152.5v-224q0 -100 57 -152.5t139 -52.5q17 0 26.5 -11.5t9.5 -29.5t-9.5 -29.5t-26.5 -11.5z" />
    <glyph glyph-name="Y" unicode="Y" horiz-adv-x="648" 
d="M520 643v119q0 16 12 25.5t29 9.5t29 -9.5t12 -25.5v-119q0 -115 -59.5 -186.5t-149.5 -92.5q-28 -7 -28 -36v-293q0 -16 -12 -25.5t-29 -9.5t-29 9.5t-12 25.5v293q0 29 -28 36q-91 22 -150 93t-59 186v119q0 16 12 25.5t29 9.5t29 -9.5t12 -25.5v-117q0 -103 57 -155
t139 -52t139 52.5t57 152.5z" />
    <glyph glyph-name="Z" unicode="Z" horiz-adv-x="588" 
d="M522 609l-118 -169q16 0 25.5 -12t9.5 -29t-9.5 -29t-25.5 -12h-44q-13 0 -20 -10l-176 -250q-4 -5 -1 -10.5t9 -5.5h348q16 0 26 -12t10 -29t-10 -29t-26 -12h-442q-18 0 -32 12.5t-14 29.5q0 10 6 19l209 297q-17 1 -26 12.5t-9 28.5q0 18 9 29.5t26 11.5h44
q13 0 20 10l119 171q8 13 1 26q-53 82 -163 82q-100 0 -155 -71q-10 -13 -25 -13q-17 0 -31.5 13.5t-14.5 30.5q0 11 8 22q82 100 218 100q83 0 153.5 -43.5t103.5 -125.5q3 -9 3 -15q0 -11 -6 -18z" />
    <glyph glyph-name="bracketleft" unicode="[" horiz-adv-x="563" 
d="M184 -137h157q17 0 27 -12t10 -29t-10 -29t-27 -12h-209q-17 0 -29.5 12t-12.5 29v809q0 17 12 28t30 11h209q17 0 27 -11.5t10 -29.5q0 -17 -10 -29t-27 -12h-157q-12 0 -12 -11v-702q0 -12 12 -12z" />
    <glyph glyph-name="backslash" unicode="\" horiz-adv-x="418" 
d="M101 540l285 -671q10 -27 -21 -40q-33 -14 -44 13l-284 670q-6 13 0.5 24t20.5 17q12 6 25 2.5t18 -15.5z" />
    <glyph glyph-name="bracketright" unicode="]" horiz-adv-x="563" 
d="M379 -137q12 0 12 12v702q0 11 -12 11h-157q-17 0 -27 12t-10 29q0 18 10 29.5t27 11.5h209q18 0 30 -11t12 -28v-809q0 -17 -12.5 -29t-29.5 -12h-209q-17 0 -27 12t-10 29t10 29t27 12h157z" />
    <glyph glyph-name="asciicircum" unicode="^" horiz-adv-x="429" 
d="M206 685l-87 -79q-8 -8 -20 -8q-14 0 -25 11t-11 27t15 27l124 72q4 3 12 3q9 0 13 -3l124 -72q15 -11 15 -27t-11 -27t-26 -11q-11 0 -19 8l-87 79q-5 3 -9 3q-5 0 -8 -3z" />
    <glyph glyph-name="underscore" unicode="_" horiz-adv-x="624" 
d="M556 -82h-488q-23 0 -32 20.5t0 41t32 20.5h488q23 0 32 -20.5t0 -41t-32 -20.5z" />
    <glyph glyph-name="grave" unicode="`" horiz-adv-x="251" 
d="M158 623q-30 8 -94 26q-44 13 -45 13l-2 1q-26 12 -13 44q14 31 40 21l129 -68q19 -10 11 -26q-7 -16 -26 -11z" />
    <glyph glyph-name="a" unicode="a" horiz-adv-x="706" 
d="M616 498v-459q0 -18 -12.5 -28.5t-30.5 -10.5q-26 0 -36 22q-8 14 -21 14q-6 0 -14 -5q-73 -50 -164 -50q-112 0 -195 75.5t-83 212.5t83 212t195 75q91 0 164 -50q8 -5 14 -5q14 0 21 15q10 21 36 21q18 0 30.5 -10.5t12.5 -28.5zM338 474q-82 0 -139 -52.5t-57 -152.5
q0 -101 57 -153.5t139 -52.5t139 52.5t57 153.5q0 100 -57 152.5t-139 52.5z" />
    <glyph glyph-name="b" unicode="b" horiz-adv-x="709" 
d="M191 500q5 0 13 5q73 50 164 50q112 0 195 -75.5t83 -212.5t-82.5 -212t-195.5 -75q-95 0 -164 50q-8 5 -15 5q-11 0 -22 -17q-10 -19 -36 -19q-18 0 -29.5 10.5t-11.5 27.5v737q0 16 12 24.5t29 8.5t29 -8.5t12 -24.5v-256q0 -18 19 -18zM368 62q82 0 139 52.5t57 152.5
q0 101 -57 153.5t-139 52.5t-139 -52.5t-57 -153.5q0 -100 57 -152.5t139 -52.5z" />
    <glyph glyph-name="c" unicode="c" horiz-adv-x="529" 
d="M61 268q0 125 77.5 206t201.5 81q69 0 121 -25q16 -9 19 -27t-8 -32.5t-29 -14.5q-9 0 -43 8.5t-60 8.5q-90 0 -143 -57t-53 -148t52.5 -148t143.5 -57q26 0 60 8.5t43 8.5q18 0 29 -14.5t8 -32.5t-19 -27q-44 -26 -121 -26q-124 0 -201.5 81.5t-77.5 206.5z" />
    <glyph glyph-name="d" unicode="d" horiz-adv-x="709" 
d="M518 500q18 0 18 18v256q0 16 12 24.5t29 8.5t29 -8.5t12 -24.5v-737q0 -17 -11.5 -27.5t-29.5 -10.5q-26 0 -36 19q-11 17 -22 17q-7 0 -15 -5q-69 -50 -164 -50q-113 0 -195.5 75t-82.5 212t83 212.5t195 75.5q91 0 164 -50q8 -5 14 -5zM340 62q82 0 139 52.5t57 152.5
q0 101 -57 153.5t-139 52.5t-139 -52.5t-57 -153.5q0 -100 57 -152.5t139 -52.5z" />
    <glyph glyph-name="e" unicode="e" horiz-adv-x="666" 
d="M620 266q0 -15 -9.5 -27t-25.5 -15l-416 -66q25 -49 71 -74t102 -25q46 0 87 18q35 14 50 -23q17 -36 -17 -52q-54 -25 -120 -25q-112 0 -195 75.5t-83 212.5t82.5 212t195.5 75q111 0 194.5 -75t83.5 -211zM160 240l364 58q12 2 10 16q-15 76 -68.5 116t-123.5 40
q-82 0 -139 -52.5t-57 -152.5v-14q1 -13 14 -11z" />
    <glyph glyph-name="f" unicode="f" horiz-adv-x="430" 
d="M108 41v391q0 14 -10 25q-10 10 -25 10h-22q-14 0 -25 10q-10 11 -10 25t10 25q11 10 25 10h24q15 0 26 12q9 12 12 29q17 109 100 173q75 57 173 57q17 0 29 -12t12 -29t-12 -29q-11 -12 -29 -12q-66 0 -117 -35q-49 -34 -72 -109q-5 -17 5 -30q10 -15 26 -15h118
q14 0 25 -10q10 -11 10 -25t-10 -25q-11 -10 -25 -10h-121q-14 0 -25 -10q-10 -11 -10 -25v-391q0 -17 -12 -29q-10 -12 -29 -12q-17 0 -29 12t-12 29z" />
    <glyph glyph-name="g" unicode="g" horiz-adv-x="708" 
d="M618 497v-480q0 -137 -83 -212t-195 -75q-66 0 -120 25q-15 7 -19.5 20.5t3.5 29.5q17 36 50 25q40 -18 86 -18q78 0 135 49.5t61 143.5v14q0 18 -18 18q-8 -1 -14 -5q-69 -50 -164 -50q-112 0 -195 75.5t-83 212.5t82.5 212t195.5 75q91 0 164 -50q8 -5 14 -5
q14 0 21 14q10 22 38 22q17 0 29 -10.5t12 -30.5zM340 475q-82 0 -139 -52.5t-57 -152.5q0 -101 57 -153.5t139 -52.5t139 52.5t57 153.5q0 100 -57 152.5t-139 52.5z" />
    <glyph glyph-name="h" unicode="h" horiz-adv-x="723" 
d="M172 774v-239q0 -10 7 -17t18 -7q9 0 13 4q68 45 158 45q112 0 195 -75t83 -212v-239q0 -16 -12 -25t-29 -9t-29 9t-12 25v239q0 100 -57 152.5t-139 52.5t-139 -52.5t-57 -152.5v-239q0 -16 -12 -25t-29 -9t-29 9t-12 25v740q0 16 12.5 25t28.5 9q17 0 29 -9t12 -25z
" />
    <glyph glyph-name="i" unicode="i" horiz-adv-x="307" 
d="M78 671q0 16 10.5 27.5t30.5 11.5t30.5 -11.5t10.5 -27.5t-10.5 -27.5t-30.5 -11.5t-30.5 11.5t-10.5 27.5zM79 231v271q0 16 12 26t29 10t29 -10t12 -26v-266q0 -50 26.5 -96.5t69.5 -76.5q18 -13 18 -31t-13.5 -30t-31.5 -12q-22 0 -53 30t-51 61q-46 72 -47 150z" />
    <glyph glyph-name="j" unicode="j" horiz-adv-x="262" 
d="M90 673q0 16 10.5 27.5t30.5 11.5t30.5 -11.5t10.5 -27.5t-10.5 -27.5t-30.5 -11.5t-30.5 11.5t-10.5 27.5zM172 502v-485q0 -137 -83 -212.5t-195 -75.5q-16 0 -25.5 12t-9.5 29t9.5 29t25.5 12q82 0 139 52.5t57 153.5v485q0 16 12 25.5t29 9.5t29 -9.5t12 -25.5z" />
    <glyph glyph-name="k" unicode="k" horiz-adv-x="704" 
d="M446 365q88 -24 144 -94.5t56 -182.5v-53q0 -16 -12 -25.5t-29 -9.5t-29 9.5t-12 25.5v53q0 100 -57 152.5t-139 52.5t-139 -52.5t-57 -152.5v-53q0 -16 -12 -25.5t-29 -9.5t-29 9.5t-12 25.5v738q0 17 11.5 26t29.5 9t29.5 -9t11.5 -26v-422q0 -25 25 -25q9 0 13 4
q38 26 84 36q16 5 24 17l112 160q9 14 26 14.5t31 -9.5q31 -21 10 -52l-64 -93q-5 -8 -5 -14q0 -19 18 -24z" />
    <glyph glyph-name="l" unicode="l" horiz-adv-x="428" 
d="M78 268v504q0 17 11.5 26t29.5 9t29.5 -9t11.5 -26v-504q0 -101 57 -153.5t139 -52.5q16 0 26 -12t10 -29t-10 -29t-26 -12q-112 0 -195 75.5t-83 212.5z" />
    <glyph glyph-name="m" unicode="m" horiz-adv-x="1197" 
d="M166 520q10 -19 23 -19q7 0 15 5q69 50 164 50q72 0 136 -32t101 -95q37 63 101 95t136 32q52 0 101 -18t89 -52t64 -90.5t24 -127.5v-233q0 -16 -12 -25.5t-29 -9.5t-29 9.5t-12 25.5v234q0 100 -57 152.5t-139 52.5t-139 -52.5t-57 -152.5v-234q0 -16 -12 -25.5
t-29 -9.5t-29 9.5t-12 25.5v233q0 101 -57 153.5t-139 52.5q-81 0 -138.5 -52.5t-57.5 -151.5v-235q0 -16 -12 -25.5t-29 -9.5t-29 9.5t-12 25.5v467q0 13 11.5 24t29.5 11q26 0 35 -17z" />
    <glyph glyph-name="n" unicode="n" horiz-adv-x="723" 
d="M169 515q8 -14 20 -14q7 0 15 5q73 50 164 50q113 0 195.5 -75t82.5 -212v-234q0 -16 -12 -25.5t-29 -9.5t-29 9.5t-12 25.5v233q0 101 -57 153.5t-139 52.5q-81 0 -138.5 -52.5t-57.5 -151.5v-235q0 -16 -12 -25.5t-29 -9.5t-29 9.5t-12 25.5v461q0 17 12.5 29t28.5 12
q28 0 38 -22z" />
    <glyph glyph-name="o" unicode="o" horiz-adv-x="676" 
d="M338 -20q-112 0 -195 75.5t-83 212.5t82.5 212t195.5 75q53 0 102 -18t89 -52t63.5 -90.5t23.5 -126.5q0 -137 -83 -212.5t-195 -75.5zM338 62q82 0 139 53t57 153t-57 152.5t-139 52.5t-139 -52.5t-57 -152.5t57.5 -153t138.5 -53z" />
    <glyph glyph-name="p" unicode="p" horiz-adv-x="709" 
d="M190 35q-18 0 -18 -18v-247q0 -16 -12 -24.5t-29 -8.5t-29 8.5t-12 24.5v728q0 17 11.5 27.5t29.5 10.5q26 0 36 -19q11 -17 22 -17q7 0 15 5q69 50 164 50q113 0 195.5 -75t82.5 -212t-83 -212.5t-195 -75.5q-91 0 -164 50q-8 5 -14 5zM368 473q-82 0 -139 -52.5
t-57 -152.5q0 -101 57 -153.5t139 -52.5t139 52.5t57 153.5q0 100 -57 152.5t-139 52.5z" />
    <glyph glyph-name="q" unicode="q" horiz-adv-x="709" 
d="M519 35q-6 0 -14 -5q-73 -50 -164 -50q-112 0 -195 75.5t-83 212.5t82.5 212t195.5 75q95 0 164 -50q8 -5 15 -5q11 0 22 17q10 19 36 19q18 0 29.5 -10.5t11.5 -27.5v-728q0 -16 -12 -24.5t-29 -8.5t-29 8.5t-12 24.5v247q0 18 -18 18zM341 473q-82 0 -139 -52.5
t-57 -152.5q0 -101 57 -153.5t139 -52.5t139 52.5t57 153.5q0 100 -57 152.5t-139 52.5z" />
    <glyph glyph-name="r" unicode="r" horiz-adv-x="524" 
d="M159 268v-233q0 -22 -20.5 -31t-41 0t-20.5 31v233q0 125 77 206.5t201 81.5q76 0 121 -26q26 -14 19 -44t-37 -30q-8 0 -42 9t-61 9q-90 0 -143 -57.5t-53 -148.5z" />
    <glyph glyph-name="s" unicode="s" horiz-adv-x="575" 
d="M293 554q47 0 90.5 -14t60.5 -25t24 -18q16 -15 12 -34q-3 -16 -16.5 -26t-28.5 -10q-9 0 -24 11q-48 35 -115 36q-50 0 -87.5 -16t-37.5 -48q0 -16 7.5 -27.5t17 -18t27.5 -12t27.5 -7t29.5 -3.5t23 -2q96 -11 152.5 -48.5t56.5 -118.5q0 -5 -2 -27q-9 -79 -72.5 -122.5
t-146.5 -43.5q-19 0 -28 1q-64 6 -124.5 42.5t-87.5 91.5q-9 21 4 41t34 20q9 0 17 -5t12.5 -10t12 -15t9.5 -13q51 -62 132 -70q7 -1 20 -1q50 0 90.5 24t46.5 69q0 2 0.5 6t0.5 6q0 21 -9 36.5t-21 25t-32.5 16t-35.5 9.5t-38 6q-129 12 -173 60q-33 36 -33 86q0 56 40 93
q63 55 165 55z" />
    <glyph glyph-name="t" unicode="t" horiz-adv-x="453" 
d="M195 431v-163q0 -100 57 -153t139 -53q16 0 26 -12t10 -29t-10 -29t-26 -12q-112 0 -195 75.5t-83 212.5v163q0 15 -10.5 25t-24.5 10h-34q-14 0 -21.5 10t-7.5 25t7.5 25t21.5 10h34q14 0 24.5 10.5t10.5 24.5v202q0 16 12 25.5t29 9.5t29 -9.5t12 -25.5v-202
q0 -14 10.5 -24.5t24.5 -10.5h123q14 0 22 -10t8 -25t-8 -25t-22 -10h-123q-14 0 -24.5 -10t-10.5 -25z" />
    <glyph glyph-name="u" unicode="u" horiz-adv-x="723" 
d="M553 21q-8 14 -21 14q-6 0 -14 -5q-69 -50 -164 -50q-113 0 -195.5 75t-82.5 212v234q0 16 12 25.5t29 9.5t29 -9.5t12 -25.5v-234q0 -100 57 -152.5t139 -52.5q81 0 138.5 52.5t57.5 151.5v235q0 16 12 25.5t29 9.5t29 -9.5t12 -25.5v-461q0 -17 -12.5 -29t-28.5 -12
q-28 0 -38 22z" />
    <glyph glyph-name="v" unicode="v" horiz-adv-x="537" 
d="M268 140l161 375q6 15 21.5 19.5t29.5 -2.5q16 -6 23 -20t1 -29l-199 -464q-9 -19 -37 -19q-29 0 -38 19l-197 466q-6 15 1 28.5t23 19.5q14 7 29.5 3t21.5 -19z" />
    <glyph glyph-name="w" unicode="w" horiz-adv-x="745" 
d="M273 131l62 146q9 20 38 20q32 0 39 -23l61 -143l163 386q6 15 21.5 19t30.5 -3q15 -6 22.5 -19.5t1.5 -28.5l-195 -460q-10 -25 -38 -25q-27 0 -38 27l-68 160l-68 -160q-13 -27 -39 -27q-28 0 -38 25l-195 460q-6 15 1 28.5t23 19.5q14 7 29.5 3t21.5 -19z" />
    <glyph glyph-name="x" unicode="x" horiz-adv-x="602" 
d="M230 285l-172 186q-24 24 5 53q13 12 27.5 13t26.5 -10l166 -179q8 -8 18 -8t18 8l166 179q12 11 27 10t27 -13t14.5 -26t-8.5 -27l-172 -186q-7 -7 -7 -16.5t7 -16.5l172 -186q11 -13 8.5 -27.5t-14.5 -26.5t-27 -13t-27 11l-166 179q-7 7 -18 7t-18 -7l-166 -179
q-12 -12 -27 -11t-27 13q-29 30 -5 54l172 186q16 16 0 33z" />
    <glyph glyph-name="y" unicode="y" horiz-adv-x="533" 
d="M268 145l157 371q5 12 21 17.5t30 -0.5q17 -8 23.5 -22t0.5 -27l-244 -576q-38 -90 -106 -135t-147 -45q-57 0 -115 24q-12 5 -17.5 19.5t0.5 31.5q7 17 20.5 23.5t28.5 1.5q44 -18 84 -18q121 0 177 130l36 84q6 16 0 32l-182 426q-13 34 24 50q38 16 52 -18z" />
    <glyph glyph-name="z" unicode="z" horiz-adv-x="577" 
d="M79 496q0 17 9.5 29t25.5 12h364q17 0 27 -10q14 -14 14 -31q0 -16 -11 -27l-318 -366q-5 -6 -2 -13.5t11 -7.5h302q16 0 26 -12t10 -29t-10 -29t-26 -12h-419q-17 0 -27 10q-13 11 -14 28t10 30l319 366q5 6 1.5 13.5t-11.5 7.5h-246q-16 0 -25.5 12t-9.5 29z" />
    <glyph glyph-name="braceleft" unicode="{" horiz-adv-x="430" 
d="M108 227h-25q-32 0 -32 41q0 42 32 42h25q11 0 11 11v133q0 127 78 205q44 44 83 60q8 5 18 5q17 0 28 -11.5t11 -27.5q0 -24 -22 -36q-32 -15 -69 -57q-44 -47 -44 -138v-372q0 -90 50 -146q29 -32 63 -49q22 -10 22 -35q0 -17 -11 -28t-28 -11q-9 0 -18 4
q-46 22 -86.5 63.5t-57.5 92.5q-17 54 -17 109v133q0 12 -11 12z" />
    <glyph glyph-name="bar" unicode="|" horiz-adv-x="430" 
d="M250 819v-852q0 -19 -17.5 -26.5t-35 0t-17.5 26.5v852q0 19 17.5 26.5t35 0t17.5 -26.5z" />
    <glyph glyph-name="braceright" unicode="}" horiz-adv-x="430" 
d="M345 227h-25q-11 0 -11 -12v-133q0 -127 -77 -203q-41 -43 -84 -62q-9 -4 -18 -4q-17 0 -28 11t-11 28q0 25 22 35q34 16 63 49.5t39 68.5q11 39 11 77v372q0 91 -44 138q-37 42 -69 57q-22 12 -22 36q0 16 11 27.5t28 11.5q10 0 18 -5q39 -16 83 -60q43 -43 60 -96
q18 -53 18 -109v-133q0 -11 11 -11h25q32 0 32 -42q0 -41 -32 -41z" />
    <glyph glyph-name="asciitilde" unicode="~" horiz-adv-x="403" 
d="M220 4l-69 39q-11 6 -19 6q-29 0 -34 -32q-4 -26 -35 -25.5t-31 27.5q0 39 30.5 67t69.5 28q29 0 51 -13l69 -39q10 -6 19 -6q29 0 34 32q5 26 34 26q14 0 23 -7.5t9 -20.5q0 -39 -30.5 -67t-69.5 -28q-29 0 -51 13z" />
    <glyph glyph-name="exclamdown" unicode="&#xa1;" horiz-adv-x="262" 
d="M90 507q0 17 12 28t29 11t29 -11t12 -28t-12 -28t-29 -11t-29 11t-12 28zM166 276v-509q0 -14 -10 -21.5t-25 -7.5t-25 7.5t-10 21.5v509q0 14 10 22t25 8t25 -8t10 -22z" />
    <glyph glyph-name="cent" unicode="&#xa2;" horiz-adv-x="505" 
d="M289 549v32q0 12 10 19.5t23 7.5t22.5 -7.5t9.5 -19.5v-31q0 -7 10 -10q39 -4 76 -22q25 -12 18.5 -41t-35.5 -29q-7 0 -39.5 8t-57.5 8q-86 0 -136 -54t-50 -140q0 -87 50 -140.5t136 -53.5q25 0 57.5 7t39.5 7q30 0 35 -27t-18 -42q-27 -16 -76 -21q-10 0 -10 -11v-32
q0 -13 -9.5 -20.5t-22.5 -7.5t-23 7.5t-10 20.5v34q0 9 -9 10q-100 16 -159 89t-59 180q0 105 60 181t158 88q9 3 9 10z" />
    <glyph glyph-name="sterling" unicode="&#xa3;" horiz-adv-x="468" 
d="M405 57q-57 -57 -146 -57h-186q-26 0 -26 32t26 32h66q42 0 70.5 28t28.5 68q0 50 -43 86q-10 7 -23 7h-99q-27 0 -27 32q0 28 27 32h25q3 0 3 3q-22 35 -22 80v10q4 62 48.5 104.5t106.5 42.5h9q45 0 81.5 -26t53.5 -68q2 -8 2 -10q2 -11 -8.5 -20.5t-25 -9t-24.5 16.5
q-29 57 -82 57h-4q-37 0 -65 -25t-30 -64q0 -54 18 -73q19 -18 34 -18h143q29 -4 28 -32t-28 -32h-59q-2 0 -2 -3q23 -44 23 -84q0 -55 -33 -97q-1 -1 -1 -3t4 -2q52 0 89 33q11 10 37 43q14 19 27 17q28 -5 28 -24q0 -28 -44 -76z" />
    <glyph glyph-name="currency" unicode="&#xa4;" horiz-adv-x="682" 
d="M342 473q-83 0 -139.5 -51.5t-56.5 -153.5t56.5 -153.5t139.5 -51.5q82 0 138.5 52t56.5 153t-56.5 153t-138.5 52zM109 454l-38 40q-8 7 -7 16.5t9 16.5q17 17 32 2l37 -36q9 -8 17 0q76 63 183 63q101 0 170 -56q11 -6 17 1l28 28q19 15 33 -2q8 -7 9 -16.5t-7 -16.5
l-27 -29q-9 -6 -2 -16q56 -72 56 -181q0 -108 -56 -183q-7 -7 2 -14l27 -29q8 -7 7 -16.5t-9 -16.5q-14 -17 -33 -2l-28 28q-7 7 -17 1q-69 -56 -170 -56q-107 0 -182 63q-9 7 -18 0l-37 -36q-15 -15 -32 2q-8 7 -9 16.5t7 16.5l38 38q9 10 2 17q-48 67 -48 171t48 171
q6 7 -2 15z" />
    <glyph glyph-name="yen" unicode="&#xa5;" horiz-adv-x="453" 
d="M259 177v-161q0 -28 -34 -28q-13 0 -23 7.5t-10 20.5v165q0 6 -4 11q-4 4 -7 12q-1 4 -5 4h-100q-18 0 -18 25t18 25h67q5 0 8 4t1 9l-14 35q-1 7 -9 7h-53q-18 0 -18 23q0 25 18 25h22q5 0 8 5t1 10l-58 133q-3 6 -3 14q0 15 9.5 24.5t24.5 9.5q21 0 30 -19l108 -250
q3 -7 9 -7q5 0 8 7l106 249q8 20 30 20q14 0 24 -9.5t10 -24.5q0 -9 -4 -14l-56 -133q-2 -5 1 -10t8 -5h20q20 0 20 -25q0 -23 -20 -23h-49q-9 0 -10 -7l-14 -35q-2 -5 1 -9t8 -4h64q20 0 20 -25t-20 -25h-96q-5 0 -6 -4q-1 -2 -4 -6.5t-4 -6.5q-5 -8 -5 -14z" />
    <glyph glyph-name="brokenbar" unicode="&#xa6;" horiz-adv-x="250" 
d="M160 759v-415q0 -14 -10 -22t-25 -8t-25 8t-10 22v415q0 14 10 22t25 8q14 0 24.5 -8t10.5 -22zM160 184v-415q0 -14 -10 -22t-25 -8t-25 8t-10 22v415q0 14 10 22t25 8t25 -8t10 -22z" />
    <glyph glyph-name="section" unicode="&#xa7;" horiz-adv-x="378" 
d="M189 497q-15 0 -26 -10.5t-11 -25.5t10 -26t23 -11q68 0 114.5 -45.5t46.5 -112.5q0 -42 -22 -78.5t-59 -57.5q18 -24 18 -56q0 -39 -27.5 -66.5t-67.5 -27.5q-55 0 -82 49q-8 15 1.5 28t24.5 13.5t24 -12.5q11 -20 32 -20q16 0 27 10.5t11 25.5t-9.5 25.5t-23.5 11.5
q-47 0 -82 21q-36 21 -57.5 57.5t-21.5 78.5q0 43 22 79t59 58q-19 26 -19 56q0 39 28 66.5t67 27.5q56 0 83 -49q8 -14 -1.5 -27.5t-24.5 -14t-25 12.5q-11 20 -32 20zM106 267q0 -35 23.5 -58.5t58.5 -23.5t59 23.5t24 58.5t-24 59t-59 24t-58.5 -24t-23.5 -59z" />
    <glyph glyph-name="dieresis" unicode="&#xa8;" horiz-adv-x="242" 
d="M0 677q0 16 10.5 27.5t30.5 11.5t30.5 -11.5t10.5 -27.5t-10.5 -27.5t-30.5 -11.5t-30.5 11.5t-10.5 27.5zM160 677q0 16 10.5 27.5t30.5 11.5t30.5 -11.5t10.5 -27.5t-10.5 -27.5t-30.5 -11.5t-30.5 11.5t-10.5 27.5z" />
    <glyph glyph-name="copyright" unicode="&#xa9;" horiz-adv-x="738" 
d="M368 31q94 0 161.5 61.5t67.5 176.5t-67.5 176t-161.5 61q-92 0 -159.5 -61.5t-67.5 -175.5q0 -115 68 -176.5t159 -61.5zM90 269q0 136 83.5 212t194.5 76q113 0 196.5 -76t83.5 -212q0 -139 -83 -214t-197 -75q-71 0 -132.5 30t-103.5 97.5t-42 161.5zM209 268
q0 74 46.5 123t120.5 49q40 0 72 -15q16 -10 11 -27.5t-22 -17.5q-5 0 -25.5 6t-35.5 6q-55 0 -86 -34.5t-31 -89.5t31 -89t86 -34q15 0 35.5 6t25.5 6q18 0 22.5 -18.5t-11.5 -26.5q-28 -16 -72 -16q-74 0 -120.5 49t-46.5 123z" />
    <glyph glyph-name="ordfeminine" unicode="&#xaa;" horiz-adv-x="341" 
d="M278 527v-229q0 -20 -22 -20q-12 0 -18 11q-3 7 -10 7q-3 0 -7 -2q-37 -26 -82 -26q-56 0 -97.5 38t-41.5 107q0 68 41.5 105.5t97.5 37.5q47 0 82 -25q4 -2 7 -2q6 0 10 7q6 11 18 11q22 0 22 -20zM139 515q-41 0 -69.5 -26t-28.5 -76q0 -51 28.5 -77t69.5 -26t69.5 26
t28.5 77q0 50 -28.5 76t-69.5 26z" />
    <glyph glyph-name="guillemotleft" unicode="&#xab;" horiz-adv-x="361" 
d="M115 386l-53 -104q-10 -16 0 -32l53 -104q14 -30 -20 -43q-14 -6 -27.5 -1.5t-17.5 18.5l-38 139q-1 7 0 14l38 138q4 14 17.5 19t27.5 -1q34 -13 20 -43zM258 386l-53 -104q-10 -16 0 -32l53 -104q14 -30 -20 -43q-14 -6 -27.5 -1.5t-17.5 18.5l-38 139q-1 7 0 14
l38 138q4 14 17.5 19t27.5 -1q34 -13 20 -43z" />
    <glyph glyph-name="logicalnot" unicode="&#xac;" horiz-adv-x="777" 
d="M605 231h-485q-14 0 -22 10t-8 25t8 25t22 10h532q14 0 24.5 -10.5t10.5 -24.5v-192q0 -14 -10 -22t-25 -8t-25 8t-10 22v144q0 13 -12 13z" />
    <glyph glyph-name="uni00AD" unicode="&#xad;" horiz-adv-x="436" 
d="M336 226h-237q-16 0 -26 12t-10 29q0 18 9.5 29.5t26.5 11.5h237q17 0 26 -11.5t9 -29.5q0 -17 -9.5 -29t-25.5 -12z" />
    <glyph glyph-name="registered" unicode="&#xae;" horiz-adv-x="554" 
d="M261 301q93 0 159 61t66 176q0 112 -66.5 173t-158.5 61q-93 0 -160 -61t-67 -173q0 -115 67 -176t160 -61zM0 538q0 127 77 197.5t184 70.5q103 2 182.5 -70t78.5 -198q1 -130 -78 -201t-183 -70q-106 0 -183.5 70.5t-77.5 200.5zM198 508h65q40 0 62 23.5t22 56.5
q0 32 -22 56.5t-62 24.5h-65q-13 0 -13 -11v-141q0 -9 13 -9zM171 701h92q57 0 87 -33.5t30 -79.5q0 -64 -52 -97q52 -29 52 -100q0 -6 -5.5 -10.5t-11.5 -4.5q-16 0 -16 15q0 41 -23 62t-57 21h-69q-13 0 -13 -10v-73q0 -15 -14 -15q-6 0 -11.5 4.5t-5.5 10.5v295
q0 15 17 15z" />
    <glyph glyph-name="macron" unicode="&#xaf;" horiz-adv-x="407" 
d="M46 671q0 15 8 25t22 10h255q19 0 26.5 -17.5t0 -35t-26.5 -17.5h-255q-14 0 -22 10t-8 25z" />
    <glyph glyph-name="degree" unicode="&#xb0;" horiz-adv-x="310" 
d="M139 393q-56 0 -97.5 37.5t-41.5 106.5q0 68 41 105.5t98 37.5t98 -37.5t41 -105.5q0 -69 -41.5 -106.5t-97.5 -37.5zM139 434q41 0 69.5 26.5t28.5 76.5t-28.5 76t-69.5 26t-69.5 -26t-28.5 -76t29 -76.5t69 -26.5z" />
    <glyph glyph-name="plusminus" unicode="&#xb1;" horiz-adv-x="508" 
d="M90 24q0 25 20 25h288q20 0 20 -25q0 -24 -20 -24h-288q-20 0 -20 24zM253 114q-24 0 -24 20v92q0 12 -8 20t-20 8h-91q-20 0 -20 24t20 24h91q12 0 20 8t8 20v92q0 19 24 19t24 -19v-92q0 -12 8.5 -20t19.5 -8h91q20 0 20 -24t-20 -24h-91q-11 0 -19.5 -8t-8.5 -20v-92
q0 -20 -24 -20z" />
    <glyph glyph-name="twosuperior" unicode="&#xb2;" horiz-adv-x="264" 
d="M73 505h48q33 0 51.5 18.5t18.5 43.5q0 34 -21 52t-49 18q-40 0 -65 -42q-12 -17 -31 -7q-12 10 -7 23q10 28 39.5 47.5t63.5 19.5q48 0 79.5 -31.5t31.5 -79.5q0 -44 -31.5 -73.5t-79.5 -29.5h-49q-6 0 -10 -4.5t-4 -10.5t4.5 -11t10.5 -5h138q19 0 19 -21
q0 -20 -19 -20h-138q-23 0 -39.5 16.5t-16.5 40.5q0 23 16.5 39.5t39.5 16.5z" />
    <glyph glyph-name="threesuperior" unicode="&#xb3;" horiz-adv-x="222" 
d="M163 569v-2q27 -31 27 -70q0 -42 -29.5 -73.5t-75.5 -31.5q-36 0 -61 19q-8 8 -8 17q0 6 6 13t14 7q4 0 19 -7.5t30 -7.5q26 0 45 18t19 45q0 51 -54 62q-5 0 -5 6t5 6q15 0 25 10t10 25q0 14 -10.5 24t-24.5 10q-6 0 -14.5 -3t-12.5 -3q-19 0 -19 20q0 13 9 18
q16 9 37 9q32 0 54 -23t22 -54q0 -16 -8 -34z" />
    <glyph glyph-name="acute" unicode="&#xb4;" horiz-adv-x="369" 
d="M212 623q-19 -5 -26 11q-8 16 11 26l129 68q26 10 40 -21q13 -32 -13 -44q-1 0 -3 -1q-1 -1 -44 -13q-64 -18 -94 -26z" />
    <glyph glyph-name="mu" unicode="&#xb5;" horiz-adv-x="736" 
d="M567 23q-8 14 -21 14q-6 0 -14 -5q-69 -50 -164 -50q-117 0 -196 76v-286q0 -16 -12 -25.5t-29 -9.5t-29 9.5t-12 25.5v731q0 16 12 25.5t29 9.5t29 -9.5t12 -25.5v-234q0 -100 57 -152.5t139 -52.5q81 0 138.5 52.5t57.5 151.5v235q0 16 12 25.5t29 9.5t29 -9.5
t12 -25.5v-461q0 -17 -12.5 -29t-28.5 -12q-28 0 -38 22z" />
    <glyph glyph-name="paragraph" unicode="&#xb6;" horiz-adv-x="564" 
d="M433 730q9 -22 9 -40v-591q0 -42 -28 -70.5t-70 -28.5t-69.5 28.5t-27.5 70.5v332q0 5 -4 5q-74 0 -127 51t-53 125t54 125t130 51h230q15 0 21.5 -13t0 -26t-21.5 -13h-43q-2 -2 -1 -6zM386 99v591q0 18 -12 30.5t-30 12.5t-30 -12.5t-12 -30.5v-591q0 -18 12 -31
t30 -13t30 13t12 31z" />
    <glyph glyph-name="periodcentered" unicode="&#xb7;" horiz-adv-x="262" 
d="M148 266q0 16 10.5 27.5t30.5 11.5t30.5 -11.5t10.5 -27.5t-10.5 -27.5t-30.5 -11.5t-30.5 11.5t-10.5 27.5z" />
    <glyph glyph-name="cedilla" unicode="&#xb8;" horiz-adv-x="292" 
d="M174 32v-81q0 -7 9 -12q46 -24 46 -75q0 -34 -25 -59.5t-62 -25.5q-25 0 -52 17t-27 42q2 12 10.5 20.5t18.5 8.5q12 0 25 -15t25 -13q24 1 27 25q1 11 -7.5 18t-19.5 10t-20.5 11.5t-9.5 21.5v107q0 13 9 22t22 9t22 -9t9 -22z" />
    <glyph glyph-name="onesuperior" unicode="&#xb9;" horiz-adv-x="164" 
d="M132 655v-250q0 -17 -21 -17q-20 0 -20 17v208q0 7 -7 5q-24 -8 -47 -8q-18 0 -18 21q0 20 18 20q37 0 61 20q5 4 13 4q9 0 15 -6t6 -14z" />
    <glyph glyph-name="ordmasculine" unicode="&#xba;" horiz-adv-x="342" 
d="M171 270q-56 0 -97.5 37.5t-41.5 106.5q0 68 41 105.5t98 37.5t98 -37.5t41 -105.5q0 -69 -41.5 -106.5t-97.5 -37.5zM171 311q41 0 69.5 26.5t28.5 76.5t-28.5 76t-69.5 26t-69.5 -26t-28.5 -76t29 -76.5t69 -26.5z" />
    <glyph glyph-name="guillemotright" unicode="&#xbb;" horiz-adv-x="359" 
d="M150 282l-53 104q-14 30 20 43q14 6 27.5 1t17.5 -19l38 -138q1 -7 0 -14l-38 -139q-4 -14 -17.5 -18.5t-27.5 1.5q-34 13 -20 43l53 104q10 16 0 32zM291 282l-53 104q-14 30 20 43q14 6 27.5 1t17.5 -19l38 -138q1 -7 0 -14l-38 -139q-4 -14 -17.5 -18.5t-27.5 1.5
q-34 13 -20 43l53 104q10 16 0 32z" />
    <glyph glyph-name="onequarter" unicode="&#xbc;" horiz-adv-x="508" 
d="M133 128l142 336q7 14 22 6q16 -6 10 -20l-142 -335q-5 -13 -22 -7q-15 8 -10 20zM279 74h77q8 0 8 9v56q0 17 21 17q20 0 20 -17v-56q0 -9 9 -9h10q18 0 18 -20q0 -21 -18 -21h-10q-9 0 -9 -8v-16q0 -18 -20 -18q-21 0 -21 18v16q0 8 -8 8h-124q-10 0 -17 10t0 22
l134 206q9 15 27 4q16 -12 7 -26l-108 -167q-2 -2 -0.5 -5t4.5 -3zM116 515v-250q0 -18 -20 -18q-21 0 -21 18v208q0 7 -7 5q-24 -8 -47 -8q-18 0 -18 21q0 20 18 20q36 0 62 20q4 4 13 4q8 0 14 -6t6 -14z" />
    <glyph glyph-name="onehalf" unicode="&#xbd;" horiz-adv-x="502" 
d="M116 515v-250q0 -18 -20 -18q-21 0 -21 18v208q0 7 -7 5q-24 -8 -47 -8q-18 0 -18 21q0 20 18 20q36 0 62 20q4 4 13 4q8 0 14 -6t6 -14zM116 129l142 335q7 14 22 6q16 -6 10 -20l-142 -335q-6 -14 -22 -6q-16 6 -10 20zM280 114h48q33 0 51.5 18.5t18.5 43.5
q0 34 -21 52t-49 18q-39 0 -65 -42q-12 -18 -31 -7q-12 8 -7 23q10 28 39.5 47.5t63.5 19.5q48 0 79.5 -31.5t31.5 -79.5q0 -44 -31.5 -73.5t-79.5 -29.5h-49q-6 0 -10 -5t-4 -11t4.5 -11t10.5 -5h138q19 0 19 -20q0 -21 -19 -21h-138q-23 0 -39.5 17t-16.5 40t16.5 40
t39.5 17z" />
    <glyph glyph-name="threequarters" unicode="&#xbe;" horiz-adv-x="552" 
d="M177 129l142 335q7 14 22 6q16 -6 10 -20l-142 -335q-6 -14 -22 -6q-16 6 -10 20zM148 444q0 -2 1 -2q27 -30 27 -70q0 -42 -30 -74t-76 -32q-38 0 -61 20q-9 6 -9 16q0 6 6 13.5t15 7.5q4 0 19 -8t30 -8q27 0 46 18t19 45q0 51 -55 63q-5 0 -5 6t5 6q15 0 25.5 10
t10.5 25t-10.5 25t-25.5 10q-6 0 -14.5 -3.5t-12.5 -3.5q-19 0 -19 21q0 12 9 18q16 9 37 9q33 0 55 -23t22 -54q0 -19 -9 -35zM323 74h77q8 0 8 9v56q0 17 21 17q20 0 20 -17v-56q0 -9 9 -9h10q18 0 18 -20q0 -21 -18 -21h-10q-9 0 -9 -8v-16q0 -18 -20 -18q-21 0 -21 18
v16q0 8 -8 8h-124q-10 0 -17 10t0 22l134 206q9 15 27 4q16 -12 7 -26l-108 -167q-2 -2 -0.5 -5t4.5 -3z" />
    <glyph glyph-name="questiondown" unicode="&#xbf;" horiz-adv-x="533" 
d="M255 767q0 16 10.5 27.5t30.5 11.5t30.5 -11.5t10.5 -27.5t-10.5 -27.5t-30.5 -11.5t-30.5 11.5t-10.5 27.5zM296 61q16 0 25.5 -12t9.5 -29t-9.5 -29t-25.5 -12q-92 0 -155.5 66.5t-63.5 161.5v103q0 79 45 139t116 81q17 5 17 21v80q0 16 12 25.5t29 9.5t29 -9.5
t12 -25.5v-134q0 -17 -12 -29t-29 -12q-57 0 -97 -42t-40 -104v-103q0 -62 40.5 -104t96.5 -42z" />
    <glyph glyph-name="Agrave" unicode="&#xc0;" 
d="M159 331v-296q0 -16 -12 -25.5t-29 -9.5t-29 9.5t-12 25.5v486q0 137 83 212t195 75q113 0 195.5 -75t82.5 -212v-486q0 -16 -12 -25.5t-29 -9.5t-29 9.5t-12 25.5v296q0 25 -25 25h-343q-10 0 -17 -7t-7 -18zM551 462v57q0 103 -57 155t-139 52t-139 -52.5t-57 -152.5
v-59q0 -10 7 -17t17 -7h343q11 0 18 7t7 17zM354 850q-30 8 -94 26q-44 13 -45 13l-2 1q-26 12 -13 44q14 31 40 21l129 -68q19 -10 11 -26q-7 -16 -26 -11z" />
    <glyph glyph-name="Aacute" unicode="&#xc1;" 
d="M159 331v-296q0 -16 -12 -25.5t-29 -9.5t-29 9.5t-12 25.5v486q0 137 83 212t195 75q113 0 195.5 -75t82.5 -212v-486q0 -16 -12 -25.5t-29 -9.5t-29 9.5t-12 25.5v296q0 25 -25 25h-343q-10 0 -17 -7t-7 -18zM551 462v57q0 103 -57 155t-139 52t-139 -52.5t-57 -152.5
v-59q0 -10 7 -17t17 -7h343q11 0 18 7t7 17zM373 849q-19 -5 -26 11q-8 16 11 26l129 68q26 10 40 -21q13 -32 -13 -44q-1 0 -3 -1q-1 -1 -44 -13q-64 -18 -94 -26z" />
    <glyph glyph-name="Acircumflex" unicode="&#xc2;" 
d="M159 331v-296q0 -16 -12 -25.5t-29 -9.5t-29 9.5t-12 25.5v486q0 137 83 212t195 75q113 0 195.5 -75t82.5 -212v-486q0 -16 -12 -25.5t-29 -9.5t-29 9.5t-12 25.5v296q0 25 -25 25h-343q-10 0 -17 -7t-7 -18zM551 462v57q0 103 -57 155t-139 52t-139 -52.5t-57 -152.5
v-59q0 -10 7 -17t17 -7h343q11 0 18 7t7 17zM460 852q-44 27 -104 27q-57 0 -105 -27q-5 -3 -12 -3q-25 0 -25 25q0 11 9 20q62 55 133 55q62 0 132 -55q10 -7 10 -20q0 -25 -25 -25q-7 0 -13 3z" />
    <glyph glyph-name="Atilde" unicode="&#xc3;" 
d="M159 331v-296q0 -16 -12 -25.5t-29 -9.5t-29 9.5t-12 25.5v486q0 137 83 212t195 75q113 0 195.5 -75t82.5 -212v-486q0 -16 -12 -25.5t-29 -9.5t-29 9.5t-12 25.5v296q0 25 -25 25h-343q-10 0 -17 -7t-7 -18zM551 462v57q0 103 -57 155t-139 52t-139 -52.5t-57 -152.5
v-59q0 -10 7 -17t17 -7h343q11 0 18 7t7 17zM374 864l-69 39q-10 6 -19 6q-29 0 -34 -32q-4 -26 -35 -25.5t-31 27.5q0 39 30.5 67t69.5 28q29 0 51 -13l69 -39q10 -6 19 -6q29 0 34 32q5 26 34 26q14 0 23 -7.5t9 -20.5q0 -39 -30.5 -67t-69.5 -28q-29 0 -51 13z" />
    <glyph glyph-name="Adieresis" unicode="&#xc4;" 
d="M159 331v-296q0 -16 -12 -25.5t-29 -9.5t-29 9.5t-12 25.5v486q0 137 83 212t195 75q113 0 195.5 -75t82.5 -212v-486q0 -16 -12 -25.5t-29 -9.5t-29 9.5t-12 25.5v296q0 25 -25 25h-343q-10 0 -17 -7t-7 -18zM551 462v57q0 103 -57 155t-139 52t-139 -52.5t-57 -152.5
v-59q0 -10 7 -17t17 -7h343q11 0 18 7t7 17zM234 898q0 16 10.5 27.5t30.5 11.5t30.5 -11.5t10.5 -27.5t-10.5 -27.5t-30.5 -11.5t-30.5 11.5t-10.5 27.5zM394 898q0 16 10.5 27.5t30.5 11.5t30.5 -11.5t10.5 -27.5t-10.5 -27.5t-30.5 -11.5t-30.5 11.5t-10.5 27.5z" />
    <glyph glyph-name="Aring" unicode="&#xc5;" 
d="M159 331v-296q0 -16 -12 -25.5t-29 -9.5t-29 9.5t-12 25.5v486q0 137 83 212t195 75q113 0 195.5 -75t82.5 -212v-486q0 -16 -12 -25.5t-29 -9.5t-29 9.5t-12 25.5v296q0 25 -25 25h-343q-10 0 -17 -7t-7 -18zM551 462v57q0 103 -57 155t-139 52t-139 -52.5t-57 -152.5
v-59q0 -10 7 -17t17 -7h343q11 0 18 7t7 17zM354 879q-43 0 -68 27t-25 63t25 63t68 27q45 0 69.5 -27t24.5 -63t-24.5 -63t-69.5 -27zM288 969q0 -26 16.5 -44.5t49.5 -18.5t50.5 18.5t17.5 44.5t-17.5 44.5t-50.5 18.5t-49.5 -18.5t-16.5 -44.5z" />
    <glyph glyph-name="AE" unicode="&#xc6;" horiz-adv-x="1020" 
d="M160 331v-296q0 -16 -12 -25.5t-29 -9.5t-29 9.5t-12 25.5v485q0 137 83 212.5t195 75.5q72 0 136 -33t102 -95q36 61 96.5 94.5t139.5 33.5q76 0 121 -26q25 -14 15 -43t-33 -31q-9 0 -43 9t-60 9q-90 0 -143 -57.5t-53 -147.5v-45q0 -15 10.5 -25.5t25.5 -10.5h116
q16 0 25.5 -12t9.5 -29t-9.5 -29t-25.5 -12h-116q-15 0 -25.5 -11t-10.5 -29v-38q0 -90 53 -147.5t143 -57.5q26 0 60 9t43 9q23 -2 33 -31t-15 -43q-45 -26 -121 -26q-119 0 -196 77v-35q0 -16 -12 -25.5t-29 -9.5t-29 9.5t-12 25.5v296q0 10 -7 17t-18 7h-343
q-10 0 -17 -7t-7 -17zM552 462v57q0 102 -57 154.5t-139 52.5t-139 -52.5t-57 -152.5v-59q0 -11 7 -18t17 -7h343q25 0 25 25z" />
    <glyph glyph-name="Ccedilla" unicode="&#xc7;" horiz-adv-x="528" 
d="M62 268v252q0 125 77 206t202 81q69 0 121 -25q16 -9 19 -27t-8 -32.5t-29 -14.5q-9 0 -43 8.5t-60 8.5q-90 0 -143 -57t-53 -148v-252q0 -91 53 -148t143 -57q26 0 60 8.5t43 8.5q18 0 29 -14.5t8 -32.5t-19 -27q-35 -20 -92 -24l-12 -1v-33q0 -8 9 -12q46 -24 46 -75
q0 -34 -25 -59.5t-62 -25.5q-25 0 -52 17t-27 42q2 12 10.5 20.5t18.5 8.5q12 0 25 -15t25 -13q24 1 27 25q1 11 -7.5 18t-19.5 10t-20.5 11.5t-9.5 21.5v61q-33 4 -70 19q-76 33 -120 103.5t-44 162.5z" />
    <glyph glyph-name="Egrave" unicode="&#xc8;" horiz-adv-x="532" 
d="M160 516v-44q0 -15 10.5 -25.5t25.5 -10.5h66q16 0 25.5 -12t9.5 -29t-9.5 -29t-25.5 -12h-66q-15 0 -25.5 -11t-10.5 -29v-37q0 -91 53 -148.5t143 -57.5q25 0 59 9t44 9q23 -2 33 -31t-15 -43q-45 -26 -121 -26q-124 0 -201 81.5t-77 206.5v239q0 125 77 206.5
t201 81.5q76 0 121 -26q25 -14 15 -43t-33 -31q-10 0 -44 9t-59 9q-90 0 -143 -57.5t-53 -148.5zM307 850q-30 8 -94 26q-44 13 -45 13l-2 1q-26 12 -13 44q14 31 40 21l129 -68q19 -10 11 -26q-7 -16 -26 -11z" />
    <glyph glyph-name="Eacute" unicode="&#xc9;" horiz-adv-x="532" 
d="M160 516v-44q0 -15 10.5 -25.5t25.5 -10.5h66q16 0 25.5 -12t9.5 -29t-9.5 -29t-25.5 -12h-66q-15 0 -25.5 -11t-10.5 -29v-37q0 -91 53 -148.5t143 -57.5q25 0 59 9t44 9q23 -2 33 -31t-15 -43q-45 -26 -121 -26q-124 0 -201 81.5t-77 206.5v239q0 125 77 206.5
t201 81.5q76 0 121 -26q25 -14 15 -43t-33 -31q-10 0 -44 9t-59 9q-90 0 -143 -57.5t-53 -148.5zM342 849q-19 -5 -26 11q-8 16 11 26l129 68q26 10 40 -21q13 -32 -13 -44q-1 0 -3 -1q-1 -1 -44 -13q-64 -18 -94 -26z" />
    <glyph glyph-name="Ecircumflex" unicode="&#xca;" horiz-adv-x="532" 
d="M160 516v-44q0 -15 10.5 -25.5t25.5 -10.5h66q16 0 25.5 -12t9.5 -29t-9.5 -29t-25.5 -12h-66q-15 0 -25.5 -11t-10.5 -29v-37q0 -91 53 -148.5t143 -57.5q25 0 59 9t44 9q23 -2 33 -31t-15 -43q-45 -26 -121 -26q-124 0 -201 81.5t-77 206.5v239q0 125 77 206.5
t201 81.5q76 0 121 -26q25 -14 15 -43t-33 -31q-10 0 -44 9t-59 9q-90 0 -143 -57.5t-53 -148.5zM451 851q-44 27 -104 27q-57 0 -105 -27q-4 -3 -12 -3q-25 0 -25 25q0 11 9 20q62 55 133 55q62 0 132 -55q10 -7 10 -20q0 -25 -25 -25q-7 0 -13 3z" />
    <glyph glyph-name="Edieresis" unicode="&#xcb;" horiz-adv-x="532" 
d="M160 516v-44q0 -15 10.5 -25.5t25.5 -10.5h66q16 0 25.5 -12t9.5 -29t-9.5 -29t-25.5 -12h-66q-15 0 -25.5 -11t-10.5 -29v-37q0 -91 53 -148.5t143 -57.5q25 0 59 9t44 9q23 -2 33 -31t-15 -43q-45 -26 -121 -26q-124 0 -201 81.5t-77 206.5v239q0 125 77 206.5
t201 81.5q76 0 121 -26q25 -14 15 -43t-33 -31q-10 0 -44 9t-59 9q-90 0 -143 -57.5t-53 -148.5zM215 899q0 16 10.5 27.5t30.5 11.5t30.5 -11.5t10.5 -27.5t-10.5 -27.5t-30.5 -11.5t-30.5 11.5t-10.5 27.5zM375 899q0 16 10.5 27.5t30.5 11.5t30.5 -11.5t10.5 -27.5
t-10.5 -27.5t-30.5 -11.5t-30.5 11.5t-10.5 27.5z" />
    <glyph glyph-name="Igrave" unicode="&#xcc;" horiz-adv-x="262" 
d="M90 35v727q0 16 12 25.5t29 9.5t29 -9.5t12 -25.5v-727q0 -16 -12 -25.5t-29 -9.5t-29 9.5t-12 25.5zM114 850q-30 8 -94 26q-44 13 -45 13l-2 1q-26 12 -13 44q14 31 40 21l129 -68q19 -10 11 -26q-7 -16 -26 -11z" />
    <glyph glyph-name="Iacute" unicode="&#xcd;" horiz-adv-x="262" 
d="M90 35v727q0 16 12 25.5t29 9.5t29 -9.5t12 -25.5v-727q0 -16 -12 -25.5t-29 -9.5t-29 9.5t-12 25.5zM130 849q-19 -5 -26 11q-8 16 11 26l129 68q26 10 40 -21q13 -32 -13 -44q-1 0 -3 -1q-1 -1 -44 -13q-64 -18 -94 -26z" />
    <glyph glyph-name="Icircumflex" unicode="&#xce;" horiz-adv-x="262" 
d="M90 35v727q0 16 12 25.5t29 9.5t29 -9.5t12 -25.5v-727q0 -16 -12 -25.5t-29 -9.5t-29 9.5t-12 25.5zM234 852q-44 27 -104 27q-57 0 -105 -27q-5 -3 -12 -3q-25 0 -25 25q0 11 9 20q62 55 133 55q62 0 132 -55q10 -7 10 -20q0 -25 -25 -25q-7 0 -13 3z" />
    <glyph glyph-name="Idieresis" unicode="&#xcf;" horiz-adv-x="262" 
d="M90 35v727q0 16 12 25.5t29 9.5t29 -9.5t12 -25.5v-727q0 -16 -12 -25.5t-29 -9.5t-29 9.5t-12 25.5zM10 898q0 16 10.5 27.5t30.5 11.5t30.5 -11.5t10.5 -27.5t-10.5 -27.5t-30.5 -11.5t-30.5 11.5t-10.5 27.5zM170 898q0 16 10.5 27.5t30.5 11.5t30.5 -11.5t10.5 -27.5
t-10.5 -27.5t-30.5 -11.5t-30.5 11.5t-10.5 27.5z" />
    <glyph glyph-name="Eth" unicode="&#xd0;" horiz-adv-x="673" 
d="M120 469v293q0 16 12 25.5t29 9.5h162q53 0 102 -18t89 -52t63.5 -90.5t23.5 -126.5v-219q0 -70 -23.5 -126.5t-63.5 -90.5t-89 -52t-102 -18h-162q-17 0 -29 9.5t-12 25.5v299q0 25 -25 25h-28q-16 0 -25.5 12t-9.5 29t9.5 29t25.5 12h28q11 0 18 7t7 17zM202 699v-230
q0 -10 7 -17t17 -7h76q16 0 25.5 -12t9.5 -29t-9.5 -29t-25.5 -12h-76q-10 0 -17 -7t-7 -18v-236q0 -16 16 -16h105q82 0 139 52.5t57 152.5v219q0 100 -57 152.5t-139 52.5h-105q-16 0 -16 -16z" />
    <glyph glyph-name="Ntilde" unicode="&#xd1;" 
d="M159 521v-486q0 -16 -12 -25.5t-29 -9.5t-29 9.5t-12 25.5v485q0 71 24 127.5t64 90.5t89 52t101 18q113 0 195.5 -75t82.5 -212v-486q0 -16 -12 -25.5t-29 -9.5t-29 9.5t-12 25.5v484q0 102 -57 154.5t-139 52.5t-139 -52.5t-57 -152.5zM376 862l-69 39q-10 6 -19 6
q-29 0 -34 -32q-4 -26 -35 -25.5t-31 27.5q0 39 30.5 67t69.5 28q29 0 51 -13l69 -39q10 -6 19 -6q29 0 34 32q5 26 34 26q14 0 23 -7.5t9 -20.5q0 -39 -30.5 -67t-69.5 -28q-29 0 -51 13z" />
    <glyph glyph-name="Ograve" unicode="&#xd2;" horiz-adv-x="700" 
d="M546 277v244q0 100 -57 152.5t-139 52.5t-139 -52.5t-57 -152.5v-244q0 -100 57 -152.5t139 -52.5t139 52.5t57 152.5zM72 277v244q0 137 83 212t195 75q113 0 195.5 -75t82.5 -212v-244q0 -137 -82.5 -212t-195.5 -75q-112 0 -195 75t-83 212zM369 850q-30 8 -94 26
q-44 13 -45 13l-2 1q-26 12 -13 44q14 31 40 21l129 -68q19 -10 11 -26q-7 -16 -26 -11z" />
    <glyph glyph-name="Oacute" unicode="&#xd3;" horiz-adv-x="700" 
d="M546 277v244q0 100 -57 152.5t-139 52.5t-139 -52.5t-57 -152.5v-244q0 -100 57 -152.5t139 -52.5t139 52.5t57 152.5zM72 277v244q0 137 83 212t195 75q113 0 195.5 -75t82.5 -212v-244q0 -137 -82.5 -212t-195.5 -75q-112 0 -195 75t-83 212zM358 848q-19 -5 -26 11
q-8 16 11 26l129 68q26 10 40 -21q13 -32 -13 -44q-1 0 -3 -1q-1 -1 -44 -13q-64 -18 -94 -26z" />
    <glyph glyph-name="Ocircumflex" unicode="&#xd4;" horiz-adv-x="700" 
d="M546 277v244q0 100 -57 152.5t-139 52.5t-139 -52.5t-57 -152.5v-244q0 -100 57 -152.5t139 -52.5t139 52.5t57 152.5zM72 277v244q0 137 83 212t195 75q113 0 195.5 -75t82.5 -212v-244q0 -137 -82.5 -212t-195.5 -75q-112 0 -195 75t-83 212zM457 851q-44 27 -104 27
q-57 0 -105 -27q-4 -3 -12 -3q-25 0 -25 25q0 11 9 20q62 55 133 55q62 0 132 -55q10 -7 10 -20q0 -25 -25 -25q-7 0 -13 3z" />
    <glyph glyph-name="Otilde" unicode="&#xd5;" horiz-adv-x="700" 
d="M546 277v244q0 100 -57 152.5t-139 52.5t-139 -52.5t-57 -152.5v-244q0 -100 57 -152.5t139 -52.5t139 52.5t57 152.5zM72 277v244q0 137 83 212t195 75q113 0 195.5 -75t82.5 -212v-244q0 -137 -82.5 -212t-195.5 -75q-112 0 -195 75t-83 212zM368 861l-69 39
q-10 6 -19 6q-29 0 -34 -32q-4 -26 -35 -25.5t-31 27.5q0 39 30.5 67t69.5 28q29 0 51 -13l69 -39q10 -6 19 -6q29 0 34 32q5 26 34 26q14 0 23 -7.5t9 -20.5q0 -39 -30.5 -67t-69.5 -28q-29 0 -51 13z" />
    <glyph glyph-name="Odieresis" unicode="&#xd6;" horiz-adv-x="700" 
d="M546 277v244q0 100 -57 152.5t-139 52.5t-139 -52.5t-57 -152.5v-244q0 -100 57 -152.5t139 -52.5t139 52.5t57 152.5zM72 277v244q0 137 83 212t195 75q113 0 195.5 -75t82.5 -212v-244q0 -137 -82.5 -212t-195.5 -75q-112 0 -195 75t-83 212zM229 898q0 16 10.5 27.5
t30.5 11.5t30.5 -11.5t10.5 -27.5t-10.5 -27.5t-30.5 -11.5t-30.5 11.5t-10.5 27.5zM389 898q0 16 10.5 27.5t30.5 11.5t30.5 -11.5t10.5 -27.5t-10.5 -27.5t-30.5 -11.5t-30.5 11.5t-10.5 27.5z" />
    <glyph glyph-name="multiply" unicode="&#xd7;" horiz-adv-x="539" 
d="M434 107q-10 -13 -26 -13q-10 0 -19 9l-91 91q-12 12 -29 12t-29 -12l-90 -91q-9 -9 -20 -9q-14 0 -26.5 12.5t-12.5 26.5q0 11 9 20l91 90q12 12 12 29t-12 29l-91 91q-9 9 -9 19q0 14 13 26.5t26 12.5q11 0 20 -9l90 -90q12 -12 29 -12t29 12l91 90q9 9 19 9
q14 0 26.5 -12.5t12.5 -26.5q0 -10 -9 -19l-90 -91q-12 -12 -12 -29t12 -29l90 -90q9 -9 9 -20q0 -13 -13 -26z" />
    <glyph glyph-name="Oslash" unicode="&#xd8;" horiz-adv-x="680" 
d="M417 712q-36 14 -77 14q-82 0 -139 -52.5t-57 -152.5v-254q0 -82 41 -134q5 -5 8 2q0 7 118 279l116 274q8 19 -10 24zM536 267v254q0 82 -40 133q-6 6 -8 -2l-234 -552q-3 -7 0 -14.5t10 -10.5q33 -13 76 -13q82 0 139 52.5t57 152.5zM62 267v254q0 137 83 212t195 75
q66 0 122 -25q4 -4 6 2l2 4q12 27 44 14q31 -14 21 -41l-3 -7q-7 -13 4 -22q82 -80 82 -212v-254q0 -137 -82.5 -212t-195.5 -75q-66 0 -120 25q-6 2 -7 -2l-3 -8q-11 -27 -44 -13q-31 13 -21 40l5 10q5 15 -4 22q-84 79 -84 213z" />
    <glyph glyph-name="Ugrave" unicode="&#xd9;" 
d="M552 278v484q0 16 12 25.5t29 9.5t29 -9.5t12 -25.5v-484q0 -137 -83 -212t-195 -75q-113 0 -195.5 75t-82.5 212v484q0 16 12 25.5t29 9.5t29 -9.5t12 -25.5v-482q0 -103 57 -155t139 -52t139 52.5t57 152.5zM378 850q-30 8 -94 26q-44 13 -45 13l-2 1q-26 12 -13 44
q14 31 40 21l129 -68q19 -10 11 -26q-7 -16 -26 -11z" />
    <glyph glyph-name="Uacute" unicode="&#xda;" 
d="M552 278v484q0 16 12 25.5t29 9.5t29 -9.5t12 -25.5v-484q0 -137 -83 -212t-195 -75q-113 0 -195.5 75t-82.5 212v484q0 16 12 25.5t29 9.5t29 -9.5t12 -25.5v-482q0 -103 57 -155t139 -52t139 52.5t57 152.5zM349 849q-19 -5 -26 11q-8 16 11 26l129 68q26 10 40 -21
q13 -32 -13 -44q-1 0 -3 -1q-1 -1 -44 -13q-64 -18 -94 -26z" />
    <glyph glyph-name="Ucircumflex" unicode="&#xdb;" 
d="M552 278v484q0 16 12 25.5t29 9.5t29 -9.5t12 -25.5v-484q0 -137 -83 -212t-195 -75q-113 0 -195.5 75t-82.5 212v484q0 16 12 25.5t29 9.5t29 -9.5t12 -25.5v-482q0 -103 57 -155t139 -52t139 52.5t57 152.5zM460 852q-44 27 -104 27q-57 0 -105 -27q-5 -3 -12 -3
q-25 0 -25 25q0 11 9 20q62 55 133 55q62 0 132 -55q10 -7 10 -20q0 -25 -25 -25q-7 0 -13 3z" />
    <glyph glyph-name="Udieresis" unicode="&#xdc;" 
d="M552 278v484q0 16 12 25.5t29 9.5t29 -9.5t12 -25.5v-484q0 -137 -83 -212t-195 -75q-113 0 -195.5 75t-82.5 212v484q0 16 12 25.5t29 9.5t29 -9.5t12 -25.5v-482q0 -103 57 -155t139 -52t139 52.5t57 152.5zM235 898q0 16 10.5 27.5t30.5 11.5t30.5 -11.5t10.5 -27.5
t-10.5 -27.5t-30.5 -11.5t-30.5 11.5t-10.5 27.5zM395 898q0 16 10.5 27.5t30.5 11.5t30.5 -11.5t10.5 -27.5t-10.5 -27.5t-30.5 -11.5t-30.5 11.5t-10.5 27.5z" />
    <glyph glyph-name="Yacute" unicode="&#xdd;" horiz-adv-x="648" 
d="M520 643v119q0 16 12 25.5t29 9.5t29 -9.5t12 -25.5v-119q0 -115 -59.5 -186.5t-149.5 -92.5q-28 -7 -28 -36v-293q0 -16 -12 -25.5t-29 -9.5t-29 9.5t-12 25.5v293q0 29 -28 36q-91 22 -150 93t-59 186v119q0 16 12 25.5t29 9.5t29 -9.5t12 -25.5v-117q0 -103 57 -155
t139 -52t139 52.5t57 152.5zM309 848q-19 -5 -26 11q-8 16 11 26l129 68q26 10 40 -21q13 -32 -13 -44q-1 0 -3 -1q-1 -1 -44 -13q-64 -18 -94 -26z" />
    <glyph glyph-name="Thorn" unicode="&#xde;" horiz-adv-x="549" 
d="M90 41v715q0 18 11.5 29.5t29.5 11.5t29.5 -11.5t11.5 -29.5v-118q0 -11 7 -18t17 -7h62q94 0 161 -63.5t67 -155.5t-67 -155.5t-161 -63.5h-62q-10 0 -17 -7t-7 -17v-110q0 -20 -11.5 -30.5t-29.5 -10.5t-29.5 10.5t-11.5 30.5zM172 507v-225q0 -11 7 -18t17 -7h62
q62 0 104 40t42 97t-42 97t-104 40h-62q-10 0 -17 -7t-7 -17z" />
    <glyph glyph-name="germandbls" unicode="&#xdf;" horiz-adv-x="594" 
d="M77 -228v498q0 118 76.5 202t186.5 84q65 0 108.5 -45.5t43.5 -107.5q0 -35 -17 -71q56 -56 56 -141q0 -84 -59.5 -147.5t-150.5 -63.5q-43 0 -90 19.5t-47 48.5q0 17 11.5 31t27.5 14q7 0 38 -15.5t60 -15.5q51 0 89.5 37.5t38.5 88.5q0 102 -108 124q-10 1 -10 12
q0 12 10 12q29 0 49.5 20.5t20.5 49.5t-20.5 50t-49.5 21q-75 0 -128.5 -62t-53.5 -145v-498q0 -16 -12 -25.5t-29 -9.5t-29 9.5t-12 25.5z" />
    <glyph glyph-name="agrave" unicode="&#xe0;" horiz-adv-x="706" 
d="M616 498v-459q0 -18 -12.5 -28.5t-30.5 -10.5q-26 0 -36 22q-8 14 -21 14q-6 0 -14 -5q-73 -50 -164 -50q-112 0 -195 75.5t-83 212.5t83 212t195 75q91 0 164 -50q8 -5 14 -5q14 0 21 15q10 21 36 21q18 0 30.5 -10.5t12.5 -28.5zM338 474q-82 0 -139 -52.5t-57 -152.5
q0 -101 57 -153.5t139 -52.5t139 52.5t57 153.5q0 100 -57 152.5t-139 52.5zM339 623q-30 8 -94 26q-44 13 -45 13l-2 1q-26 12 -13 44q14 31 40 21l129 -68q19 -10 11 -26q-7 -16 -26 -11z" />
    <glyph glyph-name="aacute" unicode="&#xe1;" horiz-adv-x="706" 
d="M616 498v-459q0 -18 -12.5 -28.5t-30.5 -10.5q-26 0 -36 22q-8 14 -21 14q-6 0 -14 -5q-73 -50 -164 -50q-112 0 -195 75.5t-83 212.5t83 212t195 75q91 0 164 -50q8 -5 14 -5q14 0 21 15q10 21 36 21q18 0 30.5 -10.5t12.5 -28.5zM338 474q-82 0 -139 -52.5t-57 -152.5
q0 -101 57 -153.5t139 -52.5t139 52.5t57 153.5q0 100 -57 152.5t-139 52.5zM346 623q-19 -5 -26 11q-8 16 11 26l129 68q26 10 40 -21q13 -32 -13 -44q-1 0 -3 -1q-1 -1 -44 -13q-64 -18 -94 -26z" />
    <glyph glyph-name="acircumflex" unicode="&#xe2;" horiz-adv-x="706" 
d="M616 498v-459q0 -18 -12.5 -28.5t-30.5 -10.5q-26 0 -36 22q-8 14 -21 14q-6 0 -14 -5q-73 -50 -164 -50q-112 0 -195 75.5t-83 212.5t83 212t195 75q91 0 164 -50q8 -5 14 -5q14 0 21 15q10 21 36 21q18 0 30.5 -10.5t12.5 -28.5zM338 474q-82 0 -139 -52.5t-57 -152.5
q0 -101 57 -153.5t139 -52.5t139 52.5t57 153.5q0 100 -57 152.5t-139 52.5zM445 630q-44 27 -104 27q-57 0 -105 -27q-4 -3 -12 -3q-25 0 -25 25q0 11 9 20q62 55 133 55q62 0 132 -55q10 -7 10 -20q0 -25 -25 -25q-7 0 -13 3z" />
    <glyph glyph-name="atilde" unicode="&#xe3;" horiz-adv-x="706" 
d="M616 498v-459q0 -18 -12.5 -28.5t-30.5 -10.5q-26 0 -36 22q-8 14 -21 14q-6 0 -14 -5q-73 -50 -164 -50q-112 0 -195 75.5t-83 212.5t83 212t195 75q91 0 164 -50q8 -5 14 -5q14 0 21 15q10 21 36 21q18 0 30.5 -10.5t12.5 -28.5zM338 474q-82 0 -139 -52.5t-57 -152.5
q0 -101 57 -153.5t139 -52.5t139 52.5t57 153.5q0 100 -57 152.5t-139 52.5zM357 629l-69 39q-11 6 -19 6q-29 0 -34 -32q-4 -26 -35 -25.5t-31 27.5q0 39 30.5 67t69.5 28q29 0 51 -13l69 -39q10 -6 19 -6q29 0 34 32q5 26 34 26q14 0 23 -7.5t9 -20.5q0 -39 -30.5 -67
t-69.5 -28q-29 0 -51 13z" />
    <glyph glyph-name="adieresis" unicode="&#xe4;" horiz-adv-x="706" 
d="M616 498v-459q0 -18 -12.5 -28.5t-30.5 -10.5q-26 0 -36 22q-8 14 -21 14q-6 0 -14 -5q-73 -50 -164 -50q-112 0 -195 75.5t-83 212.5t83 212t195 75q91 0 164 -50q8 -5 14 -5q14 0 21 15q10 21 36 21q18 0 30.5 -10.5t12.5 -28.5zM338 474q-82 0 -139 -52.5t-57 -152.5
q0 -101 57 -153.5t139 -52.5t139 52.5t57 153.5q0 100 -57 152.5t-139 52.5zM215 677q0 16 10.5 27.5t30.5 11.5t30.5 -11.5t10.5 -27.5t-10.5 -27.5t-30.5 -11.5t-30.5 11.5t-10.5 27.5zM375 677q0 16 10.5 27.5t30.5 11.5t30.5 -11.5t10.5 -27.5t-10.5 -27.5t-30.5 -11.5
t-30.5 11.5t-10.5 27.5z" />
    <glyph glyph-name="aring" unicode="&#xe5;" horiz-adv-x="706" 
d="M616 498v-459q0 -18 -12.5 -28.5t-30.5 -10.5q-26 0 -36 22q-8 14 -21 14q-6 0 -14 -5q-73 -50 -164 -50q-112 0 -195 75.5t-83 212.5t83 212t195 75q91 0 164 -50q8 -5 14 -5q14 0 21 15q10 21 36 21q18 0 30.5 -10.5t12.5 -28.5zM338 474q-82 0 -139 -52.5t-57 -152.5
q0 -101 57 -153.5t139 -52.5t139 52.5t57 153.5q0 100 -57 152.5t-139 52.5zM336 617q-43 0 -68 27t-25 63t25 63t68 27q45 0 69.5 -27t24.5 -63t-24.5 -63t-69.5 -27zM270 707q0 -26 16.5 -44.5t49.5 -18.5t50.5 18.5t17.5 44.5t-17.5 44.5t-50.5 18.5t-49.5 -18.5
t-16.5 -44.5z" />
    <glyph glyph-name="ae" unicode="&#xe6;" horiz-adv-x="981" 
d="M502 30q-69 -50 -164 -50q-112 0 -195 75.5t-83 212.5t82.5 212t195.5 75q91 0 164 -50q8 -5 14 -5q12 0 27 18t32 18q24 0 36 -21q53 40 123 40q77 0 132 -52.5t55 -128.5q0 -78 -54.5 -121.5t-133.5 -43.5h-99q-11 0 -11 -13q20 -63 75 -99t121 -36l20 1
q19 1 29.5 -12.5t10.5 -28.5q0 -41 -62 -41q-115 0 -201 78v-18q0 -17 -12 -29t-29 -12t-32 18t-27 18q-6 0 -14 -5zM730 475q-32 0 -55 -12.5t-33.5 -31t-14.5 -32.5t-4 -24v-61q0 -10 6.5 -17t17.5 -7h97q12 0 30.5 4.5t41 25.5t22.5 56q0 51 -35 75t-73 24zM338 473
q-82 0 -139 -52.5t-57 -152.5q0 -101 57 -153.5t139 -52.5t139 52.5t57 153.5q0 100 -57 152.5t-139 52.5z" />
    <glyph glyph-name="ccedilla" unicode="&#xe7;" horiz-adv-x="532" 
d="M62 271q0 125 77 206t202 81q69 0 121 -25q20 -12 20 -34q0 -16 -10.5 -28t-27.5 -12q-9 0 -43 8.5t-60 8.5q-90 0 -143 -57t-53 -148q0 -92 53 -148.5t143 -56.5q26 0 60 8.5t43 8.5q17 0 27.5 -12t10.5 -28q0 -22 -20 -34q-44 -26 -121 -26q-8 1 -11 -2t-2 -9
q6 -26 25 -36q35 -14 47.5 -59t-10.5 -88q-27 -53 -97 -48q-25 3 -42 14q-15 10 -10 30q7 27 35 13q12 -6 22 -7q44 -6 55 38t-23 62q-48 26 -52 82q-1 15 -15 20q-92 24 -146.5 99.5t-54.5 178.5z" />
    <glyph glyph-name="egrave" unicode="&#xe8;" horiz-adv-x="666" 
d="M620 266q0 -15 -9.5 -27t-25.5 -15l-416 -66q25 -49 71 -74t102 -25q46 0 87 18q35 14 50 -23q17 -36 -17 -52q-54 -25 -120 -25q-112 0 -195 75.5t-83 212.5t82.5 212t195.5 75q111 0 194.5 -75t83.5 -211zM160 240l364 58q12 2 10 16q-15 76 -68.5 116t-123.5 40
q-82 0 -139 -52.5t-57 -152.5v-14q1 -13 14 -11zM321 623q-30 8 -94 26q-44 13 -45 13l-2 1q-26 12 -13 44q14 31 40 21l129 -68q19 -10 11 -26q-7 -16 -26 -11z" />
    <glyph glyph-name="eacute" unicode="&#xe9;" horiz-adv-x="666" 
d="M620 266q0 -15 -9.5 -27t-25.5 -15l-416 -66q25 -49 71 -74t102 -25q46 0 87 18q35 14 50 -23q17 -36 -17 -52q-54 -25 -120 -25q-112 0 -195 75.5t-83 212.5t82.5 212t195.5 75q111 0 194.5 -75t83.5 -211zM160 240l364 58q12 2 10 16q-15 76 -68.5 116t-123.5 40
q-82 0 -139 -52.5t-57 -152.5v-14q1 -13 14 -11zM327 623q-19 -5 -26 11q-8 16 11 26l129 68q26 10 40 -21q13 -32 -13 -44q-1 0 -3 -1q-1 -1 -44 -13q-64 -18 -94 -26z" />
    <glyph glyph-name="ecircumflex" unicode="&#xea;" horiz-adv-x="666" 
d="M620 266q0 -15 -9.5 -27t-25.5 -15l-416 -66q25 -49 71 -74t102 -25q46 0 87 18q35 14 50 -23q17 -36 -17 -52q-54 -25 -120 -25q-112 0 -195 75.5t-83 212.5t82.5 212t195.5 75q111 0 194.5 -75t83.5 -211zM160 240l364 58q12 2 10 16q-15 76 -68.5 116t-123.5 40
q-82 0 -139 -52.5t-57 -152.5v-14q1 -13 14 -11zM451 639q-44 27 -104 27q-57 0 -105 -27q-4 -3 -12 -3q-25 0 -25 25q0 11 9 20q62 55 133 55q62 0 132 -55q10 -7 10 -20q0 -25 -25 -25q-7 0 -13 3z" />
    <glyph glyph-name="edieresis" unicode="&#xeb;" horiz-adv-x="666" 
d="M620 266q0 -15 -9.5 -27t-25.5 -15l-416 -66q25 -49 71 -74t102 -25q46 0 87 18q35 14 50 -23q17 -36 -17 -52q-54 -25 -120 -25q-112 0 -195 75.5t-83 212.5t82.5 212t195.5 75q111 0 194.5 -75t83.5 -211zM160 240l364 58q12 2 10 16q-15 76 -68.5 116t-123.5 40
q-82 0 -139 -52.5t-57 -152.5v-14q1 -13 14 -11zM213 677q0 16 10.5 27.5t30.5 11.5t30.5 -11.5t10.5 -27.5t-10.5 -27.5t-30.5 -11.5t-30.5 11.5t-10.5 27.5zM373 677q0 16 10.5 27.5t30.5 11.5t30.5 -11.5t10.5 -27.5t-10.5 -27.5t-30.5 -11.5t-30.5 11.5t-10.5 27.5z" />
    <glyph glyph-name="igrave" unicode="&#xec;" horiz-adv-x="306" 
d="M94 623q-30 8 -94 26q-44 13 -45 13l-2 1q-26 12 -13 44q14 31 40 21l129 -68q19 -10 11 -26q-7 -16 -26 -11zM79 231v271q0 16 12 26t29 10t29 -10t12 -26v-266q0 -50 26.5 -96.5t69.5 -76.5q18 -13 18 -31t-13.5 -30t-31.5 -12q-22 0 -53 30t-51 61q-46 72 -47 150z
" />
    <glyph glyph-name="iacute" unicode="&#xed;" horiz-adv-x="306" 
d="M142 623q-19 -5 -26 11q-8 16 11 26l129 68q26 10 40 -21q13 -32 -13 -44q-1 0 -3 -1q-1 -1 -44 -13q-64 -18 -94 -26zM79 231v271q0 16 12 26t29 10t29 -10t12 -26v-266q0 -50 26.5 -96.5t69.5 -76.5q18 -13 18 -31t-13.5 -30t-31.5 -12q-22 0 -53 30t-51 61
q-46 72 -47 150z" />
    <glyph glyph-name="icircumflex" unicode="&#xee;" horiz-adv-x="306" 
d="M228 639q-44 27 -104 27q-57 0 -105 -27q-5 -3 -12 -3q-25 0 -25 25q0 11 9 20q62 55 133 55q62 0 132 -55q10 -7 10 -20q0 -25 -25 -25q-7 0 -13 3zM79 231v271q0 16 12 26t29 10t29 -10t12 -26v-266q0 -50 26.5 -96.5t69.5 -76.5q18 -13 18 -31t-13.5 -30t-31.5 -12
q-22 0 -53 30t-51 61q-46 72 -47 150z" />
    <glyph glyph-name="idieresis" unicode="&#xef;" horiz-adv-x="306" 
d="M3 677q0 16 10.5 27.5t30.5 11.5t30.5 -11.5t10.5 -27.5t-10.5 -27.5t-30.5 -11.5t-30.5 11.5t-10.5 27.5zM163 677q0 16 10.5 27.5t30.5 11.5t30.5 -11.5t10.5 -27.5t-10.5 -27.5t-30.5 -11.5t-30.5 11.5t-10.5 27.5zM79 231v271q0 16 12 26t29 10t29 -10t12 -26v-266
q0 -50 26.5 -96.5t69.5 -76.5q18 -13 18 -31t-13.5 -30t-31.5 -12q-22 0 -53 30t-51 61q-46 72 -47 150z" />
    <glyph glyph-name="eth" unicode="&#xf0;" horiz-adv-x="696" 
d="M341 474q-82 0 -139 -52.5t-57 -152.5q0 -101 57 -153.5t139 -52.5t139 52.5t57 152.5q0 101 -57 153.5t-139 52.5zM485 664q-2 -2 -10 -10.5t-12 -12.5t-11 -8t-12 -4q-9 0 -17 8t-8 17q0 6 3.5 12t7 9.5l11 11l8.5 8.5q-26 18 -54 24.5t-75 5.5q-41 0 -39 45
q1 39 59 39q88 0 168 -55q3 3 10 10.5t11 11.5t10 7.5t11 3.5q11 0 19 -8t8 -17q0 -6 -3.5 -12t-7 -9.5t-10.5 -10t-9 -8.5q76 -76 76 -182v-271q0 -125 -77 -206.5t-201 -81.5t-201 81.5t-77 206.5t76.5 206t201.5 81q72 0 135 -33q6 -4 17.5 -11.5t19 -11.5t12.5 -4
q12 0 12 23q0 93 -52 145z" />
    <glyph glyph-name="ntilde" unicode="&#xf1;" horiz-adv-x="723" 
d="M169 515q8 -14 20 -14q7 0 15 5q73 50 164 50q113 0 195.5 -75t82.5 -212v-234q0 -16 -12 -25.5t-29 -9.5t-29 9.5t-12 25.5v233q0 101 -57 153.5t-139 52.5q-81 0 -138.5 -52.5t-57.5 -151.5v-235q0 -16 -12 -25.5t-29 -9.5t-29 9.5t-12 25.5v461q0 17 12.5 29t28.5 12
q28 0 38 -22zM383 629l-69 39q-10 6 -19 6q-29 0 -34 -32q-4 -26 -35 -25.5t-31 27.5q0 39 30.5 67t69.5 28q29 0 51 -13l69 -39q11 -6 19 -6q29 0 34 32q5 26 34 26q14 0 23 -7.5t9 -20.5q0 -39 -30.5 -67t-69.5 -28q-29 0 -51 13z" />
    <glyph glyph-name="ograve" unicode="&#xf2;" horiz-adv-x="676" 
d="M338 -20q-112 0 -195 75.5t-83 212.5t82.5 212t195.5 75q53 0 102 -18t89 -52t63.5 -90.5t23.5 -126.5q0 -137 -83 -212.5t-195 -75.5zM338 62q82 0 139 53t57 153t-57 152.5t-139 52.5t-139 -52.5t-57 -152.5t57.5 -153t138.5 -53zM324 623q-30 8 -94 26q-44 13 -45 13
l-2 1q-26 12 -13 44q14 31 40 21l129 -68q19 -10 11 -26q-7 -16 -26 -11z" />
    <glyph glyph-name="oacute" unicode="&#xf3;" horiz-adv-x="676" 
d="M338 -20q-112 0 -195 75.5t-83 212.5t82.5 212t195.5 75q53 0 102 -18t89 -52t63.5 -90.5t23.5 -126.5q0 -137 -83 -212.5t-195 -75.5zM338 62q82 0 139 53t57 153t-57 152.5t-139 52.5t-139 -52.5t-57 -152.5t57.5 -153t138.5 -53zM354 622q-19 -5 -26 11q-8 16 11 26
l129 68q26 10 40 -21q13 -32 -13 -44q-1 0 -3 -1q-1 -1 -44 -13q-64 -18 -94 -26z" />
    <glyph glyph-name="ocircumflex" unicode="&#xf4;" horiz-adv-x="676" 
d="M338 -20q-112 0 -195 75.5t-83 212.5t82.5 212t195.5 75q53 0 102 -18t89 -52t63.5 -90.5t23.5 -126.5q0 -137 -83 -212.5t-195 -75.5zM338 62q82 0 139 53t57 153t-57 152.5t-139 52.5t-139 -52.5t-57 -152.5t57.5 -153t138.5 -53zM443 631q-44 27 -104 27
q-57 0 -105 -27q-4 -3 -12 -3q-25 0 -25 25q0 11 9 20q62 55 133 55q62 0 132 -55q10 -7 10 -20q0 -25 -25 -25q-7 0 -13 3z" />
    <glyph glyph-name="otilde" unicode="&#xf5;" horiz-adv-x="676" 
d="M338 -20q-112 0 -195 75.5t-83 212.5t82.5 212t195.5 75q53 0 102 -18t89 -52t63.5 -90.5t23.5 -126.5q0 -137 -83 -212.5t-195 -75.5zM338 62q82 0 139 53t57 153t-57 152.5t-139 52.5t-139 -52.5t-57 -152.5t57.5 -153t138.5 -53zM360 629l-69 39q-11 6 -19 6
q-29 0 -34 -32q-4 -26 -35 -25.5t-31 27.5q0 39 30.5 67t69.5 28q29 0 51 -13l69 -39q10 -6 19 -6q29 0 34 32q5 26 34 26q14 0 23 -7.5t9 -20.5q0 -39 -30.5 -67t-69.5 -28q-29 0 -51 13z" />
    <glyph glyph-name="odieresis" unicode="&#xf6;" horiz-adv-x="676" 
d="M338 -20q-112 0 -195 75.5t-83 212.5t82.5 212t195.5 75q53 0 102 -18t89 -52t63.5 -90.5t23.5 -126.5q0 -137 -83 -212.5t-195 -75.5zM338 62q82 0 139 53t57 153t-57 152.5t-139 52.5t-139 -52.5t-57 -152.5t57.5 -153t138.5 -53zM217 677q0 16 10.5 27.5t30.5 11.5
t30.5 -11.5t10.5 -27.5t-10.5 -27.5t-30.5 -11.5t-30.5 11.5t-10.5 27.5zM377 677q0 16 10.5 27.5t30.5 11.5t30.5 -11.5t10.5 -27.5t-10.5 -27.5t-30.5 -11.5t-30.5 11.5t-10.5 27.5z" />
    <glyph glyph-name="divide" unicode="&#xf7;" horiz-adv-x="625" 
d="M265 135q0 16 10.5 27.5t30.5 11.5t30.5 -11.5t10.5 -27.5t-10.5 -27.5t-30.5 -11.5t-30.5 11.5t-10.5 27.5zM265 397q0 16 10.5 27.5t30.5 11.5t30.5 -11.5t10.5 -27.5t-10.5 -27.5t-30.5 -11.5t-30.5 11.5t-10.5 27.5zM505 234h-385q-19 0 -26.5 17.5t0 35t26.5 17.5
h385q19 0 26.5 -17.5t0 -35t-26.5 -17.5z" />
    <glyph glyph-name="oslash" unicode="&#xf8;" horiz-adv-x="676" 
d="M339 -20q-38 0 -80 11q-14 -21 -42 -8q-26 12 -22 35q-61 34 -97.5 97.5t-36.5 152.5q0 137 82.5 212t195.5 75q43 0 80 -11q13 22 42 9q27 -12 22 -35q134 -77 134 -250q0 -137 -83 -212.5t-195 -75.5zM227 94l159 374q-19 5 -47 5q-82 0 -139 -52.5t-57 -152.5
q0 -119 84 -174zM339 62q82 0 139 53t57 153q0 119 -84 174l-159 -375q28 -5 47 -5z" />
    <glyph glyph-name="ugrave" unicode="&#xf9;" horiz-adv-x="723" 
d="M553 21q-8 14 -21 14q-6 0 -14 -5q-69 -50 -164 -50q-113 0 -195.5 75t-82.5 212v234q0 16 12 25.5t29 9.5t29 -9.5t12 -25.5v-234q0 -100 57 -152.5t139 -52.5q81 0 138.5 52.5t57.5 151.5v235q0 16 12 25.5t29 9.5t29 -9.5t12 -25.5v-461q0 -17 -12.5 -29t-28.5 -12
q-28 0 -38 22zM335 623q-30 8 -94 26q-44 13 -45 13l-2 1q-26 12 -13 44q14 31 40 21l129 -68q19 -10 11 -26q-7 -16 -26 -11z" />
    <glyph glyph-name="uacute" unicode="&#xfa;" horiz-adv-x="723" 
d="M553 21q-8 14 -21 14q-6 0 -14 -5q-69 -50 -164 -50q-113 0 -195.5 75t-82.5 212v234q0 16 12 25.5t29 9.5t29 -9.5t12 -25.5v-234q0 -100 57 -152.5t139 -52.5q81 0 138.5 52.5t57.5 151.5v235q0 16 12 25.5t29 9.5t29 -9.5t12 -25.5v-461q0 -17 -12.5 -29t-28.5 -12
q-28 0 -38 22zM365 622q-19 -5 -26 11q-8 16 11 26l129 68q26 10 40 -21q13 -32 -13 -44q-1 0 -3 -1q-1 -1 -44 -13q-64 -18 -94 -26z" />
    <glyph glyph-name="ucircumflex" unicode="&#xfb;" horiz-adv-x="723" 
d="M553 21q-8 14 -21 14q-6 0 -14 -5q-69 -50 -164 -50q-113 0 -195.5 75t-82.5 212v234q0 16 12 25.5t29 9.5t29 -9.5t12 -25.5v-234q0 -100 57 -152.5t139 -52.5q81 0 138.5 52.5t57.5 151.5v235q0 16 12 25.5t29 9.5t29 -9.5t12 -25.5v-461q0 -17 -12.5 -29t-28.5 -12
q-28 0 -38 22zM462 631q-44 27 -104 27q-57 0 -105 -27q-5 -3 -12 -3q-25 0 -25 25q0 11 9 20q62 55 133 55q62 0 132 -55q10 -7 10 -20q0 -25 -25 -25q-7 0 -13 3z" />
    <glyph glyph-name="udieresis" unicode="&#xfc;" horiz-adv-x="723" 
d="M553 21q-8 14 -21 14q-6 0 -14 -5q-69 -50 -164 -50q-113 0 -195.5 75t-82.5 212v234q0 16 12 25.5t29 9.5t29 -9.5t12 -25.5v-234q0 -100 57 -152.5t139 -52.5q81 0 138.5 52.5t57.5 151.5v235q0 16 12 25.5t29 9.5t29 -9.5t12 -25.5v-461q0 -17 -12.5 -29t-28.5 -12
q-28 0 -38 22zM234 677q0 16 10.5 27.5t30.5 11.5t30.5 -11.5t10.5 -27.5t-10.5 -27.5t-30.5 -11.5t-30.5 11.5t-10.5 27.5zM394 677q0 16 10.5 27.5t30.5 11.5t30.5 -11.5t10.5 -27.5t-10.5 -27.5t-30.5 -11.5t-30.5 11.5t-10.5 27.5z" />
    <glyph glyph-name="yacute" unicode="&#xfd;" horiz-adv-x="533" 
d="M268 145l157 371q5 12 21 17.5t30 -0.5q17 -8 23.5 -22t0.5 -27l-244 -576q-38 -90 -106 -135t-147 -45q-57 0 -115 24q-12 5 -17.5 19.5t0.5 31.5q7 17 20.5 23.5t28.5 1.5q44 -18 84 -18q121 0 177 130l36 84q6 16 0 32l-182 426q-13 34 24 50q38 16 52 -18zM262 623
q-19 -5 -26 11q-8 16 11 26l129 68q26 10 40 -21q13 -32 -13 -44q-1 0 -3 -1q-1 -1 -44 -13q-64 -18 -94 -26z" />
    <glyph glyph-name="thorn" unicode="&#xfe;" horiz-adv-x="592" 
d="M90 -226v987q0 17 11.5 26.5t29.5 9.5t29.5 -9.5t11.5 -26.5v-227q0 -13 13 -13q2 0 8 2q53 33 117 33q92 0 155.5 -66.5t63.5 -161.5v-121q0 -94 -63.5 -161t-155.5 -67q-65 0 -117 34q-6 2 -8 2q-13 0 -13 -13v-228q0 -17 -11.5 -26.5t-29.5 -9.5t-29.5 9.5t-11.5 26.5
zM172 335v-135q0 -59 41.5 -99t96.5 -40q56 0 96.5 42t40.5 104v121q0 62 -40.5 104.5t-96.5 42.5q-55 0 -95.5 -40t-42.5 -100z" />
    <glyph glyph-name="ydieresis" unicode="&#xff;" horiz-adv-x="533" 
d="M268 145l157 371q5 12 21 17.5t30 -0.5q17 -8 23.5 -22t0.5 -27l-244 -576q-38 -90 -106 -135t-147 -45q-57 0 -115 24q-12 5 -17.5 19.5t0.5 31.5q7 17 20.5 23.5t28.5 1.5q44 -18 84 -18q121 0 177 130l36 84q6 16 0 32l-182 426q-13 34 24 50q38 16 52 -18zM146 677
q0 16 10.5 27.5t30.5 11.5t30.5 -11.5t10.5 -27.5t-10.5 -27.5t-30.5 -11.5t-30.5 11.5t-10.5 27.5zM306 677q0 16 10.5 27.5t30.5 11.5t30.5 -11.5t10.5 -27.5t-10.5 -27.5t-30.5 -11.5t-30.5 11.5t-10.5 27.5z" />
    <glyph glyph-name="Amacron" unicode="&#x100;" 
d="M159 331v-296q0 -16 -12 -25.5t-29 -9.5t-29 9.5t-12 25.5v486q0 137 83 212t195 75q113 0 195.5 -75t82.5 -212v-486q0 -16 -12 -25.5t-29 -9.5t-29 9.5t-12 25.5v296q0 25 -25 25h-343q-10 0 -17 -7t-7 -18zM551 462v57q0 103 -57 155t-139 52t-139 -52.5t-57 -152.5
v-59q0 -10 7 -17t17 -7h343q11 0 18 7t7 17zM197 885q0 15 8 25t22 10h255q19 0 26.5 -17.5t0 -35t-26.5 -17.5h-255q-14 0 -22 10t-8 25z" />
    <glyph glyph-name="amacron" unicode="&#x101;" horiz-adv-x="706" 
d="M616 498v-459q0 -18 -12.5 -28.5t-30.5 -10.5q-26 0 -36 22q-8 14 -21 14q-6 0 -14 -5q-73 -50 -164 -50q-112 0 -195 75.5t-83 212.5t83 212t195 75q91 0 164 -50q8 -5 14 -5q14 0 21 15q10 21 36 21q18 0 30.5 -10.5t12.5 -28.5zM338 474q-82 0 -139 -52.5t-57 -152.5
q0 -101 57 -153.5t139 -52.5t139 52.5t57 153.5q0 100 -57 152.5t-139 52.5zM194 677q0 15 8 25t22 10h255q19 0 26.5 -17.5t0 -35t-26.5 -17.5h-255q-14 0 -22 10t-8 25z" />
    <glyph glyph-name="Abreve" unicode="&#x102;" 
d="M159 331v-296q0 -16 -12 -25.5t-29 -9.5t-29 9.5t-12 25.5v486q0 137 83 212t195 75q113 0 195.5 -75t82.5 -212v-486q0 -16 -12 -25.5t-29 -9.5t-29 9.5t-12 25.5v296q0 25 -25 25h-343q-10 0 -17 -7t-7 -18zM551 462v57q0 103 -57 155t-139 52t-139 -52.5t-57 -152.5
v-59q0 -10 7 -17t17 -7h343q11 0 18 7t7 17zM229 957l107 -54q8 -5 16 -5t16 5l107 54q6 3 13 3q19 0 28 -16.5t4 -34.5t-19 -19l-142 -39q-7 -1 -14 0l-141 39q-15 1 -20 19t3.5 34.5t28.5 16.5q7 0 13 -3z" />
    <glyph glyph-name="abreve" unicode="&#x103;" horiz-adv-x="706" 
d="M616 498v-459q0 -18 -12.5 -28.5t-30.5 -10.5q-26 0 -36 22q-8 14 -21 14q-6 0 -14 -5q-73 -50 -164 -50q-112 0 -195 75.5t-83 212.5t83 212t195 75q91 0 164 -50q8 -5 14 -5q14 0 21 15q10 21 36 21q18 0 30.5 -10.5t12.5 -28.5zM338 474q-82 0 -139 -52.5t-57 -152.5
q0 -101 57 -153.5t139 -52.5t139 52.5t57 153.5q0 100 -57 152.5t-139 52.5zM224 729l107 -54q8 -5 16 -5t16 5l107 54q6 3 13 3q19 0 28 -16.5t4 -34.5t-19 -19l-142 -39q-7 -1 -14 0l-141 39q-15 1 -20 19t3.5 34.5t28.5 16.5q7 0 13 -3z" />
    <glyph glyph-name="Aogonek" unicode="&#x104;" 
d="M159 331v-296q0 -16 -12 -25.5t-29 -9.5t-29 9.5t-12 25.5v486q0 137 83 212t195 75q113 0 195.5 -75t82.5 -212v-490q-2 -14 -9 -20t-20 -11t-20 -10.5t-8 -17.5q3 -24 27 -25q12 -2 25 13t25 15q10 0 18.5 -8.5t10.5 -20.5q0 -25 -27 -42t-52 -17q-37 0 -62 25.5
t-25 59.5q0 44 35 68v291q0 25 -25 25h-343q-10 0 -17 -7t-7 -18zM551 462v57q0 103 -57 155t-139 52t-139 -52.5t-57 -152.5v-59q0 -10 7 -17t17 -7h343q11 0 18 7t7 17z" />
    <glyph glyph-name="aogonek" unicode="&#x105;" horiz-adv-x="706" 
d="M616 498v-465q0 -13 -9.5 -21.5t-20.5 -11.5t-19.5 -10t-7.5 -18q3 -24 27 -25q12 -2 25 13t25 15q10 0 18.5 -8.5t10.5 -20.5q0 -25 -27 -42t-52 -17q-37 0 -62 25.5t-25 59.5q0 39 26 62q-6 2 -9 2q-6 0 -14 -5q-73 -50 -164 -50q-112 0 -195 75.5t-83 212.5t83 212
t195 75q91 0 164 -50q8 -5 14 -5q14 0 21 15q10 21 36 21q18 0 30.5 -10.5t12.5 -28.5zM338 474q-82 0 -139 -52.5t-57 -152.5q0 -101 57 -153.5t139 -52.5t139 52.5t57 153.5q0 100 -57 152.5t-139 52.5z" />
    <glyph glyph-name="Cacute" unicode="&#x106;" horiz-adv-x="528" 
d="M62 279v241q0 125 77 206t202 81q69 0 121 -25q16 -9 19 -27t-8 -32.5t-29 -14.5q-9 0 -43 8.5t-60 8.5q-90 0 -143 -57t-53 -148v-241q0 -91 53 -148t143 -57q26 0 60 8.5t43 8.5q29 0 36 -30.5t-18 -43.5q-44 -26 -121 -26q-124 0 -201.5 81.5t-77.5 206.5zM306 849
q-19 -5 -26 11q-8 16 11 26l129 68q26 10 40 -21q13 -32 -13 -44q-1 0 -3 -1q-1 -1 -44 -13q-64 -18 -94 -26z" />
    <glyph glyph-name="cacute" unicode="&#x107;" horiz-adv-x="529" 
d="M61 268q0 125 77.5 206t201.5 81q69 0 121 -25q16 -9 19 -27t-8 -32.5t-29 -14.5q-9 0 -43 8.5t-60 8.5q-90 0 -143 -57t-53 -148t52.5 -148t143.5 -57q26 0 60 8.5t43 8.5q18 0 29 -14.5t8 -32.5t-19 -27q-44 -26 -121 -26q-124 0 -201.5 81.5t-77.5 206.5zM321 623
q-19 -5 -26 11q-8 16 11 26l129 68q26 10 40 -21q13 -32 -13 -44q-1 0 -3 -1q-1 -1 -44 -13q-64 -18 -94 -26z" />
    <glyph glyph-name="Ccircumflex" unicode="&#x108;" horiz-adv-x="528" 
d="M62 279v241q0 125 77 206t202 81q69 0 121 -25q16 -9 19 -27t-8 -32.5t-29 -14.5q-9 0 -43 8.5t-60 8.5q-90 0 -143 -57t-53 -148v-241q0 -91 53 -148t143 -57q26 0 60 8.5t43 8.5q29 0 36 -30.5t-18 -43.5q-44 -26 -121 -26q-124 0 -201.5 81.5t-77.5 206.5zM446 851
q-44 27 -104 27q-57 0 -105 -27q-5 -3 -12 -3q-25 0 -25 25q0 11 9 20q62 55 133 55q62 0 132 -55q10 -7 10 -20q0 -25 -25 -25q-7 0 -13 3z" />
    <glyph glyph-name="ccircumflex" unicode="&#x109;" horiz-adv-x="529" 
d="M61 268q0 125 77.5 206t201.5 81q69 0 121 -25q16 -9 19 -27t-8 -32.5t-29 -14.5q-9 0 -43 8.5t-60 8.5q-90 0 -143 -57t-53 -148t52.5 -148t143.5 -57q26 0 60 8.5t43 8.5q18 0 29 -14.5t8 -32.5t-19 -27q-44 -26 -121 -26q-124 0 -201.5 81.5t-77.5 206.5zM441 631
q-44 27 -104 27q-57 0 -105 -27q-4 -3 -12 -3q-25 0 -25 25q0 11 9 20q62 55 133 55q62 0 132 -55q10 -7 10 -20q0 -25 -25 -25q-7 0 -13 3z" />
    <glyph glyph-name="Cdotaccent" unicode="&#x10a;" horiz-adv-x="528" 
d="M62 279v241q0 125 77 206t202 81q69 0 121 -25q16 -9 19 -27t-8 -32.5t-29 -14.5q-9 0 -43 8.5t-60 8.5q-90 0 -143 -57t-53 -148v-241q0 -91 53 -148t143 -57q26 0 60 8.5t43 8.5q29 0 36 -30.5t-18 -43.5q-44 -26 -121 -26q-124 0 -201.5 81.5t-77.5 206.5zM280 888
q0 16 10.5 27.5t30.5 11.5t30.5 -11.5t10.5 -27.5t-10.5 -27.5t-30.5 -11.5t-30.5 11.5t-10.5 27.5z" />
    <glyph glyph-name="cdotaccent" unicode="&#x10b;" horiz-adv-x="529" 
d="M61 268q0 125 77.5 206t201.5 81q69 0 121 -25q16 -9 19 -27t-8 -32.5t-29 -14.5q-9 0 -43 8.5t-60 8.5q-90 0 -143 -57t-53 -148t52.5 -148t143.5 -57q26 0 60 8.5t43 8.5q18 0 29 -14.5t8 -32.5t-19 -27q-44 -26 -121 -26q-124 0 -201.5 81.5t-77.5 206.5zM290 677
q0 16 10.5 27.5t30.5 11.5t30.5 -11.5t10.5 -27.5t-10.5 -27.5t-30.5 -11.5t-30.5 11.5t-10.5 27.5z" />
    <glyph glyph-name="Ccaron" unicode="&#x10c;" horiz-adv-x="528" 
d="M62 279v241q0 125 77 206t202 81q69 0 121 -25q16 -9 19 -27t-8 -32.5t-29 -14.5q-9 0 -43 8.5t-60 8.5q-90 0 -143 -57t-53 -148v-241q0 -91 53 -148t143 -57q26 0 60 8.5t43 8.5q29 0 36 -30.5t-18 -43.5q-44 -26 -121 -26q-124 0 -201.5 81.5t-77.5 206.5zM218 946
q44 -27 104 -27q61 0 105 27q6 3 12 3q11 0 18 -7.5t7 -17.5q2 -11 -9 -20q-70 -55 -133 -55q-62 0 -132 55q-8 8 -8 20q0 10 6.5 17.5t16.5 7.5q7 0 13 -3z" />
    <glyph glyph-name="ccaron" unicode="&#x10d;" horiz-adv-x="529" 
d="M61 268q0 125 77.5 206t201.5 81q69 0 121 -25q16 -9 19 -27t-8 -32.5t-29 -14.5q-9 0 -43 8.5t-60 8.5q-90 0 -143 -57t-53 -148t52.5 -148t143.5 -57q26 0 60 8.5t43 8.5q18 0 29 -14.5t8 -32.5t-19 -27q-44 -26 -121 -26q-124 0 -201.5 81.5t-77.5 206.5zM234 724
q44 -27 104 -27q61 0 105 27q6 3 12 3q11 0 18 -7.5t7 -17.5q2 -11 -9 -20q-70 -55 -133 -55q-62 0 -132 55q-8 8 -8 20q0 10 6.5 17.5t16.5 7.5q7 0 13 -3z" />
    <glyph glyph-name="Dcaron" unicode="&#x10e;" horiz-adv-x="645" 
d="M90 39v723q0 16 12 25.5t29 9.5h162q53 0 102 -18t89 -52t63.5 -90.5t23.5 -126.5v-219q0 -70 -23.5 -126.5t-63.5 -90.5t-89 -52t-102 -18h-162q-17 0 -29 9.5t-12 25.5zM172 699v-597q0 -16 16 -16h105q82 0 139 52.5t57 152.5v219q0 100 -57 152.5t-139 52.5h-105
q-16 0 -16 -16zM213 946q44 -27 104 -27q61 0 105 27q6 3 12 3q11 0 18 -7.5t7 -17.5q2 -11 -9 -20q-70 -55 -133 -55q-62 0 -132 55q-8 8 -8 20q0 10 6.5 17.5t16.5 7.5q7 0 13 -3z" />
    <glyph glyph-name="dcaron" unicode="&#x10f;" horiz-adv-x="718" 
d="M518 500q18 0 18 18v256q0 16 12 24.5t29 8.5t29 -8.5t12 -24.5v-737q0 -17 -11.5 -27.5t-29.5 -10.5q-26 0 -36 19q-11 17 -22 17q-7 0 -15 -5q-69 -50 -164 -50q-113 0 -195.5 75t-82.5 212t83 212.5t195 75.5q91 0 164 -50q8 -5 14 -5zM340 62q82 0 139 52.5t57 152.5
q0 101 -57 153.5t-139 52.5t-139 -52.5t-57 -153.5q0 -100 57 -152.5t139 -52.5zM732 771l-31 -144q-5 -18 -22 -17t-17 22v145q0 15 11.5 23.5t26.5 6.5q16 -2 25.5 -12t6.5 -24z" />
    <glyph glyph-name="Dcroat" unicode="&#x110;" horiz-adv-x="659" 
d="M120 469v293q0 16 12 25.5t29 9.5h162q53 0 102 -18t89 -52t63.5 -90.5t23.5 -126.5v-219q0 -70 -23.5 -126.5t-63.5 -90.5t-89 -52t-102 -18h-162q-17 0 -29 9.5t-12 25.5v299q0 25 -25 25h-28q-16 0 -25.5 12t-9.5 29t9.5 29t25.5 12h28q11 0 18 7t7 17zM202 699v-230
q0 -10 7 -17t17 -7h76q16 0 25.5 -12t9.5 -29t-9.5 -29t-25.5 -12h-76q-10 0 -17 -7t-7 -18v-236q0 -16 16 -16h105q82 0 139 52.5t57 152.5v219q0 100 -57 152.5t-139 52.5h-105q-16 0 -16 -16z" />
    <glyph glyph-name="dcroat" unicode="&#x111;" horiz-adv-x="709" 
d="M518 500q18 0 18 18v256q0 16 12 24.5t29 8.5t29 -8.5t12 -24.5v-737q0 -17 -11.5 -27.5t-29.5 -10.5q-26 0 -36 19q-11 17 -22 17q-7 0 -15 -5q-69 -50 -164 -50q-113 0 -195.5 75t-82.5 212t83 212.5t195 75.5q91 0 164 -50q8 -5 14 -5zM340 62q82 0 139 52.5t57 152.5
q0 101 -57 153.5t-139 52.5t-139 -52.5t-57 -153.5q0 -100 57 -152.5t139 -52.5zM460 226h-237q-16 0 -26 12t-10 29q0 18 9.5 29.5t26.5 11.5h237q17 0 26 -11.5t9 -29.5q0 -17 -9.5 -29t-25.5 -12z" />
    <glyph glyph-name="Emacron" unicode="&#x112;" horiz-adv-x="532" 
d="M160 516v-44q0 -15 10.5 -25.5t25.5 -10.5h66q16 0 25.5 -12t9.5 -29t-9.5 -29t-25.5 -12h-66q-15 0 -25.5 -11t-10.5 -29v-37q0 -91 53 -148.5t143 -57.5q25 0 59 9t44 9q23 -2 33 -31t-15 -43q-45 -26 -121 -26q-124 0 -201 81.5t-77 206.5v239q0 125 77 206.5
t201 81.5q76 0 121 -26q25 -14 15 -43t-33 -31q-10 0 -44 9t-59 9q-90 0 -143 -57.5t-53 -148.5zM179 885q0 15 8 25t22 10h255q19 0 26.5 -17.5t0 -35t-26.5 -17.5h-255q-14 0 -22 10t-8 25z" />
    <glyph glyph-name="emacron" unicode="&#x113;" horiz-adv-x="666" 
d="M620 266q0 -15 -9.5 -27t-25.5 -15l-416 -66q25 -49 71 -74t102 -25q46 0 87 18q35 14 50 -23q17 -36 -17 -52q-54 -25 -120 -25q-112 0 -195 75.5t-83 212.5t82.5 212t195.5 75q111 0 194.5 -75t83.5 -211zM160 240l364 58q12 2 10 16q-15 76 -68.5 116t-123.5 40
q-82 0 -139 -52.5t-57 -152.5v-14q1 -13 14 -11zM186 677q0 15 8 25t22 10h255q19 0 26.5 -17.5t0 -35t-26.5 -17.5h-255q-14 0 -22 10t-8 25z" />
    <glyph glyph-name="Ebreve" unicode="&#x114;" horiz-adv-x="574" 
d="M160 516v-44q0 -15 10.5 -25.5t25.5 -10.5h66q16 0 25.5 -12t9.5 -29t-9.5 -29t-25.5 -12h-66q-15 0 -25.5 -11t-10.5 -29v-37q0 -91 53 -148.5t143 -57.5q25 0 59 9t44 9q23 -2 33 -31t-15 -43q-45 -26 -121 -26q-124 0 -201 81.5t-77 206.5v239q0 125 77 206.5
t201 81.5q76 0 121 -26q25 -14 15 -43t-33 -31q-10 0 -44 9t-59 9q-90 0 -143 -57.5t-53 -148.5zM200 957l107 -54q8 -5 16 -5t16 5l107 54q6 3 13 3q19 0 28 -16.5t4 -34.5t-19 -19l-142 -39q-7 -1 -14 0l-141 39q-15 1 -20 19t3.5 34.5t28.5 16.5q7 0 13 -3z" />
    <glyph glyph-name="ebreve" unicode="&#x115;" horiz-adv-x="666" 
d="M620 266q0 -15 -9.5 -27t-25.5 -15l-416 -66q25 -49 71 -74t102 -25q46 0 87 18q35 14 50 -23q17 -36 -17 -52q-54 -25 -120 -25q-112 0 -195 75.5t-83 212.5t82.5 212t195.5 75q111 0 194.5 -75t83.5 -211zM160 240l364 58q12 2 10 16q-15 76 -68.5 116t-123.5 40
q-82 0 -139 -52.5t-57 -152.5v-14q1 -13 14 -11zM243 730l107 -54q8 -5 16 -5t16 5l107 54q6 3 13 3q19 0 28 -16.5t4 -34.5t-19 -19l-142 -39q-7 -1 -14 0l-141 39q-15 1 -20 19t3.5 34.5t28.5 16.5q7 0 13 -3z" />
    <glyph glyph-name="Edotaccent" unicode="&#x116;" horiz-adv-x="532" 
d="M160 516v-44q0 -15 10.5 -25.5t25.5 -10.5h66q16 0 25.5 -12t9.5 -29t-9.5 -29t-25.5 -12h-66q-15 0 -25.5 -11t-10.5 -29v-37q0 -91 53 -148.5t143 -57.5q25 0 59 9t44 9q23 -2 33 -31t-15 -43q-45 -26 -121 -26q-124 0 -201 81.5t-77 206.5v239q0 125 77 206.5
t201 81.5q76 0 121 -26q25 -14 15 -43t-33 -31q-10 0 -44 9t-59 9q-90 0 -143 -57.5t-53 -148.5zM306 888q0 16 10.5 27.5t30.5 11.5t30.5 -11.5t10.5 -27.5t-10.5 -27.5t-30.5 -11.5t-30.5 11.5t-10.5 27.5z" />
    <glyph glyph-name="edotaccent" unicode="&#x117;" horiz-adv-x="666" 
d="M620 266q0 -15 -9.5 -27t-25.5 -15l-416 -66q25 -49 71 -74t102 -25q46 0 87 18q35 14 50 -23q17 -36 -17 -52q-54 -25 -120 -25q-112 0 -195 75.5t-83 212.5t82.5 212t195.5 75q111 0 194.5 -75t83.5 -211zM160 240l364 58q12 2 10 16q-15 76 -68.5 116t-123.5 40
q-82 0 -139 -52.5t-57 -152.5v-14q1 -13 14 -11zM328 676q0 16 10.5 27.5t30.5 11.5t30.5 -11.5t10.5 -27.5t-10.5 -27.5t-30.5 -11.5t-30.5 11.5t-10.5 27.5z" />
    <glyph glyph-name="Eogonek" unicode="&#x118;" horiz-adv-x="532" 
d="M160 516v-44q0 -15 10.5 -25.5t25.5 -10.5h66q16 0 25.5 -12t9.5 -29t-9.5 -29t-25.5 -12h-66q-15 0 -25.5 -11t-10.5 -29v-37q0 -91 53 -148.5t143 -57.5q25 0 59 9t44 9q19 -2 29.5 -21.5t4.5 -33.5q-3 -12 -16 -19q-9 -6 -29 -13q-9 -8 -9 -21q0 -12 6 -18q7 -7 20 -7
q16 0 25 14q8 14 25 14q12 0 20.5 -8.5t8.5 -20.5q0 -11 -4 -15q-27 -44 -75 -44q-38 0 -62 26q-25 25 -25 59v9q-8 -1 -22 -1q-124 0 -201 81.5t-77 206.5v239q0 125 77 206.5t201 81.5q76 0 121 -26q25 -14 15 -43t-33 -31q-10 0 -44 9t-59 9q-90 0 -143 -57.5t-53 -148.5
z" />
    <glyph glyph-name="eogonek" unicode="&#x119;" horiz-adv-x="666" 
d="M620 266q0 -15 -9.5 -27t-25.5 -15l-416 -66q25 -49 71 -74t102 -25q46 0 87 18q20 8 36 -4q12 -8 15.5 -23.5t1.5 -24.5q-3 -15 -20 -23q-2 -1 -7.5 -3t-8.5 -3q-16 -10 -16 -32q-2 -11 6.5 -20t21.5 -7.5t23 16.5q8 14 25 14q12 0 20.5 -8.5t8.5 -20.5q0 -11 -4 -15
q-27 -44 -75 -44q-37 0 -62 25t-25 60q0 9 1 14q-9 -1 -28 -1q-112 0 -195 75.5t-83 212.5t82.5 212t195.5 75q111 0 194.5 -75t83.5 -211zM160 240l364 58q12 2 10 16q-15 76 -68.5 116t-123.5 40q-82 0 -139 -52.5t-57 -152.5v-14q1 -13 14 -11z" />
    <glyph glyph-name="Ecaron" unicode="&#x11a;" horiz-adv-x="532" 
d="M160 516v-44q0 -15 10.5 -25.5t25.5 -10.5h66q16 0 25.5 -12t9.5 -29t-9.5 -29t-25.5 -12h-66q-15 0 -25.5 -11t-10.5 -29v-37q0 -91 53 -148.5t143 -57.5q25 0 59 9t44 9q23 -2 33 -31t-15 -43q-45 -26 -121 -26q-124 0 -201 81.5t-77 206.5v239q0 125 77 206.5
t201 81.5q76 0 121 -26q25 -14 15 -43t-33 -31q-10 0 -44 9t-59 9q-90 0 -143 -57.5t-53 -148.5zM252 946q44 -27 104 -27q61 0 105 27q6 3 12 3q11 0 18 -7.5t7 -17.5q2 -11 -9 -20q-70 -55 -133 -55q-62 0 -132 55q-8 8 -8 20q0 10 6.5 17.5t16.5 7.5q7 0 13 -3z" />
    <glyph glyph-name="ecaron" unicode="&#x11b;" horiz-adv-x="666" 
d="M620 266q0 -15 -9.5 -27t-25.5 -15l-416 -66q25 -49 71 -74t102 -25q46 0 87 18q35 14 50 -23q17 -36 -17 -52q-54 -25 -120 -25q-112 0 -195 75.5t-83 212.5t82.5 212t195.5 75q111 0 194.5 -75t83.5 -211zM160 240l364 58q12 2 10 16q-15 76 -68.5 116t-123.5 40
q-82 0 -139 -52.5t-57 -152.5v-14q1 -13 14 -11zM262 724q44 -27 104 -27q61 0 105 27q6 3 12 3q11 0 18 -7.5t7 -17.5q2 -11 -9 -20q-70 -55 -133 -55q-62 0 -132 55q-8 8 -8 20q0 10 6.5 17.5t16.5 7.5q7 0 13 -3z" />
    <glyph glyph-name="Gcircumflex" unicode="&#x11c;" 
d="M552 277v127q0 16 12 26t29 10t29 -10t12 -26v-360q0 -44 -41 -44t-41 44q0 7 -6 9.5t-11 -2.5q-76 -61 -179 -61q-112 0 -195 75t-83 212v244q0 125 77 206t201 81q71 0 121 -25q26 -16 19 -45.5t-37 -29.5q-9 0 -43 9t-60 9q-90 0 -143 -57.5t-53 -148.5v-243
q0 -100 57 -152.5t139 -52.5t139 52.5t57 152.5zM457 852q-44 27 -104 27q-57 0 -105 -27q-4 -3 -12 -3q-25 0 -25 25q0 11 9 20q62 55 133 55q62 0 132 -55q10 -7 10 -20q0 -25 -25 -25q-7 0 -13 3z" />
    <glyph glyph-name="gcircumflex" unicode="&#x11d;" horiz-adv-x="709" 
d="M619 497v-480q0 -137 -83 -212t-195 -75q-66 0 -120 25q-15 7 -19.5 20.5t3.5 29.5q17 36 50 25q41 -18 86 -18q78 0 135 49.5t61 143.5v14q0 18 -18 18q-8 -1 -14 -5q-69 -50 -164 -50q-112 0 -195 75.5t-83 212.5t82.5 212t195.5 75q91 0 164 -50q8 -5 14 -5
q14 0 21 14q10 22 38 22q17 0 29 -10.5t12 -30.5zM341 475q-82 0 -139 -52.5t-57 -152.5q0 -101 57 -153.5t139 -52.5t139 52.5t57 153.5q0 100 -57 152.5t-139 52.5zM449 630q-44 27 -104 27q-57 0 -105 -27q-4 -3 -12 -3q-25 0 -25 25q0 11 9 20q62 55 133 55
q62 0 132 -55q10 -7 10 -20q0 -25 -25 -25q-7 0 -13 3z" />
    <glyph glyph-name="Gbreve" unicode="&#x11e;" 
d="M552 277v127q0 16 12 26t29 10t29 -10t12 -26v-360q0 -44 -41 -44t-41 44q0 7 -6 9.5t-11 -2.5q-76 -61 -179 -61q-112 0 -195 75t-83 212v244q0 125 77 206t201 81q71 0 121 -25q26 -16 19 -45.5t-37 -29.5q-9 0 -43 9t-60 9q-90 0 -143 -57.5t-53 -148.5v-243
q0 -100 57 -152.5t139 -52.5t139 52.5t57 152.5zM226 957l107 -54q8 -5 16 -5t16 5l107 54q6 3 13 3q19 0 28 -16.5t4 -34.5t-19 -19l-142 -39q-7 -1 -14 0l-141 39q-15 1 -20 19t3.5 34.5t28.5 16.5q7 0 13 -3z" />
    <glyph glyph-name="gbreve" unicode="&#x11f;" horiz-adv-x="709" 
d="M619 497v-480q0 -137 -83 -212t-195 -75q-66 0 -120 25q-15 7 -19.5 20.5t3.5 29.5q17 36 50 25q41 -18 86 -18q78 0 135 49.5t61 143.5v14q0 18 -18 18q-8 -1 -14 -5q-69 -50 -164 -50q-112 0 -195 75.5t-83 212.5t82.5 212t195.5 75q91 0 164 -50q8 -5 14 -5
q14 0 21 14q10 22 38 22q17 0 29 -10.5t12 -30.5zM341 475q-82 0 -139 -52.5t-57 -152.5q0 -101 57 -153.5t139 -52.5t139 52.5t57 153.5q0 100 -57 152.5t-139 52.5zM242 728l107 -54q8 -5 16 -5t16 5l107 54q6 3 13 3q19 0 28 -16.5t4 -34.5t-19 -19l-142 -39q-7 -1 -14 0
l-141 39q-15 1 -20 19t3.5 34.5t28.5 16.5q7 0 13 -3z" />
    <glyph glyph-name="Gdotaccent" unicode="&#x120;" 
d="M552 277v127q0 16 12 26t29 10t29 -10t12 -26v-360q0 -44 -41 -44t-41 44q0 7 -6 9.5t-11 -2.5q-76 -61 -179 -61q-112 0 -195 75t-83 212v244q0 125 77 206t201 81q71 0 121 -25q26 -16 19 -45.5t-37 -29.5q-9 0 -43 9t-60 9q-90 0 -143 -57.5t-53 -148.5v-243
q0 -100 57 -152.5t139 -52.5t139 52.5t57 152.5zM304 888q0 16 10.5 27.5t30.5 11.5t30.5 -11.5t10.5 -27.5t-10.5 -27.5t-30.5 -11.5t-30.5 11.5t-10.5 27.5z" />
    <glyph glyph-name="gdotaccent" unicode="&#x121;" horiz-adv-x="709" 
d="M619 497v-480q0 -137 -83 -212t-195 -75q-66 0 -120 25q-15 7 -19.5 20.5t3.5 29.5q17 36 50 25q41 -18 86 -18q78 0 135 49.5t61 143.5v14q0 18 -18 18q-8 -1 -14 -5q-69 -50 -164 -50q-112 0 -195 75.5t-83 212.5t82.5 212t195.5 75q91 0 164 -50q8 -5 14 -5
q14 0 21 14q10 22 38 22q17 0 29 -10.5t12 -30.5zM341 475q-82 0 -139 -52.5t-57 -152.5q0 -101 57 -153.5t139 -52.5t139 52.5t57 153.5q0 100 -57 152.5t-139 52.5zM313 676q0 16 10.5 27.5t30.5 11.5t30.5 -11.5t10.5 -27.5t-10.5 -27.5t-30.5 -11.5t-30.5 11.5
t-10.5 27.5z" />
    <glyph glyph-name="Gcommaaccent" unicode="&#x122;" 
d="M552 277v127q0 16 12 26t29 10t29 -10t12 -26v-360q0 -44 -41 -44t-41 44q0 7 -6 9.5t-11 -2.5q-76 -61 -179 -61q-112 0 -195 75t-83 212v244q0 125 77 206t201 81q71 0 121 -25q26 -16 19 -45.5t-37 -29.5q-9 0 -43 9t-60 9q-90 0 -143 -57.5t-53 -148.5v-243
q0 -100 57 -152.5t139 -52.5t139 52.5t57 152.5zM430 -103l-30 -141q-5 -20 -22 -18q-18 3 -18 22v144q0 15 12 24t27 7t24.5 -13t6.5 -25z" />
    <glyph glyph-name="gcommaaccent" unicode="&#x123;" horiz-adv-x="709" 
d="M619 497v-480q0 -137 -83 -212t-195 -75q-66 0 -120 25q-15 7 -19.5 20.5t3.5 29.5q17 36 50 25q41 -18 86 -18q78 0 135 49.5t61 143.5v14q0 18 -18 18q-8 -1 -14 -5q-69 -50 -164 -50q-112 0 -195 75.5t-83 212.5t82.5 212t195.5 75q91 0 164 -50q8 -5 14 -5
q14 0 21 14q10 22 38 22q17 0 29 -10.5t12 -30.5zM341 475q-82 0 -139 -52.5t-57 -152.5q0 -101 57 -153.5t139 -52.5t139 52.5t57 153.5q0 100 -57 152.5t-139 52.5zM322 663l31 144q5 18 22 17t17 -22v-145q0 -15 -11.5 -23.5t-26.5 -6.5q-16 2 -25.5 12t-6.5 24z" />
    <glyph glyph-name="Hcircumflex" unicode="&#x124;" horiz-adv-x="736" 
d="M564 459v303q0 16 12 25.5t29 9.5t29 -9.5t12 -25.5v-727q0 -16 -12 -25.5t-29 -9.5t-29 9.5t-12 25.5v301q0 8 -6 14t-15 6h-351q-8 0 -14 -6t-6 -14v-301q0 -16 -12 -25.5t-29 -9.5t-29 9.5t-12 25.5v727q0 16 12 25.5t29 9.5t29 -9.5t12 -25.5v-303q0 -8 6 -14.5
t14 -6.5h351q9 0 15 6.5t6 14.5zM473 852q-44 27 -104 27q-57 0 -105 -27q-4 -3 -12 -3q-25 0 -25 25q0 11 9 20q62 55 133 55q62 0 132 -55q10 -7 10 -20q0 -25 -25 -25q-7 0 -13 3z" />
    <glyph glyph-name="hcircumflex" unicode="&#x125;" horiz-adv-x="723" 
d="M172 774v-239q0 -10 7 -17t18 -7q9 0 13 4q68 45 158 45q112 0 195 -75t83 -212v-239q0 -16 -12 -25t-29 -9t-29 9t-12 25v239q0 100 -57 152.5t-139 52.5t-139 -52.5t-57 -152.5v-239q0 -16 -12 -25t-29 -9t-29 9t-12 25v740q0 16 12.5 25t28.5 9q17 0 29 -9t12 -25z
M474 630q-44 27 -104 27q-57 0 -105 -27q-5 -3 -12 -3q-25 0 -25 25q0 11 9 20q62 55 133 55q62 0 132 -55q10 -7 10 -20q0 -25 -25 -25q-7 0 -13 3z" />
    <glyph glyph-name="Hbar" unicode="&#x126;" horiz-adv-x="736" 
d="M227 642q0 15 8 25t22 10h221q19 0 26.5 -17.5t0 -35t-26.5 -17.5h-221q-14 0 -22 10t-8 25zM564 459v303q0 16 12 25.5t29 9.5t29 -9.5t12 -25.5v-727q0 -16 -12 -25.5t-29 -9.5t-29 9.5t-12 25.5v301q0 8 -6 14t-15 6h-351q-8 0 -14 -6t-6 -14v-301q0 -16 -12 -25.5
t-29 -9.5t-29 9.5t-12 25.5v727q0 16 12 25.5t29 9.5t29 -9.5t12 -25.5v-303q0 -8 6 -14.5t14 -6.5h351q9 0 15 6.5t6 14.5z" />
    <glyph glyph-name="hbar" unicode="&#x127;" horiz-adv-x="743" 
d="M172 643v-108q0 -10 7 -17t18 -7q9 0 13 4q68 45 158 45q112 0 195 -75t83 -212v-239q0 -16 -12 -25t-29 -9t-29 9t-12 25v239q0 100 -57 152.5t-139 52.5t-139 -52.5t-57 -152.5v-239q0 -16 -12 -25t-29 -9t-29 9t-12 25v609h-29q-14 0 -22 10t-8 25t8 25t22 10h29v61
q0 16 12.5 25t28.5 9q17 0 29 -9t12 -25v-61h144q19 0 26.5 -17.5t0 -35t-26.5 -17.5h-144z" />
    <glyph glyph-name="Itilde" unicode="&#x128;" horiz-adv-x="262" 
d="M90 35v727q0 16 12 25.5t29 9.5t29 -9.5t12 -25.5v-727q0 -16 -12 -25.5t-29 -9.5t-29 9.5t-12 25.5zM150 860l-69 39q-11 6 -19 6q-29 0 -34 -32q-4 -26 -35 -25.5t-31 27.5q0 39 30.5 67t69.5 28q29 0 51 -13l69 -39q10 -6 19 -6q29 0 34 32q5 26 34 26q14 0 23 -7.5
t9 -20.5q0 -39 -30.5 -67t-69.5 -28q-29 0 -51 13z" />
    <glyph glyph-name="itilde" unicode="&#x129;" horiz-adv-x="306" 
d="M134 629l-69 39q-10 6 -19 6q-29 0 -34 -32q-4 -26 -35 -25.5t-31 27.5q0 39 30.5 67t69.5 28q29 0 51 -13l69 -39q11 -6 19 -6q29 0 34 32q5 26 34 26q14 0 23 -7.5t9 -20.5q0 -39 -30.5 -67t-69.5 -28q-29 0 -51 13zM79 231v271q0 16 12 26t29 10t29 -10t12 -26v-266
q0 -50 26.5 -96.5t69.5 -76.5q18 -13 18 -31t-13.5 -30t-31.5 -12q-22 0 -53 30t-51 61q-46 72 -47 150z" />
    <glyph glyph-name="Imacron" unicode="&#x12a;" horiz-adv-x="262" 
d="M90 35v727q0 16 12 25.5t29 9.5t29 -9.5t12 -25.5v-727q0 -16 -12 -25.5t-29 -9.5t-29 9.5t-12 25.5zM-27 885q0 15 8 25t22 10h255q19 0 26.5 -17.5t0 -35t-26.5 -17.5h-255q-14 0 -22 10t-8 25z" />
    <glyph glyph-name="imacron" unicode="&#x12b;" horiz-adv-x="306" 
d="M-34 677q0 15 8 25t22 10h255q19 0 26.5 -17.5t0 -35t-26.5 -17.5h-255q-14 0 -22 10t-8 25zM79 231v271q0 16 12 26t29 10t29 -10t12 -26v-266q0 -50 26.5 -96.5t69.5 -76.5q18 -13 18 -31t-13.5 -30t-31.5 -12q-22 0 -53 30t-51 61q-46 72 -47 150z" />
    <glyph glyph-name="Ibreve" unicode="&#x12c;" horiz-adv-x="262" 
d="M90 35v727q0 16 12 25.5t29 9.5t29 -9.5t12 -25.5v-727q0 -16 -12 -25.5t-29 -9.5t-29 9.5t-12 25.5zM4 958l107 -54q8 -5 16 -5t16 5l107 54q6 3 13 3q19 0 28 -16.5t4 -34.5t-19 -19l-142 -39q-7 -1 -14 0l-141 39q-15 1 -20 19t3.5 34.5t28.5 16.5q7 0 13 -3z" />
    <glyph glyph-name="ibreve" unicode="&#x12d;" horiz-adv-x="306" 
d="M-6 729l107 -54q8 -5 16 -5t16 5l107 54q6 3 13 3q19 0 28 -16.5t4 -34.5t-19 -19l-142 -39q-7 -1 -14 0l-141 39q-15 1 -20 19t3.5 34.5t28.5 16.5q7 0 13 -3zM79 231v271q0 16 12 26t29 10t29 -10t12 -26v-266q0 -50 26.5 -96.5t69.5 -76.5q18 -13 18 -31t-13.5 -30
t-31.5 -12q-22 0 -53 30t-51 61q-46 72 -47 150z" />
    <glyph glyph-name="Iogonek" unicode="&#x12e;" horiz-adv-x="262" 
d="M90 39v723q0 16 12 25.5t29 9.5t29 -9.5t12 -25.5v-731q0 -12 -9 -20t-20 -11.5t-19.5 -10.5t-8.5 -18q3 -24 27 -25q12 -2 25 13t25 15q10 0 18.5 -8.5t10.5 -20.5q0 -25 -27 -42t-52 -17q-37 0 -62 25.5t-25 59.5q0 44 35 68z" />
    <glyph glyph-name="iogonek" unicode="&#x12f;" horiz-adv-x="306" 
d="M78 231v271q0 16 12 26t29 10t29 -10t12 -26v-266q0 -50 26.5 -96.5t69.5 -76.5q3 -2 10 -9q11 -9 9 -35q0 -26 -28 -32t-28 -29q0 -12 6 -18q7 -7 20 -7q16 0 25 14q8 14 25 14q12 0 20.5 -8.5t8.5 -20.5q0 -11 -4 -15q-27 -44 -75 -44q-38 0 -62 26q-25 25 -25 59
q0 36 22 58q-33 33 -55 65q-46 72 -47 150zM77 671q0 16 10.5 27.5t30.5 11.5t30.5 -11.5t10.5 -27.5t-10.5 -27.5t-30.5 -11.5t-30.5 11.5t-10.5 27.5z" />
    <glyph glyph-name="Idotaccent" unicode="&#x130;" horiz-adv-x="262" 
d="M90 35v727q0 16 12 25.5t29 9.5t29 -9.5t12 -25.5v-727q0 -16 -12 -25.5t-29 -9.5t-29 9.5t-12 25.5zM90 888q0 16 10.5 27.5t30.5 11.5t30.5 -11.5t10.5 -27.5t-10.5 -27.5t-30.5 -11.5t-30.5 11.5t-10.5 27.5z" />
    <glyph glyph-name="dotlessi" unicode="&#x131;" horiz-adv-x="306" 
d="M79 231v271q0 16 12 26t29 10t29 -10t12 -26v-266q0 -50 26.5 -96.5t69.5 -76.5q18 -13 18 -31t-13.5 -30t-31.5 -12q-22 0 -53 30t-51 61q-46 72 -47 150z" />
    <glyph glyph-name="ij" unicode="&#x133;" horiz-adv-x="532" 
d="M77 671q0 16 10.5 27.5t30.5 11.5t30.5 -11.5t10.5 -27.5t-10.5 -27.5t-30.5 -11.5t-30.5 11.5t-10.5 27.5zM78 231v271q0 16 12 26t29 10t29 -10t12 -26v-266q0 -50 26.5 -96.5t69.5 -76.5q18 -13 18 -31t-13.5 -30t-31.5 -12q-22 0 -53 30t-51 61q-46 72 -47 150z
M373 673q0 16 10.5 27.5t30.5 11.5t30.5 -11.5t10.5 -27.5t-10.5 -27.5t-30.5 -11.5t-30.5 11.5t-10.5 27.5zM455 502v-485q0 -137 -83 -212.5t-195 -75.5q-16 0 -25.5 12t-9.5 29t9.5 29t25.5 12q82 0 139 52.5t57 153.5v485q0 16 12 25.5t29 9.5t29 -9.5t12 -25.5z" />
    <glyph glyph-name="Jcircumflex" unicode="&#x134;" horiz-adv-x="508" 
d="M430 762v-485q0 -137 -83 -212t-195 -75q-68 0 -121 26q-23 12 -21 37q1 18 11 29.5t27 11.5q10 0 17 -4q41 -18 87 -18q82 0 139 52.5t57 152.5v485q0 16 12 25.5t29 9.5t29 -9.5t12 -25.5zM495 870q-44 27 -104 27q-57 0 -105 -27q-4 -3 -12 -3q-25 0 -25 25q0 11 9 20
q62 55 133 55q62 0 132 -55q10 -7 10 -20q0 -25 -25 -25q-7 0 -13 3z" />
    <glyph glyph-name="jcircumflex" unicode="&#x135;" horiz-adv-x="319" 
d="M216 496v-478q0 -137 -83 -212.5t-195 -75.5q-17 0 -29 12t-12 29t12 29t29 12q82 0 139 53t57 153v478q0 17 12 29t29 12t29 -12t12 -29zM280 631q-44 27 -104 27q-57 0 -105 -27q-5 -3 -12 -3q-25 0 -25 25q0 11 9 20q62 55 133 55q62 0 132 -55q10 -7 10 -20
q0 -25 -25 -25q-7 0 -13 3z" />
    <glyph glyph-name="Kcommaaccent" unicode="&#x136;" horiz-adv-x="709" 
d="M446 433q88 -24 144 -94.5t56 -182.5v-121q0 -16 -12 -25.5t-29 -9.5t-29 9.5t-12 25.5v121q0 100 -57 152.5t-139 52.5t-139 -52.5t-57 -152.5v-121q0 -16 -12 -25.5t-29 -9.5t-29 9.5t-12 25.5v726q0 16 12 26t29 10t29 -10t12 -26v-342q0 -25 25 -25q9 0 13 4
q38 26 84 36q16 5 24 17l191 267q9 14 25.5 14.5t28.5 -9.5q15 -9 18.5 -23.5t-5.5 -28.5l-143 -200q-5 -8 -5 -14q0 -19 18 -24zM397 -103l-30 -141q-5 -20 -22 -18q-18 3 -18 22v144q0 15 12 24t27 7t24.5 -13t6.5 -25z" />
    <glyph glyph-name="kcommaaccent" unicode="&#x137;" horiz-adv-x="704" 
d="M446 365q88 -24 144 -94.5t56 -182.5v-53q0 -16 -12 -25.5t-29 -9.5t-29 9.5t-12 25.5v53q0 100 -57 152.5t-139 52.5t-139 -52.5t-57 -152.5v-53q0 -16 -12 -25.5t-29 -9.5t-29 9.5t-12 25.5v738q0 17 11.5 26t29.5 9t29.5 -9t11.5 -26v-422q0 -25 25 -25q9 0 13 4
q38 26 84 36q16 5 24 17l112 160q9 14 26 14.5t31 -9.5q31 -21 10 -52l-64 -93q-5 -8 -5 -14q0 -19 18 -24zM403 -103l-30 -141q-5 -20 -22 -18q-18 3 -18 22v144q0 15 12 24t27 7t24.5 -13t6.5 -25z" />
    <glyph glyph-name="kgreenlandic" unicode="&#x138;" horiz-adv-x="704" 
d="M446 371q88 -24 144 -94.5t56 -182.5v-58q0 -17 -11.5 -26.5t-29.5 -9.5t-29.5 9.5t-11.5 26.5v58q0 100 -57 152.5t-139 52.5t-139 -52.5t-57 -152.5v-58q0 -17 -11.5 -26.5t-29.5 -9.5t-29.5 9.5t-11.5 26.5v466q0 17 11.5 26.5t29.5 9.5t29.5 -9.5t11.5 -26.5v-146
q0 -10 7 -17.5t18 -7.5q5 0 13 5q38 22 84 36q14 3 24 16l91 133q21 24 46 11t29 -34q0 -13 -8 -24l-43 -65q-5 -8 -5 -15q0 -18 18 -23z" />
    <glyph glyph-name="Lacute" unicode="&#x139;" horiz-adv-x="508" 
d="M77 276v486q0 16 12 25.5t29 9.5t29 -9.5t12 -25.5v-486q0 -100 57 -152.5t139 -52.5q47 0 87 18q7 4 17 4q17 0 27 -11.5t11 -29.5q2 -25 -21 -37q-53 -26 -121 -26q-112 0 -195 75t-83 212zM138 856q-19 -5 -26 11q-8 16 11 26l129 68q26 10 40 -21q13 -32 -13 -44
q-1 0 -3 -1q-1 -1 -44 -13q-64 -18 -94 -26z" />
    <glyph glyph-name="lacute" unicode="&#x13a;" horiz-adv-x="428" 
d="M78 268v504q0 17 11.5 26t29.5 9t29.5 -9t11.5 -26v-504q0 -101 57 -153.5t139 -52.5q16 0 26 -12t10 -29t-10 -29t-26 -12q-112 0 -195 75.5t-83 212.5zM131 849q-19 -5 -26 11q-8 16 11 26l129 68q26 10 40 -21q13 -32 -13 -44q-1 0 -3 -1q-1 -1 -44 -13
q-64 -18 -94 -26z" />
    <glyph glyph-name="Lcommaaccent" unicode="&#x13b;" horiz-adv-x="508" 
d="M77 276v486q0 16 12 25.5t29 9.5t29 -9.5t12 -25.5v-486q0 -100 57 -152.5t139 -52.5q47 0 87 18q7 4 17 4q17 0 27 -11.5t11 -29.5q2 -25 -21 -37q-53 -26 -121 -26q-112 0 -195 75t-83 212zM382 -104l-30 -141q-5 -20 -22 -18q-18 3 -18 22v144q0 15 12 24t27 7
t24.5 -13t6.5 -25z" />
    <glyph glyph-name="lcommaaccent" unicode="&#x13c;" horiz-adv-x="428" 
d="M78 268v504q0 17 11.5 26t29.5 9t29.5 -9t11.5 -26v-504q0 -101 57 -153.5t139 -52.5q16 0 26 -12t10 -29t-10 -29t-26 -12q-112 0 -195 75.5t-83 212.5zM321 -103l-30 -141q-5 -20 -22 -18q-18 3 -18 22v144q0 15 12 24t27 7t24.5 -13t6.5 -25z" />
    <glyph glyph-name="Lcaron" unicode="&#x13d;" horiz-adv-x="508" 
d="M77 276v486q0 16 12 25.5t29 9.5t29 -9.5t12 -25.5v-486q0 -100 57 -152.5t139 -52.5q47 0 87 18q7 4 17 4q17 0 27 -11.5t11 -29.5q2 -25 -21 -37q-53 -26 -121 -26q-112 0 -195 75t-83 212zM168 1010l-31 -144q-5 -18 -22 -17t-17 22v145q0 15 11.5 23.5t26.5 6.5
q16 -2 25.5 -12t6.5 -24z" />
    <glyph glyph-name="lcaron" unicode="&#x13e;" horiz-adv-x="428" 
d="M78 268v504q0 17 11.5 26t29.5 9t29.5 -9t11.5 -26v-504q0 -101 57 -153.5t139 -52.5q16 0 26 -12t10 -29t-10 -29t-26 -12q-112 0 -195 75.5t-83 212.5zM391 771l-31 -144q-5 -18 -22 -17t-17 22v145q0 15 11.5 23.5t26.5 6.5q16 -2 25.5 -12t6.5 -24z" />
    <glyph glyph-name="Ldot" unicode="&#x13f;" horiz-adv-x="508" 
d="M77 276v486q0 16 12 25.5t29 9.5t29 -9.5t12 -25.5v-486q0 -100 57 -152.5t139 -52.5q47 0 87 18q7 4 17 4q17 0 27 -11.5t11 -29.5q2 -25 -21 -37q-53 -26 -121 -26q-112 0 -195 75t-83 212zM365 266q0 16 10.5 27.5t30.5 11.5t30.5 -11.5t10.5 -27.5t-10.5 -27.5
t-30.5 -11.5t-30.5 11.5t-10.5 27.5z" />
    <glyph glyph-name="ldot" unicode="&#x140;" horiz-adv-x="429" 
d="M78 268v504q0 17 11.5 26t29.5 9t29.5 -9t11.5 -26v-504q0 -101 57 -153.5t139 -52.5q16 0 26 -12t10 -29t-10 -29t-26 -12q-112 0 -195 75.5t-83 212.5zM373 269q0 16 10.5 27.5t30.5 11.5t30.5 -11.5t10.5 -27.5t-10.5 -27.5t-30.5 -11.5t-30.5 11.5t-10.5 27.5z" />
    <glyph glyph-name="Lslash" unicode="&#x141;" horiz-adv-x="589" 
d="M158 268v176q0 4 -3 5.5t-6 -0.5l-83 -55q-9 -6 -19 -6q-13 1 -22.5 12t-9.5 26q-1 16 12 26l115 78q16 10 16 29v204q0 17 11.5 26.5t29.5 9.5t29.5 -9.5t11.5 -26.5v-157q0 -6 6 -6q2 0 3 1l90 60q8 5 19 5q13 -1 23 -11t10 -24q1 -18 -13 -28l-123 -83q-15 -9 -15 -29
v-223q0 -100 57 -152.5t139 -52.5q46 0 87 18q7 4 17 4q15 0 26.5 -12t11.5 -29q3 -33 -44.5 -48t-97.5 -15q-112 0 -195 75t-83 212z" />
    <glyph glyph-name="lslash" unicode="&#x142;" horiz-adv-x="511" 
d="M221 528v-277q0 -84 61 -136.5t141 -52.5q3 0 9 0.5t10 0.5q42 0 42 -41q0 -27 -15 -34.5t-45 -7.5q-111 0 -198 74.5t-87 193.5v225l-72 -48q-9 -6 -20 -6q-29 2 -34 35q-1 19 15 29l111 74v206q0 17 11.5 26.5t29.5 9.5t29.5 -9.5t11.5 -26.5v-150l76 51q9 6 19 6
q13 -1 23.5 -11.5t11.5 -23.5q0 -19 -15 -29z" />
    <glyph glyph-name="Nacute" unicode="&#x143;" 
d="M159 521v-486q0 -16 -12 -25.5t-29 -9.5t-29 9.5t-12 25.5v485q0 71 24 127.5t64 90.5t89 52t101 18q113 0 195.5 -75t82.5 -212v-486q0 -16 -12 -25.5t-29 -9.5t-29 9.5t-12 25.5v484q0 102 -57 154.5t-139 52.5t-139 -52.5t-57 -152.5zM370 849q-19 -5 -26 11
q-8 16 11 26l129 68q26 10 40 -21q13 -32 -13 -44q-1 0 -3 -1q-1 -1 -44 -13q-64 -18 -94 -26z" />
    <glyph glyph-name="nacute" unicode="&#x144;" horiz-adv-x="723" 
d="M169 515q8 -14 20 -14q7 0 15 5q73 50 164 50q113 0 195.5 -75t82.5 -212v-234q0 -16 -12 -25.5t-29 -9.5t-29 9.5t-12 25.5v233q0 101 -57 153.5t-139 52.5q-81 0 -138.5 -52.5t-57.5 -151.5v-235q0 -16 -12 -25.5t-29 -9.5t-29 9.5t-12 25.5v461q0 17 12.5 29t28.5 12
q28 0 38 -22zM418 623q-19 -5 -26 11q-8 16 11 26l129 68q26 10 40 -21q13 -32 -13 -44q-1 0 -3 -1q-1 -1 -44 -13q-64 -18 -94 -26z" />
    <glyph glyph-name="Ncommaaccent" unicode="&#x145;" 
d="M159 521v-486q0 -16 -12 -25.5t-29 -9.5t-29 9.5t-12 25.5v485q0 71 24 127.5t64 90.5t89 52t101 18q113 0 195.5 -75t82.5 -212v-486q0 -16 -12 -25.5t-29 -9.5t-29 9.5t-12 25.5v484q0 102 -57 154.5t-139 52.5t-139 -52.5t-57 -152.5zM388 -101l-30 -141
q-5 -20 -22 -18q-18 3 -18 22v144q0 15 12 24t27 7t24.5 -13t6.5 -25z" />
    <glyph glyph-name="ncommaaccent" unicode="&#x146;" horiz-adv-x="723" 
d="M169 515q8 -14 20 -14q7 0 15 5q73 50 164 50q113 0 195.5 -75t82.5 -212v-234q0 -16 -12 -25.5t-29 -9.5t-29 9.5t-12 25.5v233q0 101 -57 153.5t-139 52.5q-81 0 -138.5 -52.5t-57.5 -151.5v-235q0 -16 -12 -25.5t-29 -9.5t-29 9.5t-12 25.5v461q0 17 12.5 29t28.5 12
q28 0 38 -22zM434 -103l-30 -141q-5 -20 -22 -18q-18 3 -18 22v144q0 15 12 24t27 7t24.5 -13t6.5 -25z" />
    <glyph glyph-name="Ncaron" unicode="&#x147;" 
d="M159 521v-486q0 -16 -12 -25.5t-29 -9.5t-29 9.5t-12 25.5v485q0 71 24 127.5t64 90.5t89 52t101 18q113 0 195.5 -75t82.5 -212v-486q0 -16 -12 -25.5t-29 -9.5t-29 9.5t-12 25.5v484q0 102 -57 154.5t-139 52.5t-139 -52.5t-57 -152.5zM251 946q44 -27 104 -27
q61 0 105 27q6 3 12 3q11 0 18 -7.5t7 -17.5q2 -11 -9 -20q-70 -55 -133 -55q-62 0 -132 55q-8 8 -8 20q0 10 6.5 17.5t16.5 7.5q7 0 13 -3z" />
    <glyph glyph-name="ncaron" unicode="&#x148;" horiz-adv-x="723" 
d="M169 515q8 -14 20 -14q7 0 15 5q73 50 164 50q113 0 195.5 -75t82.5 -212v-234q0 -16 -12 -25.5t-29 -9.5t-29 9.5t-12 25.5v233q0 101 -57 153.5t-139 52.5q-81 0 -138.5 -52.5t-57.5 -151.5v-235q0 -16 -12 -25.5t-29 -9.5t-29 9.5t-12 25.5v461q0 17 12.5 29t28.5 12
q28 0 38 -22zM263 724q44 -27 104 -27q61 0 105 27q6 3 12 3q11 0 18 -7.5t7 -17.5q2 -11 -9 -20q-70 -55 -133 -55q-62 0 -132 55q-8 8 -8 20q0 10 6.5 17.5t16.5 7.5q7 0 13 -3z" />
    <glyph glyph-name="napostrophe" unicode="&#x149;" horiz-adv-x="724" 
d="M169 515q8 -14 20 -14q7 0 15 5q73 50 164 50q113 0 195.5 -75t82.5 -212v-234q0 -16 -12 -25.5t-29 -9.5t-29 9.5t-12 25.5v233q0 101 -57 153.5t-139 52.5q-81 0 -138.5 -52.5t-57.5 -151.5v-235q0 -16 -12 -25.5t-29 -9.5t-29 9.5t-12 25.5v461q0 17 12.5 29t28.5 12
q28 0 38 -22zM644 737l-30 -141q-5 -20 -22 -18q-18 3 -18 22v144q0 15 12 24t27 7t24.5 -13t6.5 -25z" />
    <glyph glyph-name="Eng" unicode="&#x14a;" horiz-adv-x="723" 
d="M159 521v-485q0 -17 -11.5 -26.5t-29.5 -9.5t-29.5 9.5t-11.5 26.5v485q0 137 83 212t195 75q108 0 189.5 -70t87.5 -197q1 -1 1 -6v-538q0 -118 -87 -193t-199 -75q-30 0 -43.5 8t-13.5 34q0 41 40 41q99 -1 157 50q64 54 64 138v520q0 101 -57 153.5t-139 52.5
t-139 -52.5t-57 -152.5z" />
    <glyph glyph-name="eng" unicode="&#x14b;" horiz-adv-x="716" 
d="M167 519q16 -27 37 -14q74 50 164 50q113 0 195.5 -75t82.5 -212v-271q0 -118 -87 -193t-199 -75q-30 0 -43.5 8t-13.5 34q0 41 40 41q99 -1 157 50q64 54 64 138v267q0 101 -57 153.5t-139 52.5q-80 0 -138 -52.5t-58 -151.5v-234q0 -17 -11.5 -26.5t-29.5 -9.5
t-29.5 9.5t-11.5 26.5v465q0 17 11.5 26.5t29.5 9.5q25 0 36 -17z" />
    <glyph glyph-name="Omacron" unicode="&#x14c;" horiz-adv-x="700" 
d="M546 277v244q0 100 -57 152.5t-139 52.5t-139 -52.5t-57 -152.5v-244q0 -100 57 -152.5t139 -52.5t139 52.5t57 152.5zM72 277v244q0 137 83 212t195 75q113 0 195.5 -75t82.5 -212v-244q0 -137 -82.5 -212t-195.5 -75q-112 0 -195 75t-83 212zM191 902q0 15 8 25t22 10
h255q19 0 26.5 -17.5t0 -35t-26.5 -17.5h-255q-14 0 -22 10t-8 25z" />
    <glyph glyph-name="omacron" unicode="&#x14d;" horiz-adv-x="676" 
d="M338 -20q-112 0 -195 75.5t-83 212.5t82.5 212t195.5 75q53 0 102 -18t89 -52t63.5 -90.5t23.5 -126.5q0 -137 -83 -212.5t-195 -75.5zM338 62q82 0 139 53t57 153t-57 152.5t-139 52.5t-139 -52.5t-57 -152.5t57.5 -153t138.5 -53zM184 676q0 15 8 25t22 10h255
q19 0 26.5 -17.5t0 -35t-26.5 -17.5h-255q-14 0 -22 10t-8 25z" />
    <glyph glyph-name="Obreve" unicode="&#x14e;" horiz-adv-x="700" 
d="M546 277v244q0 100 -57 152.5t-139 52.5t-139 -52.5t-57 -152.5v-244q0 -100 57 -152.5t139 -52.5t139 52.5t57 152.5zM72 277v244q0 137 83 212t195 75q113 0 195.5 -75t82.5 -212v-244q0 -137 -82.5 -212t-195.5 -75q-112 0 -195 75t-83 212zM227 957l107 -54
q8 -5 16 -5t16 5l107 54q6 3 13 3q19 0 28 -16.5t4 -34.5t-19 -19l-142 -39q-7 -1 -14 0l-141 39q-15 1 -20 19t3.5 34.5t28.5 16.5q7 0 13 -3z" />
    <glyph glyph-name="obreve" unicode="&#x14f;" horiz-adv-x="676" 
d="M338 -20q-112 0 -195 75.5t-83 212.5t82.5 212t195.5 75q53 0 102 -18t89 -52t63.5 -90.5t23.5 -126.5q0 -137 -83 -212.5t-195 -75.5zM338 62q82 0 139 53t57 153t-57 152.5t-139 52.5t-139 -52.5t-57 -152.5t57.5 -153t138.5 -53zM211 729l107 -54q8 -5 16 -5t16 5
l107 54q6 3 13 3q19 0 28 -16.5t4 -34.5t-19 -19l-142 -39q-7 -1 -14 0l-141 39q-15 1 -20 19t3.5 34.5t28.5 16.5q7 0 13 -3z" />
    <glyph glyph-name="Ohungarumlaut" unicode="&#x150;" horiz-adv-x="700" 
d="M546 277v244q0 100 -57 152.5t-139 52.5t-139 -52.5t-57 -152.5v-244q0 -100 57 -152.5t139 -52.5t139 52.5t57 152.5zM72 277v244q0 137 83 212t195 75q113 0 195.5 -75t82.5 -212v-244q0 -137 -82.5 -212t-195.5 -75q-112 0 -195 75t-83 212zM301 993q10 28 43 28
q20 0 27.5 -8.5t-2.5 -30.5l-81 -123q-6 -9 -14 -9q-12 0 -12 12q0 9 39 131zM436 993q10 28 43 28q20 0 27.5 -8.5t-2.5 -30.5l-81 -123q-6 -9 -14 -9q-12 0 -12 12q0 9 39 131z" />
    <glyph glyph-name="ohungarumlaut" unicode="&#x151;" horiz-adv-x="676" 
d="M338 -20q-112 0 -195 75.5t-83 212.5t82.5 212t195.5 75q53 0 102 -18t89 -52t63.5 -90.5t23.5 -126.5q0 -137 -83 -212.5t-195 -75.5zM338 62q82 0 139 53t57 153t-57 152.5t-139 52.5t-139 -52.5t-57 -152.5t57.5 -153t138.5 -53zM291 733q10 28 43 28q20 0 27.5 -8.5
t-2.5 -30.5l-81 -123q-6 -9 -14 -9q-12 0 -12 12q0 9 39 131zM426 733q10 28 43 28q20 0 27.5 -8.5t-2.5 -30.5l-81 -123q-6 -9 -14 -9q-12 0 -12 12q0 9 39 131z" />
    <glyph glyph-name="OE" unicode="&#x152;" horiz-adv-x="999" 
d="M536 267v254q0 100 -57 152.5t-139 52.5t-139 -52.5t-57 -152.5v-254q0 -100 57 -152.5t139 -52.5t139 52.5t57 152.5zM62 267v254q0 137 83 212t195 75q72 0 136 -33t102 -95q36 61 96.5 94.5t139.5 33.5q76 0 121 -26q25 -14 15 -44t-33 -30q-11 -1 -45 8.5t-58 9.5
q-90 0 -143 -57.5t-53 -148.5v-47q0 -15 10.5 -25.5t25.5 -10.5h116q16 0 25.5 -12t9.5 -29q0 -18 -9 -29.5t-26 -11.5h-116q-15 0 -25.5 -11t-10.5 -25v-51q0 -91 53 -148t143 -57q25 0 59 8.5t44 8.5q23 0 33 -30t-15 -44q-50 -25 -121 -25q-160 0 -236 127
q-39 -62 -102.5 -95t-135.5 -33q-112 0 -195 75t-83 212z" />
    <glyph glyph-name="oe" unicode="&#x153;" horiz-adv-x="973" 
d="M341 474q-82 0 -139 -52.5t-57 -153.5q0 -100 57 -152.5t139 -52.5q78 0 137 52t59 143v20q0 95 -58 145.5t-138 50.5zM63 268q0 137 83 212.5t195 75.5q136 0 220 -103q25 49 71 77t106 28q78 0 133.5 -52t55.5 -130t-55 -122t-134 -44h-100q-15 0 -11 -13
q19 -61 74 -98t119 -37q4 0 10.5 0.5t9.5 0.5q20 0 32 -11.5t12 -29.5q0 -42 -62 -42q-74 0 -139.5 33.5t-104.5 95.5q-38 -63 -102 -95.5t-135 -32.5q-112 0 -195 75t-83 212zM734 477q-32 0 -55 -12.5t-33.5 -31t-14.5 -32t-4 -23.5v-62q0 -11 7 -18t17 -7h97q8 0 21 3
t31.5 11t31 27t12.5 46q0 51 -35.5 75t-74.5 24z" />
    <glyph glyph-name="Racute" unicode="&#x154;" horiz-adv-x="709" 
d="M200 324h158q100 0 152.5 57.5t52.5 138.5t-52.5 139t-152.5 58h-157q-12 0 -20.5 -7t-8.5 -18v-343q0 -11 8 -18t20 -7zM128 798h230q137 0 212 -82.5t75 -195.5q0 -67 -28.5 -128.5t-83.5 -98.5q-6 -4 -7 -9.5t4 -8.5q115 -79 115 -238q0 -18 -12 -27.5t-29 -9.5
t-29 9.5t-12 25.5q0 103 -56.5 155t-138.5 52h-168q-12 0 -20 -6.5t-8 -17.5v-183q0 -16 -12 -25.5t-29 -9.5t-29 9.5t-12 25.5v728q0 33 38 35zM352 850q-19 -5 -26 11q-8 16 11 26l129 68q26 10 40 -21q13 -32 -13 -44q-1 0 -3 -1q-1 -1 -44 -13q-64 -18 -94 -26z" />
    <glyph glyph-name="racute" unicode="&#x155;" horiz-adv-x="524" 
d="M159 268v-233q0 -22 -20.5 -31t-41 0t-20.5 31v233q0 125 77 206.5t201 81.5q76 0 121 -26q26 -14 19 -44t-37 -30q-8 0 -42 9t-61 9q-90 0 -143 -57.5t-53 -148.5zM347 623q-19 -5 -26 11q-8 16 11 26l129 68q26 10 40 -21q13 -32 -13 -44q-1 0 -3 -1q-1 -1 -44 -13
q-64 -18 -94 -26z" />
    <glyph glyph-name="Rcommaaccent" unicode="&#x156;" horiz-adv-x="709" 
d="M200 324h158q100 0 152.5 57.5t52.5 138.5t-52.5 139t-152.5 58h-157q-12 0 -20.5 -7t-8.5 -18v-343q0 -11 8 -18t20 -7zM128 798h230q137 0 212 -82.5t75 -195.5q0 -67 -28.5 -128.5t-83.5 -98.5q-6 -4 -7 -9.5t4 -8.5q115 -79 115 -238q0 -18 -12 -27.5t-29 -9.5
t-29 9.5t-12 25.5q0 103 -56.5 155t-138.5 52h-168q-12 0 -20 -6.5t-8 -17.5v-183q0 -16 -12 -25.5t-29 -9.5t-29 9.5t-12 25.5v728q0 33 38 35zM370 -101l-30 -141q-5 -20 -22 -18q-18 3 -18 22v144q0 15 12 24t27 7t24.5 -13t6.5 -25z" />
    <glyph glyph-name="rcommaaccent" unicode="&#x157;" horiz-adv-x="524" 
d="M159 268v-233q0 -22 -20.5 -31t-41 0t-20.5 31v233q0 125 77 206.5t201 81.5q76 0 121 -26q26 -14 19 -44t-37 -30q-8 0 -42 9t-61 9q-90 0 -143 -57.5t-53 -148.5zM390 -101l-30 -141q-5 -20 -22 -18q-18 3 -18 22v144q0 15 12 24t27 7t24.5 -13t6.5 -25z" />
    <glyph glyph-name="Rcaron" unicode="&#x158;" horiz-adv-x="709" 
d="M200 324h158q100 0 152.5 57.5t52.5 138.5t-52.5 139t-152.5 58h-157q-12 0 -20.5 -7t-8.5 -18v-343q0 -11 8 -18t20 -7zM128 798h230q137 0 212 -82.5t75 -195.5q0 -67 -28.5 -128.5t-83.5 -98.5q-6 -4 -7 -9.5t4 -8.5q115 -79 115 -238q0 -18 -12 -27.5t-29 -9.5
t-29 9.5t-12 25.5q0 103 -56.5 155t-138.5 52h-168q-12 0 -20 -6.5t-8 -17.5v-183q0 -16 -12 -25.5t-29 -9.5t-29 9.5t-12 25.5v728q0 33 38 35zM225 946q44 -27 104 -27q61 0 105 27q6 3 12 3q11 0 18 -7.5t7 -17.5q2 -11 -9 -20q-70 -55 -133 -55q-62 0 -132 55
q-8 8 -8 20q0 10 6.5 17.5t16.5 7.5q7 0 13 -3z" />
    <glyph glyph-name="rcaron" unicode="&#x159;" horiz-adv-x="524" 
d="M159 268v-233q0 -22 -20.5 -31t-41 0t-20.5 31v233q0 125 77 206.5t201 81.5q76 0 121 -26q26 -14 19 -44t-37 -30q-8 0 -42 9t-61 9q-90 0 -143 -57.5t-53 -148.5zM250 724q44 -27 104 -27q61 0 105 27q6 3 12 3q11 0 18 -7.5t7 -17.5q2 -11 -9 -20q-70 -55 -133 -55
q-62 0 -132 55q-8 8 -8 20q0 10 6.5 17.5t16.5 7.5q7 0 13 -3z" />
    <glyph glyph-name="Sacute" unicode="&#x15a;" horiz-adv-x="777" 
d="M144 219q0 -57 37 -97t108 -40h199q71 0 108 40t37 98q0 57 -37 97t-108 40h-179q-107 0 -166.5 65t-59.5 153t59.5 153.5t166.5 65.5h159q107 0 166.5 -65.5t59.5 -153.5q0 -17 -11.5 -26.5t-29.5 -9.5t-29 9.5t-11 26.5q0 57 -37 97t-108 40h-159q-71 0 -108 -40
t-37 -97t37 -97t108 -40h179q109 0 167.5 -65t58.5 -153q0 -89 -58.5 -154t-167.5 -65h-199q-107 0 -166.5 65t-59.5 153q0 17 11.5 27t29.5 10t29 -10t11 -27zM351 849q-19 -5 -26 11q-8 16 11 26l129 68q26 10 40 -21q13 -32 -13 -44q-1 0 -3 -1q-1 -1 -44 -13
q-64 -18 -94 -26z" />
    <glyph glyph-name="sacute" unicode="&#x15b;" horiz-adv-x="575" 
d="M293 554q47 0 90.5 -14t60.5 -25t24 -18q16 -15 12 -34q-3 -16 -16.5 -26t-28.5 -10q-9 0 -24 11q-48 35 -115 36q-50 0 -87.5 -16t-37.5 -48q0 -16 7.5 -27.5t17 -18t27.5 -12t27.5 -7t29.5 -3.5t23 -2q96 -11 152.5 -48.5t56.5 -118.5q0 -5 -2 -27q-9 -79 -72.5 -122.5
t-146.5 -43.5q-19 0 -28 1q-64 6 -124.5 42.5t-87.5 91.5q-9 21 4 41t34 20q9 0 17 -5t12.5 -10t12 -15t9.5 -13q51 -62 132 -70q7 -1 20 -1q50 0 90.5 24t46.5 69q0 2 0.5 6t0.5 6q0 21 -9 36.5t-21 25t-32.5 16t-35.5 9.5t-38 6q-129 12 -173 60q-33 36 -33 86q0 56 40 93
q63 55 165 55zM304 623q-19 -5 -26 11q-8 16 11 26l129 68q26 10 40 -21q13 -32 -13 -44q-1 0 -3 -1q-1 -1 -44 -13q-64 -18 -94 -26z" />
    <glyph glyph-name="Scircumflex" unicode="&#x15c;" horiz-adv-x="777" 
d="M144 219q0 -57 37 -97t108 -40h199q71 0 108 40t37 98q0 57 -37 97t-108 40h-179q-107 0 -166.5 65t-59.5 153t59.5 153.5t166.5 65.5h159q107 0 166.5 -65.5t59.5 -153.5q0 -17 -11.5 -26.5t-29.5 -9.5t-29 9.5t-11 26.5q0 57 -37 97t-108 40h-159q-71 0 -108 -40
t-37 -97t37 -97t108 -40h179q109 0 167.5 -65t58.5 -153q0 -89 -58.5 -154t-167.5 -65h-199q-107 0 -166.5 65t-59.5 153q0 17 11.5 27t29.5 10t29 -10t11 -27zM502 852q-44 27 -104 27q-57 0 -105 -27q-5 -3 -12 -3q-25 0 -25 25q0 11 9 20q62 55 133 55q62 0 132 -55
q10 -7 10 -20q0 -25 -25 -25q-7 0 -13 3z" />
    <glyph glyph-name="scircumflex" unicode="&#x15d;" horiz-adv-x="575" 
d="M293 554q47 0 90.5 -14t60.5 -25t24 -18q16 -15 12 -34q-3 -16 -16.5 -26t-28.5 -10q-9 0 -24 11q-48 35 -115 36q-50 0 -87.5 -16t-37.5 -48q0 -16 7.5 -27.5t17 -18t27.5 -12t27.5 -7t29.5 -3.5t23 -2q96 -11 152.5 -48.5t56.5 -118.5q0 -5 -2 -27q-9 -79 -72.5 -122.5
t-146.5 -43.5q-19 0 -28 1q-64 6 -124.5 42.5t-87.5 91.5q-9 21 4 41t34 20q9 0 17 -5t12.5 -10t12 -15t9.5 -13q51 -62 132 -70q7 -1 20 -1q50 0 90.5 24t46.5 69q0 2 0.5 6t0.5 6q0 21 -9 36.5t-21 25t-32.5 16t-35.5 9.5t-38 6q-129 12 -173 60q-33 36 -33 86q0 56 40 93
q63 55 165 55zM389 632q-44 27 -104 27q-57 0 -105 -27q-4 -3 -12 -3q-25 0 -25 25q0 11 9 20q62 55 133 55q62 0 132 -55q10 -7 10 -20q0 -25 -25 -25q-7 0 -13 3z" />
    <glyph glyph-name="Scedilla" unicode="&#x15e;" horiz-adv-x="777" 
d="M144 219q0 -57 37 -97t108 -40h199q71 0 108 40t37 98q0 57 -37 97t-108 40h-179q-107 0 -166.5 65t-59.5 153t59.5 153.5t166.5 65.5h159q107 0 166.5 -65.5t59.5 -153.5q0 -17 -11.5 -26.5t-29.5 -9.5t-29 9.5t-11 26.5q0 57 -37 97t-108 40h-159q-71 0 -108 -40
t-37 -97t37 -97t108 -40h179q109 0 167.5 -65t58.5 -153q0 -89 -58.5 -154t-167.5 -65h-71v-34q0 -7 9 -12q46 -24 46 -75q0 -34 -25 -59.5t-62 -25.5q-25 0 -52 17t-27 42q2 12 10.5 20.5t18.5 8.5q12 0 25 -15t25 -13q24 1 27 25q1 11 -7.5 18t-19.5 10t-20.5 11.5
t-9.5 21.5v60h-66q-107 0 -166.5 65t-59.5 153q0 17 11.5 27t29.5 10t29 -10t11 -27z" />
    <glyph glyph-name="scedilla" unicode="&#x15f;" horiz-adv-x="575" 
d="M293 554q47 0 90.5 -14t60.5 -25t24 -18q16 -15 12 -34q-3 -16 -16.5 -26t-28.5 -10q-9 0 -24 11q-29 19 -48 26t-48 9l-19 1q-50 0 -87.5 -16t-37.5 -48q0 -16 7.5 -27.5t17 -18t27.5 -12t27.5 -7t29.5 -3.5t23 -2q96 -11 152.5 -48.5t56.5 -118.5q0 -5 -2 -27
q-7 -59 -46.5 -99t-96.5 -56q-19 -6 -40 -9v-35q0 -7 9 -12q46 -24 46 -75q0 -34 -25 -59.5t-62 -25.5q-25 0 -52 17t-27 42q2 12 10.5 20.5t18.5 8.5q12 0 25 -15t25 -13q24 1 27 25q1 11 -7.5 18t-19.5 10t-20.5 11.5t-9.5 21.5v60h-2q-64 6 -124.5 42.5t-87.5 91.5
q-9 21 4 41t34 20q9 0 17 -5t12.5 -10t12 -15t9.5 -13q51 -62 132 -70q3 -1 10 -1h10q50 0 90.5 24t46.5 69q0 2 0.5 6t0.5 6q0 21 -9 36.5t-21 25t-32.5 16t-35.5 9.5t-38 6q-129 12 -173 60q-33 36 -33 86q0 56 40 93q63 55 165 55z" />
    <glyph glyph-name="Scaron" unicode="&#x160;" horiz-adv-x="777" 
d="M144 219q0 -57 37 -97t108 -40h199q71 0 108 40t37 98q0 57 -37 97t-108 40h-179q-107 0 -166.5 65t-59.5 153t59.5 153.5t166.5 65.5h159q107 0 166.5 -65.5t59.5 -153.5q0 -17 -11.5 -26.5t-29.5 -9.5t-29 9.5t-11 26.5q0 57 -37 97t-108 40h-159q-71 0 -108 -40
t-37 -97t37 -97t108 -40h179q109 0 167.5 -65t58.5 -153q0 -89 -58.5 -154t-167.5 -65h-199q-107 0 -166.5 65t-59.5 153q0 17 11.5 27t29.5 10t29 -10t11 -27zM281 946q44 -27 104 -27q61 0 105 27q6 3 12 3q11 0 18 -7.5t7 -17.5q2 -11 -9 -20q-70 -55 -133 -55
q-62 0 -132 55q-8 8 -8 20q0 10 6.5 17.5t16.5 7.5q7 0 13 -3z" />
    <glyph glyph-name="scaron" unicode="&#x161;" horiz-adv-x="575" 
d="M293 554q47 0 90.5 -14t60.5 -25t24 -18q16 -15 12 -34q-3 -16 -16.5 -26t-28.5 -10q-9 0 -24 11q-48 35 -115 36q-50 0 -87.5 -16t-37.5 -48q0 -16 7.5 -27.5t17 -18t27.5 -12t27.5 -7t29.5 -3.5t23 -2q96 -11 152.5 -48.5t56.5 -118.5q0 -5 -2 -27q-9 -79 -72.5 -122.5
t-146.5 -43.5q-19 0 -28 1q-64 6 -124.5 42.5t-87.5 91.5q-9 21 4 41t34 20q9 0 17 -5t12.5 -10t12 -15t9.5 -13q51 -62 132 -70q7 -1 20 -1q50 0 90.5 24t46.5 69q0 2 0.5 6t0.5 6q0 21 -9 36.5t-21 25t-32.5 16t-35.5 9.5t-38 6q-129 12 -173 60q-33 36 -33 86q0 56 40 93
q63 55 165 55zM181 724q44 -27 104 -27q61 0 105 27q6 3 12 3q11 0 18 -7.5t7 -17.5q2 -11 -9 -20q-70 -55 -133 -55q-62 0 -132 55q-8 8 -8 20q0 10 6.5 17.5t16.5 7.5q7 0 13 -3z" />
    <glyph glyph-name="Tcommaaccent" unicode="&#x162;" horiz-adv-x="505" 
d="M293 680v-646q0 -16 -12 -25.5t-29 -9.5t-29 9.5t-12 25.5v646q0 15 -10 25t-25 10h-109q-16 0 -25.5 12t-9.5 29q0 18 9 29.5t26 11.5h370q17 0 26.5 -11.5t9.5 -29.5q0 -17 -10 -29t-26 -12h-109q-14 0 -24.5 -10t-10.5 -25zM291 -101l-30 -141q-5 -20 -22 -18
q-18 3 -18 22v144q0 15 12 24t27 7t24.5 -13t6.5 -25z" />
    <glyph glyph-name="tcommaaccent" unicode="&#x163;" horiz-adv-x="463" 
d="M195 431v-163q0 -100 57 -153t139 -53q16 0 26 -12t10 -29t-10 -29t-26 -12q-112 0 -195 75.5t-83 212.5v163q0 15 -10.5 25t-24.5 10h-34q-14 0 -21.5 10t-7.5 25t7.5 25t21.5 10h34q14 0 24.5 10.5t10.5 24.5v202q0 16 12 25.5t29 9.5t29 -9.5t12 -25.5v-202
q0 -14 10.5 -24.5t24.5 -10.5h123q14 0 22 -10t8 -25t-8 -25t-22 -10h-123q-14 0 -24.5 -10t-10.5 -25zM387 -101l-30 -141q-5 -20 -22 -18q-18 3 -18 22v144q0 15 12 24t27 7t24.5 -13t6.5 -25z" />
    <glyph glyph-name="Tcaron" unicode="&#x164;" horiz-adv-x="505" 
d="M293 680v-646q0 -16 -12 -25.5t-29 -9.5t-29 9.5t-12 25.5v646q0 15 -10 25t-25 10h-109q-16 0 -25.5 12t-9.5 29q0 18 9 29.5t26 11.5h370q17 0 26.5 -11.5t9.5 -29.5q0 -17 -10 -29t-26 -12h-109q-14 0 -24.5 -10t-10.5 -25zM149 946q44 -27 104 -27q61 0 105 27
q6 3 12 3q11 0 18 -7.5t7 -17.5q2 -11 -9 -20q-70 -55 -133 -55q-62 0 -132 55q-8 8 -8 20q0 10 6.5 17.5t16.5 7.5q7 0 13 -3z" />
    <glyph glyph-name="tcaron" unicode="&#x165;" horiz-adv-x="463" 
d="M195 431v-163q0 -100 57 -153t139 -53q16 0 26 -12t10 -29t-10 -29t-26 -12q-112 0 -195 75.5t-83 212.5v163q0 15 -10.5 25t-24.5 10h-34q-14 0 -21.5 10t-7.5 25t7.5 25t21.5 10h34q14 0 24.5 10.5t10.5 24.5v202q0 16 12 25.5t29 9.5t29 -9.5t12 -25.5v-202
q0 -14 10.5 -24.5t24.5 -10.5h123q14 0 22 -10t8 -25t-8 -25t-22 -10h-123q-14 0 -24.5 -10t-10.5 -25zM418 769l-31 -144q-5 -18 -22 -17t-17 22v145q0 15 11.5 23.5t26.5 6.5q16 -2 25.5 -12t6.5 -24z" />
    <glyph glyph-name="Tbar" unicode="&#x166;" horiz-adv-x="505" 
d="M293 680v-142h86q19 0 26.5 -17.5t0 -35t-26.5 -17.5h-86v-434q0 -16 -12 -25.5t-29 -9.5t-29 9.5t-12 25.5v434h-87q-14 0 -22 10t-8 25t8 25t22 10h87v142q0 15 -10 25t-25 10h-109q-16 0 -25.5 12t-9.5 29q0 18 9 29.5t26 11.5h370q17 0 26.5 -11.5t9.5 -29.5
q0 -17 -10 -29t-26 -12h-109q-14 0 -24.5 -10t-10.5 -25z" />
    <glyph glyph-name="tbar" unicode="&#x167;" horiz-adv-x="463" 
d="M313 269l-118 -1q0 -100 57 -153t139 -53q16 0 26 -12t10 -29t-10 -29t-26 -12q-112 0 -195 75.5t-83 212.5h-55q-30 2 -30 36q0 15 8 25t22 10h55v92q0 15 -10.5 25t-24.5 10h-34q-14 0 -21.5 10t-7.5 25t7.5 25t21.5 10h34q14 0 24.5 10.5t10.5 24.5v202q0 16 12 25.5
t29 9.5t29 -9.5t12 -25.5v-202q0 -14 10.5 -24.5t24.5 -10.5h123q14 0 22 -10t8 -25t-8 -25t-22 -10h-123q-14 0 -24.5 -10t-10.5 -25v-92h118q19 0 26.5 -17.5t0 -35t-26.5 -17.5z" />
    <glyph glyph-name="Utilde" unicode="&#x168;" 
d="M552 278v484q0 16 12 25.5t29 9.5t29 -9.5t12 -25.5v-484q0 -137 -83 -212t-195 -75q-113 0 -195.5 75t-82.5 212v484q0 16 12 25.5t29 9.5t29 -9.5t12 -25.5v-482q0 -103 57 -155t139 -52t139 52.5t57 152.5zM386 865l-69 39q-11 6 -19 6q-29 0 -34 -32
q-4 -26 -35 -25.5t-31 27.5q0 39 30.5 67t69.5 28q29 0 51 -13l69 -39q11 -6 19 -6q29 0 34 32q5 26 34 26q14 0 23 -7.5t9 -20.5q0 -39 -30.5 -67t-69.5 -28q-29 0 -51 13z" />
    <glyph glyph-name="utilde" unicode="&#x169;" horiz-adv-x="723" 
d="M553 21q-8 14 -21 14q-6 0 -14 -5q-69 -50 -164 -50q-113 0 -195.5 75t-82.5 212v234q0 16 12 25.5t29 9.5t29 -9.5t12 -25.5v-234q0 -100 57 -152.5t139 -52.5q81 0 138.5 52.5t57.5 151.5v235q0 16 12 25.5t29 9.5t29 -9.5t12 -25.5v-461q0 -17 -12.5 -29t-28.5 -12
q-28 0 -38 22zM368 629l-69 39q-10 6 -19 6q-29 0 -34 -32q-4 -26 -35 -25.5t-31 27.5q0 39 30.5 67t69.5 28q29 0 51 -13l69 -39q10 -6 19 -6q29 0 34 32q5 26 34 26q14 0 23 -7.5t9 -20.5q0 -39 -30.5 -67t-69.5 -28q-29 0 -51 13z" />
    <glyph glyph-name="Umacron" unicode="&#x16a;" 
d="M552 278v484q0 16 12 25.5t29 9.5t29 -9.5t12 -25.5v-484q0 -137 -83 -212t-195 -75q-113 0 -195.5 75t-82.5 212v484q0 16 12 25.5t29 9.5t29 -9.5t12 -25.5v-482q0 -103 57 -155t139 -52t139 52.5t57 152.5zM197 885q0 15 8 25t22 10h255q19 0 26.5 -17.5t0 -35
t-26.5 -17.5h-255q-14 0 -22 10t-8 25z" />
    <glyph glyph-name="umacron" unicode="&#x16b;" horiz-adv-x="723" 
d="M553 21q-8 14 -21 14q-6 0 -14 -5q-69 -50 -164 -50q-113 0 -195.5 75t-82.5 212v234q0 16 12 25.5t29 9.5t29 -9.5t12 -25.5v-234q0 -100 57 -152.5t139 -52.5q81 0 138.5 52.5t57.5 151.5v235q0 16 12 25.5t29 9.5t29 -9.5t12 -25.5v-461q0 -17 -12.5 -29t-28.5 -12
q-28 0 -38 22zM207 677q0 15 8 25t22 10h255q19 0 26.5 -17.5t0 -35t-26.5 -17.5h-255q-14 0 -22 10t-8 25z" />
    <glyph glyph-name="Ubreve" unicode="&#x16c;" 
d="M552 278v484q0 16 12 25.5t29 9.5t29 -9.5t12 -25.5v-484q0 -137 -83 -212t-195 -75q-113 0 -195.5 75t-82.5 212v484q0 16 12 25.5t29 9.5t29 -9.5t12 -25.5v-482q0 -103 57 -155t139 -52t139 52.5t57 152.5zM233 955l107 -54q8 -5 16 -5t16 5l107 54q6 3 13 3
q19 0 28 -16.5t4 -34.5t-19 -19l-142 -39q-7 -1 -14 0l-141 39q-15 1 -20 19t3.5 34.5t28.5 16.5q7 0 13 -3z" />
    <glyph glyph-name="ubreve" unicode="&#x16d;" horiz-adv-x="723" 
d="M553 21q-8 14 -21 14q-6 0 -14 -5q-69 -50 -164 -50q-113 0 -195.5 75t-82.5 212v234q0 16 12 25.5t29 9.5t29 -9.5t12 -25.5v-234q0 -100 57 -152.5t139 -52.5q81 0 138.5 52.5t57.5 151.5v235q0 16 12 25.5t29 9.5t29 -9.5t12 -25.5v-461q0 -17 -12.5 -29t-28.5 -12
q-28 0 -38 22zM227 729l107 -54q8 -5 16 -5t16 5l107 54q6 3 13 3q19 0 28 -16.5t4 -34.5t-19 -19l-142 -39q-7 -1 -14 0l-141 39q-15 1 -20 19t3.5 34.5t28.5 16.5q7 0 13 -3z" />
    <glyph glyph-name="Uring" unicode="&#x16e;" 
d="M552 278v484q0 16 12 25.5t29 9.5t29 -9.5t12 -25.5v-484q0 -137 -83 -212t-195 -75q-113 0 -195.5 75t-82.5 212v484q0 16 12 25.5t29 9.5t29 -9.5t12 -25.5v-482q0 -103 57 -155t139 -52t139 52.5t57 152.5zM354 879q-43 0 -68 27t-25 63t25 63t68 27q45 0 69.5 -27
t24.5 -63t-24.5 -63t-69.5 -27zM288 969q0 -26 16.5 -44.5t49.5 -18.5t50.5 18.5t17.5 44.5t-17.5 44.5t-50.5 18.5t-49.5 -18.5t-16.5 -44.5z" />
    <glyph glyph-name="uring" unicode="&#x16f;" horiz-adv-x="723" 
d="M553 21q-8 14 -21 14q-6 0 -14 -5q-69 -50 -164 -50q-113 0 -195.5 75t-82.5 212v234q0 16 12 25.5t29 9.5t29 -9.5t12 -25.5v-234q0 -100 57 -152.5t139 -52.5q81 0 138.5 52.5t57.5 151.5v235q0 16 12 25.5t29 9.5t29 -9.5t12 -25.5v-461q0 -17 -12.5 -29t-28.5 -12
q-28 0 -38 22zM364 617q-43 0 -68 27t-25 63t25 63t68 27q45 0 69.5 -27t24.5 -63t-24.5 -63t-69.5 -27zM298 707q0 -26 16.5 -44.5t49.5 -18.5t50.5 18.5t17.5 44.5t-17.5 44.5t-50.5 18.5t-49.5 -18.5t-16.5 -44.5z" />
    <glyph glyph-name="Uhungarumlaut" unicode="&#x170;" 
d="M552 278v484q0 16 12 25.5t29 9.5t29 -9.5t12 -25.5v-484q0 -137 -83 -212t-195 -75q-113 0 -195.5 75t-82.5 212v484q0 16 12 25.5t29 9.5t29 -9.5t12 -25.5v-482q0 -103 57 -155t139 -52t139 52.5t57 152.5zM316 993q10 28 43 28q20 0 27.5 -8.5t-2.5 -30.5l-81 -123
q-6 -9 -14 -9q-12 0 -12 12q0 9 39 131zM451 993q10 28 43 28q20 0 27.5 -8.5t-2.5 -30.5l-81 -123q-6 -9 -14 -9q-12 0 -12 12q0 9 39 131z" />
    <glyph glyph-name="uhungarumlaut" unicode="&#x171;" horiz-adv-x="723" 
d="M553 21q-8 14 -21 14q-6 0 -14 -5q-69 -50 -164 -50q-113 0 -195.5 75t-82.5 212v234q0 16 12 25.5t29 9.5t29 -9.5t12 -25.5v-234q0 -100 57 -152.5t139 -52.5q81 0 138.5 52.5t57.5 151.5v235q0 16 12 25.5t29 9.5t29 -9.5t12 -25.5v-461q0 -17 -12.5 -29t-28.5 -12
q-28 0 -38 22zM300 730q10 28 43 28q20 0 27.5 -8.5t-2.5 -30.5l-81 -123q-6 -9 -14 -9q-12 0 -12 12q0 9 39 131zM435 730q10 28 43 28q20 0 27.5 -8.5t-2.5 -30.5l-81 -123q-6 -9 -14 -9q-12 0 -12 12q0 9 39 131z" />
    <glyph glyph-name="Uogonek" unicode="&#x172;" 
d="M552 268v494q0 16 12 25.5t29 9.5t29 -9.5t12 -25.5v-636q0 -13 -9.5 -21.5t-20.5 -11.5t-19.5 -10t-7.5 -18q3 -24 27 -25q12 -2 25 13t25 15q10 0 18.5 -8.5t10.5 -20.5q0 -25 -27 -42t-52 -17q-56 0 -81 53q-29 -22 -66 -34q-49 -18 -101 -18q-113 0 -195.5 75
t-82.5 212v494q0 16 12 25.5t29 9.5t29 -9.5t12 -25.5v-492q0 -103 57 -155t139 -52t139 52.5t57 152.5z" />
    <glyph glyph-name="uogonek" unicode="&#x173;" horiz-adv-x="723" 
d="M632 501v-469q0 -26 -28 -32t-28 -29q0 -12 6 -18q7 -7 20 -7q16 0 25 14q8 14 25 14q12 0 20.5 -8.5t8.5 -20.5q0 -11 -4 -15q-27 -44 -75 -44q-38 0 -62 26q-25 25 -25 59q0 39 26 62q-6 2 -9 2q-6 0 -14 -5q-69 -50 -164 -50q-113 0 -195.5 75t-82.5 212v234
q0 16 12 25.5t29 9.5t29 -9.5t12 -25.5v-234q0 -100 57 -152.5t139 -52.5q81 0 138.5 52.5t57.5 151.5v235q0 16 12 25.5t29 9.5t29 -9.5t12 -25.5z" />
    <glyph glyph-name="Wcircumflex" unicode="&#x174;" horiz-adv-x="945" 
d="M513 434v-218q0 -71 40 -107.5t97 -36.5t96.5 37t39.5 107v546q0 16 12 25.5t29 9.5t29 -9.5t12 -25.5v-546q0 -107 -65 -166.5t-153 -59.5q-95 0 -159 64q-19 19 -38 0q-64 -64 -158 -64q-88 0 -153 59.5t-65 166.5v546q0 16 12 25.5t29 9.5t29 -9.5t12 -25.5v-546
q0 -70 39.5 -107t96.5 -37t96.5 37t39.5 107v218q0 16 12 25.5t29 9.5q18 0 29.5 -9t11.5 -26zM577 852q-44 27 -104 27q-57 0 -105 -27q-4 -3 -12 -3q-25 0 -25 25q0 11 9 20q62 55 133 55q62 0 132 -55q10 -7 10 -20q0 -25 -25 -25q-7 0 -13 3z" />
    <glyph glyph-name="wcircumflex" unicode="&#x175;" horiz-adv-x="745" 
d="M273 131l62 146q9 20 38 20q32 0 39 -23l61 -143l163 386q6 15 21.5 19t30.5 -3q15 -6 22.5 -19.5t1.5 -28.5l-195 -460q-10 -25 -38 -25q-27 0 -38 27l-68 160l-68 -160q-13 -27 -39 -27q-28 0 -38 25l-195 460q-6 15 1 28.5t23 19.5q14 7 29.5 3t21.5 -19zM478 632
q-44 27 -104 27q-57 0 -105 -27q-5 -3 -12 -3q-25 0 -25 25q0 11 9 20q62 55 133 55q62 0 132 -55q10 -7 10 -20q0 -25 -25 -25q-7 0 -13 3z" />
    <glyph glyph-name="Ycircumflex" unicode="&#x176;" horiz-adv-x="648" 
d="M520 643v119q0 16 12 25.5t29 9.5t29 -9.5t12 -25.5v-119q0 -115 -59.5 -186.5t-149.5 -92.5q-28 -7 -28 -36v-293q0 -16 -12 -25.5t-29 -9.5t-29 9.5t-12 25.5v293q0 29 -28 36q-91 22 -150 93t-59 186v119q0 16 12 25.5t29 9.5t29 -9.5t12 -25.5v-117q0 -103 57 -155
t139 -52t139 52.5t57 152.5zM429 852q-44 27 -104 27q-57 0 -105 -27q-4 -3 -12 -3q-25 0 -25 25q0 11 9 20q62 55 133 55q62 0 132 -55q10 -7 10 -20q0 -25 -25 -25q-7 0 -13 3z" />
    <glyph glyph-name="ycircumflex" unicode="&#x177;" horiz-adv-x="533" 
d="M268 145l157 371q5 12 21 17.5t30 -0.5q17 -8 23.5 -22t0.5 -27l-244 -576q-38 -90 -106 -135t-147 -45q-57 0 -115 24q-12 5 -17.5 19.5t0.5 31.5q7 17 20.5 23.5t28.5 1.5q44 -18 84 -18q121 0 177 130l36 84q6 16 0 32l-182 426q-13 34 24 50q38 16 52 -18zM382 631
q-44 27 -104 27q-57 0 -105 -27q-5 -3 -12 -3q-25 0 -25 25q0 11 9 20q62 55 133 55q62 0 132 -55q10 -7 10 -20q0 -25 -25 -25q-7 0 -13 3z" />
    <glyph glyph-name="Ydieresis" unicode="&#x178;" horiz-adv-x="648" 
d="M520 643v119q0 16 12 25.5t29 9.5t29 -9.5t12 -25.5v-119q0 -115 -59.5 -186.5t-149.5 -92.5q-28 -7 -28 -36v-293q0 -16 -12 -25.5t-29 -9.5t-29 9.5t-12 25.5v293q0 29 -28 36q-91 22 -150 93t-59 186v119q0 16 12 25.5t29 9.5t29 -9.5t12 -25.5v-117q0 -103 57 -155
t139 -52t139 52.5t57 152.5zM203 886q0 16 10.5 27.5t30.5 11.5t30.5 -11.5t10.5 -27.5t-10.5 -27.5t-30.5 -11.5t-30.5 11.5t-10.5 27.5zM363 886q0 16 10.5 27.5t30.5 11.5t30.5 -11.5t10.5 -27.5t-10.5 -27.5t-30.5 -11.5t-30.5 11.5t-10.5 27.5z" />
    <glyph glyph-name="Zacute" unicode="&#x179;" horiz-adv-x="588" 
d="M522 609l-118 -169q16 0 25.5 -12t9.5 -29t-9.5 -29t-25.5 -12h-44q-13 0 -20 -10l-176 -250q-4 -5 -1 -10.5t9 -5.5h348q16 0 26 -12t10 -29t-10 -29t-26 -12h-442q-18 0 -32 12.5t-14 29.5q0 10 6 19l209 297q-17 1 -26 12.5t-9 28.5q0 18 9 29.5t26 11.5h44
q13 0 20 10l119 171q8 13 1 26q-53 82 -163 82q-100 0 -155 -71q-10 -13 -25 -13q-17 0 -31.5 13.5t-14.5 30.5q0 11 8 22q82 100 218 100q83 0 153.5 -43.5t103.5 -125.5q3 -9 3 -15q0 -11 -6 -18zM251 849q-19 -5 -26 11q-8 16 11 26l129 68q26 10 40 -21q13 -32 -13 -44
q-1 0 -3 -1q-1 -1 -44 -13q-64 -18 -94 -26z" />
    <glyph glyph-name="zacute" unicode="&#x17a;" horiz-adv-x="564" 
d="M69 496q0 17 9.5 29t25.5 12h364q17 0 27 -10q14 -14 14 -31q0 -16 -11 -27l-318 -366q-5 -6 -2 -13.5t11 -7.5h302q16 0 26 -12t10 -29t-10 -29t-26 -12h-419q-17 0 -27 10q-13 11 -14 28t10 30l319 366q5 6 1.5 13.5t-11.5 7.5h-246q-16 0 -25.5 12t-9.5 29zM294 623
q-19 -5 -26 11q-8 16 11 26l129 68q26 10 40 -21q13 -32 -13 -44q-1 0 -3 -1q-1 -1 -44 -13q-64 -18 -94 -26z" />
    <glyph glyph-name="Zdotaccent" unicode="&#x17b;" horiz-adv-x="588" 
d="M522 609l-118 -169q16 0 25.5 -12t9.5 -29t-9.5 -29t-25.5 -12h-44q-13 0 -20 -10l-176 -250q-4 -5 -1 -10.5t9 -5.5h348q16 0 26 -12t10 -29t-10 -29t-26 -12h-442q-18 0 -32 12.5t-14 29.5q0 10 6 19l209 297q-17 1 -26 12.5t-9 28.5q0 18 9 29.5t26 11.5h44
q13 0 20 10l119 171q8 13 1 26q-53 82 -163 82q-100 0 -155 -71q-10 -13 -25 -13q-17 0 -31.5 13.5t-14.5 30.5q0 11 8 22q82 100 218 100q83 0 153.5 -43.5t103.5 -125.5q3 -9 3 -15q0 -11 -6 -18zM228 889q0 16 10.5 27.5t30.5 11.5t30.5 -11.5t10.5 -27.5t-10.5 -27.5
t-30.5 -11.5t-30.5 11.5t-10.5 27.5z" />
    <glyph glyph-name="zdotaccent" unicode="&#x17c;" horiz-adv-x="564" 
d="M69 496q0 17 9.5 29t25.5 12h364q17 0 27 -10q14 -14 14 -31q0 -16 -11 -27l-318 -366q-5 -6 -2 -13.5t11 -7.5h302q16 0 26 -12t10 -29t-10 -29t-26 -12h-419q-17 0 -27 10q-13 11 -14 28t10 30l319 366q5 6 1.5 13.5t-11.5 7.5h-246q-16 0 -25.5 12t-9.5 29zM240 677
q0 16 10.5 27.5t30.5 11.5t30.5 -11.5t10.5 -27.5t-10.5 -27.5t-30.5 -11.5t-30.5 11.5t-10.5 27.5z" />
    <glyph glyph-name="Zcaron" unicode="&#x17d;" horiz-adv-x="588" 
d="M522 609l-118 -169q16 0 25.5 -12t9.5 -29t-9.5 -29t-25.5 -12h-44q-13 0 -20 -10l-176 -250q-4 -5 -1 -10.5t9 -5.5h348q16 0 26 -12t10 -29t-10 -29t-26 -12h-442q-18 0 -32 12.5t-14 29.5q0 10 6 19l209 297q-17 1 -26 12.5t-9 28.5q0 18 9 29.5t26 11.5h44
q13 0 20 10l119 171q8 13 1 26q-53 82 -163 82q-100 0 -155 -71q-10 -13 -25 -13q-17 0 -31.5 13.5t-14.5 30.5q0 11 8 22q82 100 218 100q83 0 153.5 -43.5t103.5 -125.5q3 -9 3 -15q0 -11 -6 -18zM163 953q44 -27 104 -27q61 0 105 27q6 3 12 3q11 0 18 -7.5t7 -17.5
q2 -11 -9 -20q-70 -55 -133 -55q-62 0 -132 55q-8 8 -8 20q0 10 6.5 17.5t16.5 7.5q7 0 13 -3z" />
    <glyph glyph-name="zcaron" unicode="&#x17e;" horiz-adv-x="564" 
d="M69 496q0 17 9.5 29t25.5 12h364q17 0 27 -10q14 -14 14 -31q0 -16 -11 -27l-318 -366q-5 -6 -2 -13.5t11 -7.5h302q16 0 26 -12t10 -29t-10 -29t-26 -12h-419q-17 0 -27 10q-13 11 -14 28t10 30l319 366q5 6 1.5 13.5t-11.5 7.5h-246q-16 0 -25.5 12t-9.5 29zM190 724
q44 -27 104 -27q61 0 105 27q6 3 12 3q11 0 18 -7.5t7 -17.5q2 -11 -9 -20q-70 -55 -133 -55q-62 0 -132 55q-8 8 -8 20q0 10 6.5 17.5t16.5 7.5q7 0 13 -3z" />
    <glyph glyph-name="florin" unicode="&#x192;" horiz-adv-x="545" 
d="M137 -39l24 196q6 47 -11 62t-73 15q-27 0 -27 32q0 17 10.5 28t25.5 11h25q30 0 44.5 8t27.5 39q34 92 113.5 148.5t172.5 56.5q59 0 59 -40q0 -44 -41 -44q-3 0 -13 1t-16 1q-53 0 -100 -27.5t-72 -70.5q-13 -22 -13 -37q0 -36 52 -36h125q26 0 26 -29
q0 -18 -9.5 -29.5t-25.5 -11.5h-124q-39 0 -54 -15.5t-20 -61.5l-24 -197q-21 -144 -158 -224q-10 -7 -23 -7q-36 2 -38 38q0 15 10 24q10 7 64 55q54 47 63 115z" />
    <glyph glyph-name="AEacute" unicode="&#x1fc;" horiz-adv-x="1003" 
d="M161 331v-296q0 -16 -12 -25.5t-29 -9.5t-29 9.5t-12 25.5v485q0 137 83 212.5t195 75.5q72 0 136 -33t102 -95q36 61 96.5 94.5t139.5 33.5q76 0 121 -26q25 -14 15 -43t-33 -31q-9 0 -43 9t-60 9q-90 0 -143 -57.5t-53 -147.5v-45q0 -15 10.5 -25.5t25.5 -10.5h116
q16 0 25.5 -12t9.5 -29t-9.5 -29t-25.5 -12h-116q-15 0 -25.5 -11t-10.5 -29v-38q0 -90 53 -147.5t143 -57.5q26 0 60 9t43 9q23 -2 33 -31t-15 -43q-45 -26 -121 -26q-119 0 -196 77v-35q0 -16 -12 -25.5t-29 -9.5t-29 9.5t-12 25.5v296q0 10 -7 17t-18 7h-343
q-10 0 -17 -7t-7 -17zM553 462v57q0 102 -57 154.5t-139 52.5t-139 -52.5t-57 -152.5v-59q0 -11 7 -18t17 -7h343q25 0 25 25zM390 848q-19 -5 -26 11q-8 16 11 26l129 68q26 10 40 -21q13 -32 -13 -44q-1 0 -3 -1q-1 -1 -44 -13q-64 -18 -94 -26z" />
    <glyph glyph-name="aeacute" unicode="&#x1fd;" horiz-adv-x="967" 
d="M502 30q-69 -50 -164 -50q-112 0 -195 75.5t-83 212.5t82.5 212t195.5 75q91 0 164 -50q8 -5 14 -5q12 0 27 18t32 18q24 0 36 -21q53 40 123 40q77 0 132 -52.5t55 -128.5q0 -78 -54.5 -121.5t-133.5 -43.5h-99q-11 0 -11 -13q20 -63 75 -99t121 -36l20 1
q19 1 29.5 -12.5t10.5 -28.5q0 -41 -62 -41q-115 0 -201 78v-18q0 -17 -12 -29t-29 -12t-32 18t-27 18q-6 0 -14 -5zM730 475q-32 0 -55 -12.5t-33.5 -31t-14.5 -32.5t-4 -24v-61q0 -10 6.5 -17t17.5 -7h97q12 0 30.5 4.5t41 25.5t22.5 56q0 51 -35 75t-73 24zM338 473
q-82 0 -139 -52.5t-57 -152.5q0 -101 57 -153.5t139 -52.5t139 52.5t57 153.5q0 100 -57 152.5t-139 52.5zM358 623q-19 -5 -26 11q-8 16 11 26l129 68q26 10 40 -21q13 -32 -13 -44q-1 0 -3 -1q-1 -1 -44 -13q-64 -18 -94 -26z" />
    <glyph glyph-name="Oslashacute" unicode="&#x1fe;" horiz-adv-x="680" 
d="M345 849q-19 -5 -26 11q-8 16 11 26l129 68q26 10 40 -21q13 -32 -13 -44q-1 0 -3 -1q-1 -1 -44 -13q-64 -18 -94 -26zM417 712q-36 14 -77 14q-82 0 -139 -52.5t-57 -152.5v-254q0 -82 41 -134q5 -5 8 2q0 7 118 279l116 274q8 19 -10 24zM536 267v254q0 82 -40 133
q-6 6 -8 -2l-234 -552q-3 -7 0 -14.5t10 -10.5q33 -13 76 -13q82 0 139 52.5t57 152.5zM62 267v254q0 137 83 212t195 75q66 0 122 -25q4 -4 6 2l2 4q12 27 44 14q31 -14 21 -41l-3 -7q-7 -13 4 -22q82 -80 82 -212v-254q0 -137 -82.5 -212t-195.5 -75q-66 0 -120 25
q-6 2 -7 -2l-3 -8q-11 -27 -44 -13q-31 13 -21 40l5 10q5 15 -4 22q-84 79 -84 213z" />
    <glyph glyph-name="oslashacute" unicode="&#x1ff;" horiz-adv-x="672" 
d="M339 -20q-38 0 -80 11q-14 -21 -42 -8q-26 12 -22 35q-61 34 -97.5 97.5t-36.5 152.5q0 137 82.5 212t195.5 75q43 0 80 -11q13 22 42 9q27 -12 22 -35q134 -77 134 -250q0 -137 -83 -212.5t-195 -75.5zM227 94l159 374q-19 5 -47 5q-82 0 -139 -52.5t-57 -152.5
q0 -119 84 -174zM339 62q82 0 139 53t57 153q0 119 -84 174l-159 -375q28 -5 47 -5zM352 623q-19 -5 -26 11q-8 16 11 26l129 68q26 10 40 -21q13 -32 -13 -44q-1 0 -3 -1q-1 -1 -44 -13q-64 -18 -94 -26z" />
    <glyph glyph-name="Scommaaccent" unicode="&#x218;" horiz-adv-x="777" 
d="M144 219q0 -57 37 -97t108 -40h199q71 0 108 40t37 98q0 57 -37 97t-108 40h-179q-107 0 -166.5 65t-59.5 153t59.5 153.5t166.5 65.5h159q107 0 166.5 -65.5t59.5 -153.5q0 -17 -11.5 -26.5t-29.5 -9.5t-29 9.5t-11 26.5q0 57 -37 97t-108 40h-159q-71 0 -108 -40
t-37 -97t37 -97t108 -40h179q109 0 167.5 -65t58.5 -153q0 -89 -58.5 -154t-167.5 -65h-199q-107 0 -166.5 65t-59.5 153q0 17 11.5 27t29.5 10t29 -10t11 -27zM370 -101l-30 -141q-5 -20 -22 -18q-18 3 -18 22v144q0 15 12 24t27 7t24.5 -13t6.5 -25z" />
    <glyph glyph-name="scommaaccent" unicode="&#x219;" horiz-adv-x="575" 
d="M293 554q47 0 90.5 -14t60.5 -25t24 -18q16 -15 12 -34q-3 -16 -16.5 -26t-28.5 -10q-9 0 -24 11q-48 35 -115 36q-50 0 -87.5 -16t-37.5 -48q0 -16 7.5 -27.5t17 -18t27.5 -12t27.5 -7t29.5 -3.5t23 -2q96 -11 152.5 -48.5t56.5 -118.5q0 -5 -2 -27q-9 -79 -72.5 -122.5
t-146.5 -43.5q-19 0 -28 1q-64 6 -124.5 42.5t-87.5 91.5q-9 21 4 41t34 20q9 0 17 -5t12.5 -10t12 -15t9.5 -13q51 -62 132 -70q7 -1 20 -1q50 0 90.5 24t46.5 69q0 2 0.5 6t0.5 6q0 21 -9 36.5t-21 25t-32.5 16t-35.5 9.5t-38 6q-129 12 -173 60q-33 36 -33 86q0 56 40 93
q63 55 165 55zM329 -101l-30 -141q-5 -20 -22 -18q-18 3 -18 22v144q0 15 12 24t27 7t24.5 -13t6.5 -25z" />
    <glyph glyph-name="apostrophe" unicode="&#x2bc;" horiz-adv-x="144" 
d="M78 751l-30 -141q-5 -20 -22 -18q-18 3 -18 22v144q0 15 12 24t27 7t24.5 -13t6.5 -25z" />
    <glyph glyph-name="circumflex" unicode="&#x2c6;" horiz-adv-x="348" 
d="M278 639q-44 27 -104 27q-57 0 -105 -27q-5 -3 -12 -3q-25 0 -25 25q0 11 9 20q62 55 133 55q62 0 132 -55q10 -7 10 -20q0 -25 -25 -25q-7 0 -13 3z" />
    <glyph glyph-name="caron" unicode="&#x2c7;" horiz-adv-x="348" 
d="M70 724q44 -27 104 -27q61 0 105 27q6 3 12 3q11 0 18 -7.5t7 -17.5q2 -11 -9 -20q-70 -55 -133 -55q-62 0 -132 55q-8 8 -8 20q0 10 6.5 17.5t16.5 7.5q7 0 13 -3z" />
    <glyph glyph-name="breve" unicode="&#x2d8;" horiz-adv-x="408" 
d="M81 727l107 -54q8 -5 16 -5t16 5l107 54q6 3 13 3q19 0 28 -16.5t4 -34.5t-19 -19l-142 -39q-7 -1 -14 0l-141 39q-15 1 -20 19t3.5 34.5t28.5 16.5q7 0 13 -3z" />
    <glyph glyph-name="dotaccent" unicode="&#x2d9;" horiz-adv-x="146" 
d="M32 709q0 16 10.5 27.5t30.5 11.5t30.5 -11.5t10.5 -27.5t-10.5 -27.5t-30.5 -11.5t-30.5 11.5t-10.5 27.5z" />
    <glyph glyph-name="ring" unicode="&#x2da;" horiz-adv-x="341" 
d="M170 617q-43 0 -68 27t-25 63t25 63t68 27q45 0 69.5 -27t24.5 -63t-24.5 -63t-69.5 -27zM104 707q0 -26 16.5 -44.5t49.5 -18.5t50.5 18.5t17.5 44.5t-17.5 44.5t-50.5 18.5t-49.5 -18.5t-16.5 -44.5z" />
    <glyph glyph-name="ogonek" unicode="&#x2db;" horiz-adv-x="217" 
d="M118 -49v81q0 13 9 22t22 9t22 -9t9 -22v-107q0 -13 -9.5 -21.5t-20.5 -11.5t-19.5 -10t-7.5 -18q3 -24 27 -25q12 -2 25 13t25 15q10 0 18.5 -8.5t10.5 -20.5q0 -25 -27 -42t-52 -17q-37 0 -62 25.5t-25 59.5q0 51 46 75q9 5 9 12z" />
    <glyph glyph-name="tilde" unicode="&#x2dc;" horiz-adv-x="699" 
d="M368 629l-69 39q-10 6 -19 6q-29 0 -34 -32q-4 -26 -35 -25.5t-31 27.5q0 39 30.5 67t69.5 28q29 0 51 -13l69 -39q10 -6 19 -6q29 0 34 32q5 26 34 26q14 0 23 -7.5t9 -20.5q0 -39 -30.5 -67t-69.5 -28q-29 0 -51 13z" />
    <glyph glyph-name="hungarumlaut" unicode="&#x2dd;" horiz-adv-x="350" 
d="M71 814q10 28 43 28q20 0 27.5 -8.5t-2.5 -30.5l-81 -123q-6 -9 -14 -9q-12 0 -12 12q0 9 39 131zM206 814q10 28 43 28q20 0 27.5 -8.5t-2.5 -30.5l-81 -123q-6 -9 -14 -9q-12 0 -12 12q0 9 39 131z" />
    <glyph glyph-name="uni037E" unicode="&#x37e;" horiz-adv-x="214" 
d="M90 32v18q0 19 12 28.5t29 9.5t29 -10.5t12 -29.5q0 -61 -24 -120t-68 -100q-10 -10 -25 -10t-25 10t-10 25q0 14 10 24q60 60 60 155zM90 396q0 16 10.5 27.5t30.5 11.5t30.5 -11.5t10.5 -27.5t-10.5 -27.5t-30.5 -11.5t-30.5 11.5t-10.5 27.5z" />
    <glyph glyph-name="tonos" unicode="&#x384;" horiz-adv-x="136" 
d="M-15 658l89 113q4 7 10 9q12 6 26 0.5t21 -20.5q13 -23 -7 -38l-111 -91q-21 -16 -33 5q-5 11 5 22z" />
    <glyph glyph-name="anoteleia" unicode="&#x387;" horiz-adv-x="262" 
d="M90 242v50q0 16 16 16h50q16 0 16 -16v-50q0 -16 -16 -16h-50q-16 0 -16 16z" />
    <glyph glyph-name="Omega" unicode="&#x3a9;" horiz-adv-x="680" 
d="M559 82h24q16 0 25.5 -12t9.5 -29t-9.5 -29t-25.5 -12h-152q-16 0 -26 12t-10 29t10 29t26 12q48 22 76.5 69.5t28.5 116.5v253q0 100 -57 152.5t-139 52.5t-139 -52.5t-57 -152.5v-253q0 -135 105 -186q16 0 25.5 -12t9.5 -29t-9.5 -29t-25.5 -12h-152q-16 0 -25.5 12
t-9.5 29t9.5 29t25.5 12h24q-59 77 -59 186v253q0 137 83 212t195 75q113 0 195.5 -75t82.5 -212v-253q0 -109 -59 -186z" />
    <glyph glyph-name="Omega" unicode="&#x2126;" horiz-adv-x="680" 
d="M559 82h24q16 0 25.5 -12t9.5 -29t-9.5 -29t-25.5 -12h-152q-16 0 -26 12t-10 29t10 29t26 12q48 22 76.5 69.5t28.5 116.5v253q0 100 -57 152.5t-139 52.5t-139 -52.5t-57 -152.5v-253q0 -135 105 -186q16 0 25.5 -12t9.5 -29t-9.5 -29t-25.5 -12h-152q-16 0 -25.5 12
t-9.5 29t9.5 29t25.5 12h24q-59 77 -59 186v253q0 137 83 212t195 75q113 0 195.5 -75t82.5 -212v-253q0 -109 -59 -186z" />
    <glyph glyph-name="Wgrave" unicode="&#x1e80;" horiz-adv-x="945" 
d="M513 434v-218q0 -71 40 -107.5t97 -36.5t96.5 37t39.5 107v546q0 16 12 25.5t29 9.5t29 -9.5t12 -25.5v-546q0 -107 -65 -166.5t-153 -59.5q-95 0 -159 64q-19 19 -38 0q-64 -64 -158 -64q-88 0 -153 59.5t-65 166.5v546q0 16 12 25.5t29 9.5t29 -9.5t12 -25.5v-546
q0 -70 39.5 -107t96.5 -37t96.5 37t39.5 107v218q0 16 12 25.5t29 9.5q18 0 29.5 -9t11.5 -26zM487 850q-30 8 -94 26q-44 13 -45 13l-2 1q-26 12 -13 44q14 31 40 21l129 -68q19 -10 11 -26q-7 -16 -26 -11z" />
    <glyph glyph-name="wgrave" unicode="&#x1e81;" horiz-adv-x="745" 
d="M273 131l62 146q9 20 38 20q32 0 39 -23l61 -143l163 386q6 15 21.5 19t30.5 -3q15 -6 22.5 -19.5t1.5 -28.5l-195 -460q-10 -25 -38 -25q-27 0 -38 27l-68 160l-68 -160q-13 -27 -39 -27q-28 0 -38 25l-195 460q-6 15 1 28.5t23 19.5q14 7 29.5 3t21.5 -19zM337 623
q-30 8 -94 26q-44 13 -45 13l-2 1q-26 12 -13 44q14 31 40 21l129 -68q19 -10 11 -26q-7 -16 -26 -11z" />
    <glyph glyph-name="Wacute" unicode="&#x1e82;" horiz-adv-x="945" 
d="M513 434v-218q0 -71 40 -107.5t97 -36.5t96.5 37t39.5 107v546q0 16 12 25.5t29 9.5t29 -9.5t12 -25.5v-546q0 -107 -65 -166.5t-153 -59.5q-95 0 -159 64q-19 19 -38 0q-64 -64 -158 -64q-88 0 -153 59.5t-65 166.5v546q0 16 12 25.5t29 9.5t29 -9.5t12 -25.5v-546
q0 -70 39.5 -107t96.5 -37t96.5 37t39.5 107v218q0 16 12 25.5t29 9.5q18 0 29.5 -9t11.5 -26zM476 849q-19 -5 -26 11q-8 16 11 26l129 68q26 10 40 -21q13 -32 -13 -44q-1 0 -3 -1q-1 -1 -44 -13q-64 -18 -94 -26z" />
    <glyph glyph-name="wacute" unicode="&#x1e83;" horiz-adv-x="745" 
d="M273 131l62 146q9 20 38 20q32 0 39 -23l61 -143l163 386q6 15 21.5 19t30.5 -3q15 -6 22.5 -19.5t1.5 -28.5l-195 -460q-10 -25 -38 -25q-27 0 -38 27l-68 160l-68 -160q-13 -27 -39 -27q-28 0 -38 25l-195 460q-6 15 1 28.5t23 19.5q14 7 29.5 3t21.5 -19zM384 623
q-19 -5 -26 11q-8 16 11 26l129 68q26 10 40 -21q13 -32 -13 -44q-1 0 -3 -1q-1 -1 -44 -13q-64 -18 -94 -26z" />
    <glyph glyph-name="Wdieresis" unicode="&#x1e84;" horiz-adv-x="945" 
d="M513 434v-218q0 -71 40 -107.5t97 -36.5t96.5 37t39.5 107v546q0 16 12 25.5t29 9.5t29 -9.5t12 -25.5v-546q0 -107 -65 -166.5t-153 -59.5q-95 0 -159 64q-19 19 -38 0q-64 -64 -158 -64q-88 0 -153 59.5t-65 166.5v546q0 16 12 25.5t29 9.5t29 -9.5t12 -25.5v-546
q0 -70 39.5 -107t96.5 -37t96.5 37t39.5 107v218q0 16 12 25.5t29 9.5q18 0 29.5 -9t11.5 -26zM352 898q0 16 10.5 27.5t30.5 11.5t30.5 -11.5t10.5 -27.5t-10.5 -27.5t-30.5 -11.5t-30.5 11.5t-10.5 27.5zM512 898q0 16 10.5 27.5t30.5 11.5t30.5 -11.5t10.5 -27.5
t-10.5 -27.5t-30.5 -11.5t-30.5 11.5t-10.5 27.5z" />
    <glyph glyph-name="wdieresis" unicode="&#x1e85;" horiz-adv-x="745" 
d="M273 131l62 146q9 20 38 20q32 0 39 -23l61 -143l163 386q6 15 21.5 19t30.5 -3q15 -6 22.5 -19.5t1.5 -28.5l-195 -460q-10 -25 -38 -25q-27 0 -38 27l-68 160l-68 -160q-13 -27 -39 -27q-28 0 -38 25l-195 460q-6 15 1 28.5t23 19.5q14 7 29.5 3t21.5 -19zM252 677
q0 16 10.5 27.5t30.5 11.5t30.5 -11.5t10.5 -27.5t-10.5 -27.5t-30.5 -11.5t-30.5 11.5t-10.5 27.5zM412 677q0 16 10.5 27.5t30.5 11.5t30.5 -11.5t10.5 -27.5t-10.5 -27.5t-30.5 -11.5t-30.5 11.5t-10.5 27.5z" />
    <glyph glyph-name="Ygrave" unicode="&#x1ef2;" horiz-adv-x="648" 
d="M520 643v119q0 16 12 25.5t29 9.5t29 -9.5t12 -25.5v-119q0 -115 -59.5 -186.5t-149.5 -92.5q-28 -7 -28 -36v-293q0 -16 -12 -25.5t-29 -9.5t-29 9.5t-12 25.5v293q0 29 -28 36q-91 22 -150 93t-59 186v119q0 16 12 25.5t29 9.5t29 -9.5t12 -25.5v-117q0 -103 57 -155
t139 -52t139 52.5t57 152.5zM303 850q-30 8 -94 26q-44 13 -45 13l-2 1q-26 12 -13 44q14 31 40 21l129 -68q19 -10 11 -26q-7 -16 -26 -11z" />
    <glyph glyph-name="ygrave" unicode="&#x1ef3;" horiz-adv-x="533" 
d="M268 145l157 371q5 12 21 17.5t30 -0.5q17 -8 23.5 -22t0.5 -27l-244 -576q-38 -90 -106 -135t-147 -45q-57 0 -115 24q-12 5 -17.5 19.5t0.5 31.5q7 17 20.5 23.5t28.5 1.5q44 -18 84 -18q121 0 177 130l36 84q6 16 0 32l-182 426q-13 34 24 50q38 16 52 -18zM268 623
q-30 8 -94 26q-44 13 -45 13l-2 1q-26 12 -13 44q14 31 40 21l129 -68q19 -10 11 -26q-7 -16 -26 -11z" />
    <glyph glyph-name="endash" unicode="&#x2013;" horiz-adv-x="571" 
d="M478 234h-385q-19 0 -26.5 17.5t0 35t26.5 17.5h385q19 0 26.5 -17.5t0 -35t-26.5 -17.5z" />
    <glyph glyph-name="emdash" unicode="&#x2014;" horiz-adv-x="631" 
d="M538 234h-445q-19 0 -26.5 17.5t0 35t26.5 17.5h445q19 0 26.5 -17.5t-0.5 -35t-26 -17.5z" />
    <glyph glyph-name="quoteleft" unicode="&#x2018;" horiz-adv-x="105" 
d="M3 628l31 144q5 18 22 17t17 -22v-145q0 -15 -11.5 -23.5t-26.5 -6.5q-16 2 -25.5 12t-6.5 24z" />
    <glyph glyph-name="quoteright" unicode="&#x2019;" horiz-adv-x="113" 
d="M78 752l-31 -144q-5 -18 -22 -17t-17 22v145q0 15 11.5 23.5t26.5 6.5q16 -2 25.5 -12t6.5 -24z" />
    <glyph glyph-name="quotesinglbase" unicode="&#x201a;" horiz-adv-x="146" 
d="M90 32v18q0 19 12 28.5t29 9.5t29 -10.5t12 -29.5q0 -61 -24 -120t-68 -100q-10 -10 -25 -10t-25 10t-10 25q0 14 10 24q60 60 60 155z" />
    <glyph glyph-name="quotedblleft" unicode="&#x201c;" horiz-adv-x="291" 
d="M66 628l31 144q5 18 22 17t17 -22v-145q0 -15 -11.5 -23.5t-26.5 -6.5q-16 2 -25.5 12t-6.5 24zM189 628l31 144q5 18 22 17t17 -22v-145q0 -15 -11.5 -23.5t-26.5 -6.5q-16 2 -25.5 12t-6.5 24z" />
    <glyph glyph-name="quotedblright" unicode="&#x201d;" horiz-adv-x="323" 
d="M160 752l-31 -144q-5 -18 -22 -17t-17 22v145q0 15 11.5 23.5t26.5 6.5q16 -2 25.5 -12t6.5 -24zM288 752l-31 -144q-5 -18 -22 -17t-17 22v145q0 15 11.5 23.5t26.5 6.5q16 -2 25.5 -12t6.5 -24z" />
    <glyph glyph-name="quotedblbase" unicode="&#x201e;" horiz-adv-x="364" 
d="M90 54v18q0 19 12 28.5t29 9.5t29 -10.5t12 -29.5q0 -61 -24 -120t-68 -100q-10 -10 -25 -10t-25 10t-10 25q0 14 10 24q60 60 60 155zM277 54v18q0 19 12 28.5t29 9.5t29 -10.5t12 -29.5q0 -61 -24 -120t-68 -100q-10 -10 -25 -10t-25 10t-10 25q0 14 10 24
q60 60 60 155z" />
    <glyph glyph-name="dagger" unicode="&#x2020;" horiz-adv-x="483" 
d="M201 562v199q0 23 20.5 32t41 0t20.5 -32v-199q0 -11 7 -18t17 -7h108q23 0 32 -20.5t0 -41t-32 -20.5h-108q-10 0 -17 -7t-7 -17v-657q0 -23 -20.5 -32t-41 0t-20.5 32v657q0 10 -7 17t-18 7h-108q-23 0 -32 20.5t0 41t32 20.5h108q25 0 25 25z" />
    <glyph glyph-name="daggerdbl" unicode="&#x2021;" horiz-adv-x="521" 
d="M326 351h113q23 0 32 -20.5t0 -41t-32 -20.5h-113q-10 0 -17 -7t-7 -18v-219q0 -11 7 -18t17 -7h113q23 0 32 -20.5t0 -41t-32 -20.5h-113q-10 0 -17 -7t-7 -17v-120q0 -23 -20.5 -32t-41 0t-20.5 32v120q0 10 -7 17t-18 7h-113q-23 0 -32 20.5t0 41t32 20.5h113
q25 0 25 25v219q0 25 -25 25h-113q-23 0 -32 20.5t0 41t32 20.5h113q11 0 18 7t7 17v126q0 23 20.5 32t41 0t20.5 -32v-126q0 -10 7 -17t17 -7z" />
    <glyph glyph-name="bullet" unicode="&#x2022;" horiz-adv-x="286" 
d="M165 267q0 21 14 36t39 15q26 0 39.5 -15t13.5 -36q0 -20 -13.5 -35t-39.5 -15q-25 0 -39 15t-14 35z" />
    <glyph glyph-name="onedotenleader" unicode="&#x2024;" horiz-adv-x="146" 
d="M32 39q0 16 10.5 27.5t30.5 11.5t30.5 -11.5t10.5 -27.5t-10.5 -27.5t-30.5 -11.5t-30.5 11.5t-10.5 27.5z" />
    <glyph glyph-name="twodotenleader" unicode="&#x2025;" horiz-adv-x="267" 
d="M32 39q0 16 10.5 27.5t30.5 11.5t30.5 -11.5t10.5 -27.5t-10.5 -27.5t-30.5 -11.5t-30.5 11.5t-10.5 27.5zM153 39q0 16 10.5 27.5t30.5 11.5t30.5 -11.5t10.5 -27.5t-10.5 -27.5t-30.5 -11.5t-30.5 11.5t-10.5 27.5z" />
    <glyph glyph-name="ellipsis" unicode="&#x2026;" horiz-adv-x="458" 
d="M233 39q0 16 10.5 27.5t30.5 11.5t30.5 -11.5t10.5 -27.5t-10.5 -27.5t-30.5 -11.5t-30.5 11.5t-10.5 27.5zM371 40q0 16 10.5 27.5t30.5 11.5t30.5 -11.5t10.5 -27.5t-10.5 -27.5t-30.5 -11.5t-30.5 11.5t-10.5 27.5zM90 40q0 16 10.5 27.5t30.5 11.5t30.5 -11.5
t10.5 -27.5t-10.5 -27.5t-30.5 -11.5t-30.5 11.5t-10.5 27.5z" />
    <glyph glyph-name="perthousand" unicode="&#x2030;" horiz-adv-x="822" 
d="M41 443v-60q0 -32 20 -52.5t48 -20.5q30 0 49.5 20.5t19.5 52.5v60q0 32 -19.5 52.5t-49.5 20.5q-28 0 -48 -20.5t-20 -52.5zM109 268q-46 0 -77.5 33.5t-31.5 81.5v60q0 48 31.5 81t77.5 33t78 -33t32 -81v-60q0 -48 -32 -81.5t-78 -33.5zM321 157v-60q0 -32 20 -52.5
t48 -20.5q30 0 49.5 20.5t19.5 52.5v60q0 32 -19.5 52.5t-49.5 20.5q-28 0 -48 -20.5t-20 -52.5zM389 -18q-46 0 -77.5 33.5t-31.5 81.5v60q0 48 31.5 81t77.5 33t78 -33t32 -81v-60q0 -48 -32 -81.5t-78 -33.5zM581 157v-60q0 -32 20 -52.5t48 -20.5q30 0 49.5 20.5
t19.5 52.5v60q0 32 -19.5 52.5t-49.5 20.5q-28 0 -48 -20.5t-20 -52.5zM649 -18q-46 0 -77.5 33.5t-31.5 81.5v60q0 48 31.5 81t77.5 33t78 -33t32 -81v-60q0 -48 -32 -81.5t-78 -33.5zM137 87l160 375q5 15 24 7q18 -8 11 -23l-159 -374q-5 -14 -24 -8q-18 8 -12 23z" />
    <glyph glyph-name="guilsinglleft" unicode="&#x2039;" horiz-adv-x="218" 
d="M115 386l-53 -104q-10 -16 0 -32l53 -104q14 -30 -20 -43q-14 -6 -27.5 -1.5t-17.5 18.5l-38 139q-1 7 0 14l38 138q4 14 17.5 19t27.5 -1q34 -13 20 -43z" />
    <glyph glyph-name="guilsinglright" unicode="&#x203a;" horiz-adv-x="218" 
d="M150 282l-53 104q-14 30 20 43q14 6 27.5 1t17.5 -19l38 -138q1 -7 0 -14l-38 -139q-4 -14 -17.5 -18.5t-27.5 1.5q-34 13 -20 43l53 104q10 16 0 32z" />
    <glyph glyph-name="fraction" unicode="&#x2044;" horiz-adv-x="479" 
d="M133 128l142 336q7 14 22 6q16 -6 10 -20l-142 -335q-5 -13 -22 -7q-15 8 -10 20z" />
    <glyph glyph-name="Euro" unicode="&#x20ac;" horiz-adv-x="599" 
d="M249 379h114q14 0 21.5 -10t7.5 -25t-7.5 -25t-21.5 -10h-132q-17 0 -18 -15v-52q2 -15 17 -15h81q14 0 21.5 -10t7.5 -25t-7.5 -25t-21.5 -10h-62q-3 0 -5.5 -3t-0.5 -5q52 -86 165 -86q26 0 60.5 8.5t43.5 8.5q30 0 36 -30t-18 -44q-44 -26 -122 -26q-89 0 -156 43.5
t-98 119.5q-5 14 -19 14h-66q-14 0 -22 10t-8 25t8 25t22 10h44q18 0 18 19v44q0 19 -18 19h-15q-14 0 -21.5 10t-7.5 25t7.5 25t21.5 10h36q15 0 20 14q31 75 97.5 118.5t156.5 43.5q70 0 122 -25q24 -14 18 -44t-36 -30q-9 0 -43.5 8.5t-60.5 8.5q-113 0 -164 -85
q-2 -3 0 -6t5 -3z" />
    <glyph glyph-name="NumeroSing" unicode="&#x2116;" horiz-adv-x="919" 
d="M693 0v30h183v-30h-183zM159 521v-486q0 -16 -12 -25.5t-29 -9.5t-29 9.5t-12 25.5v485q0 71 24 127.5t64 90.5t89 52t101 18q113 0 195.5 -75t82.5 -212v-486q0 -16 -12 -25.5t-29 -9.5t-29 9.5t-12 25.5v484q0 102 -57 154.5t-139 52.5t-139 -52.5t-57 -152.5zM784 67
q-44 0 -77 30t-33 85q0 54 33 84t77 30q46 0 78.5 -30t32.5 -84q0 -55 -33 -85t-78 -30zM784 100q33 0 55.5 21t22.5 61t-22.5 60.5t-55.5 20.5q-32 0 -55 -21t-23 -60q0 -40 23 -61t55 -21z" />
    <glyph glyph-name="trademark" unicode="&#x2122;" horiz-adv-x="777" 
d="M228 676q3 -7 11 -7q5 0 8 3q29 25 83 25q81 0 121 -65q40 65 121 65q57 0 99.5 -38t42.5 -108v-116q0 -18 -21 -18t-21 18v116q0 51 -29 77.5t-71 26.5t-71 -26.5t-29 -77.5v-116q0 -18 -21 -18t-21 18v116q0 51 -29 77.5t-71 26.5q-41 0 -70.5 -26.5t-29.5 -77.5v-55
q0 -18 -20 -18q-21 0 -21 18v144q0 12 -12 12h-49q-18 0 -18 -18v-92q0 -40 29 -68t76 -28h6q22 0 22 -19q0 -20 -31 -20q-59 0 -101 40.5t-42 93.5v93q0 18 -18 18h-33q-15 0 -15 18q0 17 15 17h33q18 0 18 18v76q0 16 21 16q20 0 20 -16v-76q0 -18 18 -18h83q11 0 17 -11z
" />
    <glyph glyph-name="minus" unicode="&#x2212;" horiz-adv-x="490" 
d="M363 226h-237q-16 0 -26 12t-10 29q0 18 9.5 29.5t26.5 11.5h237q17 0 26 -11.5t9 -29.5q0 -17 -9.5 -29t-25.5 -12z" />
    <glyph glyph-name="uni2215" unicode="&#x2215;" horiz-adv-x="437" 
d="M30 22l320 757q5 12 18 15.5t25 -2.5q14 -6 20.5 -17t0.5 -24l-319 -756q-11 -27 -44 -13q-31 13 -21 40z" />
    <glyph glyph-name="uni2219" unicode="&#x2219;" horiz-adv-x="256" 
d="M117 219l-36 36q-4 4 -4 11t4 11l36 36q4 4 11 4t11 -4l36 -36q4 -4 4 -11t-4 -11l-36 -36q-4 -4 -11 -4q-8 0 -11 4z" />
    <glyph glyph-name="radical" unicode="&#x221a;" horiz-adv-x="657" 
d="M337 -236l-133 272q-11 20 -32 11l-110 -54q-7 -4 -19 -4q-22 1 -36 26q-8 12 -4 29.5t21 26.5l170 82q12 5 21 5q26 -1 37 -24l106 -216q2 -4 6 -4t5 4l195 731q9 34 51 27q43 -11 32 -50l-228 -854q-10 -34 -39 -34q-28 0 -43 26z" />
    <glyph glyph-name="infinity" unicode="&#x221e;" horiz-adv-x="797" 
d="M399 133q-57 -65 -143 -65q-80 0 -136.5 59t-56.5 141t56 141t137 59q86 0 143 -65q57 65 142 65q81 0 137 -59t56 -141t-56.5 -141t-136.5 -59q-85 0 -142 65zM370 232q5 21 29 21q23 0 28 -22q12 -39 44 -63.5t70 -24.5q48 0 83.5 36.5t35.5 88.5t-35.5 88.5
t-83.5 36.5q-39 0 -70.5 -24.5t-43.5 -63.5q-5 -23 -28 -23q-24 0 -29 23q-12 39 -43.5 63.5t-70.5 24.5q-48 0 -83 -36.5t-35 -88.5t35 -88.5t83 -36.5q39 0 71 24.5t43 64.5z" />
    <glyph glyph-name="integral" unicode="&#x222b;" horiz-adv-x="369" 
d="M228 566v-484q-4 -138 -131 -224q-9 -6 -22 -6q-19 0 -31 12t-12 30q0 11 7.5 19.5t25.5 22t29 23.5q47 41 47 124v484q0 133 131 224q11 6 22 6q18 0 30.5 -12.5t12.5 -29.5q0 -14 -14.5 -25t-38 -32t-39.5 -53q-17 -38 -17 -79z" />
    <glyph glyph-name="approxequal" unicode="&#x2248;" horiz-adv-x="699" 
d="M368 321l-69 39q-10 6 -19 6q-29 0 -34 -32q-4 -26 -35 -25.5t-31 27.5q0 39 30.5 67t69.5 28q29 0 51 -13l69 -39q10 -6 19 -6q29 0 34 32q5 26 34 26q14 0 23 -7.5t9 -20.5q0 -39 -30.5 -67t-69.5 -28q-29 0 -51 13zM368 117l-69 39q-11 6 -19 6q-29 0 -34 -32
q-4 -26 -35 -25.5t-31 27.5q0 39 30.5 67t69.5 28q29 0 51 -13l69 -39q10 -6 19 -6q29 0 34 32q5 26 34 26q14 0 23 -7.5t9 -20.5q0 -39 -30.5 -67t-69.5 -28q-29 0 -51 13z" />
    <glyph glyph-name="notequal" unicode="&#x2260;" horiz-adv-x="550" 
d="M414 317h-288q-23 0 -32 20.5t0 41t32 20.5h288q23 0 32 -20.5t0 -41t-32 -20.5zM414 131h-288q-23 0 -32 20.5t0 41t32 20.5h288q23 0 32 -20.5t0 -41t-32 -20.5zM144 41l201 473q8 19 30 9q22 -9 15 -29l-201 -473q-7 -19 -31 -9q-21 10 -14 29z" />
    <glyph glyph-name="lessequal" unicode="&#x2264;" horiz-adv-x="583" 
d="M179 329l306 -131q12 -5 16 -18t-2 -24q-14 -31 -40 -20l-378 163q-18 7 -18 30t18 31l380 161q12 5 22.5 -1t16.5 -19q6 -11 2.5 -23.5t-15.5 -18.5zM478 0h-385q-19 0 -26.5 17.5t0 35t26.5 17.5h385q19 0 26.5 -17.5t0 -35t-26.5 -17.5z" />
    <glyph glyph-name="greaterequal" unicode="&#x2265;" horiz-adv-x="521" 
d="M67 175l306 131l-308 130q-12 6 -15.5 18.5t2.5 23.5q6 13 16.5 19t22.5 1l380 -161q18 -7 18 -30t-18 -31l-378 -163q-26 -11 -40 20q-6 11 -2 24t16 18zM460 0h-385q-19 0 -26.5 17.5t0 35t26.5 17.5h385q19 0 26.5 -17.5t0 -35t-26.5 -17.5z" />
    <glyph glyph-name="CR" horiz-adv-x="282" 
 />
    <glyph glyph-name="acent" horiz-adv-x="177" 
d="M32 32v18q0 19 12 28.5t29 9.5t29 -10.5t12 -29.5q0 -61 -24 -120t-68 -100q-10 -10 -25 -10t-25 10t-10 25q0 14 10 24q60 60 60 155z" />
    <glyph glyph-name="commaaccent" horiz-adv-x="130" 
d="M100 -101l-30 -141q-5 -20 -22 -18q-18 3 -18 22v144q0 15 12 24t27 7t24.5 -13t6.5 -25z" />
    </font>
</defs>
</svg>
